<svg width="19" height="25" viewBox="0 0 19 25" fill="none" xmlns="http://www.w3.org/2000/svg">
<path fill-rule="evenodd" clip-rule="evenodd" d="M0 3.9761V1.98805H4.84615C4.84615 1.66122 4.89061 1.05219 5.40782 0.575643C5.88995 0.131417 6.5725 0 7.30769 0H11.6923C12.4275 0 13.1101 0.131417 13.5922 0.575642C14.1094 1.05219 14.1538 1.66122 14.1538 1.98805H19V3.9761H0ZM0.172545 6.64366H18.8293L17.4593 21.6233L17.451 21.6682L16.4676 21.4878C17.451 21.6682 17.451 21.668 17.451 21.6682L17.4507 21.6698L17.4502 21.6724L17.4487 21.6802L17.4436 21.7064C17.4393 21.7283 17.4332 21.7591 17.4251 21.7976C17.4092 21.8743 17.3857 21.982 17.355 22.1106C17.2943 22.3652 17.2024 22.7133 17.08 23.0688C16.9618 23.4122 16.7962 23.8191 16.5714 24.1587C16.3885 24.4353 15.9484 25 15.2009 25H3.80091C3.05368 25 2.61337 24.4363 2.42976 24.1589C2.20477 23.8191 2.03918 23.412 1.92102 23.0685C1.79871 22.7129 1.70698 22.3647 1.64639 22.1101C1.61578 21.9815 1.59241 21.8737 1.57647 21.7969C1.56849 21.7585 1.56234 21.7277 1.55805 21.7057L1.55299 21.6796L1.55151 21.6717L1.55103 21.6692L1.55079 21.6678C1.55076 21.6677 1.55073 21.6675 2.53424 21.4878L1.55079 21.6678L1.54248 21.6229L0.172545 6.64366ZM3.52559 21.3481C3.52817 21.361 3.53137 21.3767 3.53517 21.395C3.54783 21.456 3.5671 21.545 3.59268 21.6524C3.64445 21.87 3.71921 22.1513 3.81345 22.4253C3.89947 22.6753 3.98751 22.8768 4.06682 23.0119H14.9342C15.0136 22.8766 15.1017 22.675 15.1878 22.425C15.2822 22.1509 15.3571 21.8695 15.409 21.6519C15.4347 21.5444 15.454 21.4554 15.4667 21.3944C15.4705 21.3762 15.4737 21.3606 15.4763 21.3477L16.6392 8.63171H2.36261L3.52559 21.3481ZM14.8425 23.141C14.8424 23.1399 14.8484 23.1325 14.8607 23.1217C14.8487 23.1366 14.8426 23.142 14.8425 23.141ZM4.15819 23.1404C4.15811 23.1414 4.15204 23.1361 4.14018 23.1213C4.15234 23.1321 4.15827 23.1394 4.15819 23.1404Z" fill="black"/>
</svg>
