<svg width="16" height="16" viewBox="0 0 16 16" fill="none" xmlns="http://www.w3.org/2000/svg">
<path fill-rule="evenodd" clip-rule="evenodd" d="M4 0H2V7.17071C0.834808 7.58254 0 8.69378 0 10C0 11.3062 0.834808 12.4175 2 12.8293V16H4V12.8293C5.16519 12.4175 6 11.3062 6 10C6 8.69378 5.16519 7.58254 4 7.17071V0ZM12 0H14V3.17071C15.1652 3.58254 16 4.69378 16 6C16 7.30622 15.1652 8.41746 14 8.82929V16H12V8.82929C10.8348 8.41746 10 7.30622 10 6C10 4.69378 10.8348 3.58254 12 3.17071V0ZM13 7C13.5523 7 14 6.55228 14 6C14 5.44772 13.5523 5 13 5C12.4477 5 12 5.44772 12 6C12 6.55228 12.4477 7 13 7ZM4 10C4 10.5523 3.55228 11 3 11C2.44772 11 2 10.5523 2 10C2 9.44772 2.44772 9 3 9C3.55228 9 4 9.44772 4 10Z" fill="black"/>
</svg>
