<svg width="22" height="21" viewBox="0 0 22 21" fill="none" xmlns="http://www.w3.org/2000/svg">
<path d="M16.9953 19.034H2.02696V4.98786H10.7585L12.7855 3H1.7374C0.779601 3 0 3.76456 0 4.68204V19.318C0 20.2573 0.779601 21 1.7374 21H17.2626C18.2204 21 19 20.2573 19 19.318V7.83088L16.973 9.94853V19.034H16.9953Z" fill="black"/>
<path d="M10.098 8.87233L15.8143 2.8615L18.7521 5.94292L13.0358 11.9538L10.098 8.87233Z" fill="black"/>
<path d="M7.97303 10.9775C7.86444 11.096 7.81015 11.2144 7.75585 11.3922L7.02288 14.9763C6.88715 15.5687 7.3758 16.1019 7.94588 15.9834L10.7241 14.5894C10.8598 14.5598 10.9956 14.471 11.1041 14.3525L12 13.375L8.86889 10L7.97303 10.9775Z" fill="black"/>
<path d="M21.7534 2.15817L19.9592 0.236819C19.6304 -0.0789396 19.0924 -0.0789396 18.7636 0.236819L17 1.93043L19.9898 5L21.7534 3.30639C22.0822 2.99063 22.0822 2.47393 21.7534 2.15817Z" fill="black"/>
</svg>
