<svg width="19" height="25" viewBox="0 0 19 25" fill="none" xmlns="http://www.w3.org/2000/svg">
	<mask id="path-1-inside-1_158_4484" fill="white">
		<path fill-rule="evenodd" clip-rule="evenodd" d="M19 3.80013V3.4513C19 3.60702 18.9198 3.59171 18.6818 3.54625C18.4864 3.50894 18.1846 3.4513 17.7333 3.4513H12.6667V2.18464C13.0625 1.48507 12.5308 0.917969 11.4 0.917969H7.6C6.46916 0.917969 5.9375 1.48507 6.33333 2.18464V3.4513H1.26667C0.815445 3.4513 0.513622 3.50894 0.318201 3.54625C0.0801671 3.59171 0 3.60702 0 3.4513V3.80013C0 4.78325 0.265831 5.0668 1.26667 5.0668H17.7333C18.7342 5.0668 19 4.78325 19 3.80013ZM3.8 24.0668C3.40483 24.0698 2.37657 23.1136 2.53333 21.5335L1.26667 7.60013H17.7333L16.4667 21.5335C16.6469 23.1136 15.6187 24.0698 15.2 24.0668H3.8Z" />
	</mask>
	<path d="M18.6818 3.54625L18.9632 2.07288L18.9631 2.07288L18.6818 3.54625ZM12.6667 3.4513H11.1667V4.9513H12.6667V3.4513ZM12.6667 2.18464L11.3612 1.44594L11.1667 1.78968V2.18464H12.6667ZM6.33333 2.18464H7.83333V1.78968L7.63883 1.44594L6.33333 2.18464ZM6.33333 3.4513V4.9513H7.83333V3.4513H6.33333ZM0.318201 3.54625L0.599551 5.01963L0.599552 5.01963L0.318201 3.54625ZM2.53333 21.5335L4.02601 21.6816L4.04008 21.5397L4.02717 21.3977L2.53333 21.5335ZM3.8 24.0668L3.8 22.5668L3.7885 22.5668L3.8 24.0668ZM1.26667 7.60013V6.10013H-0.375883L-0.227173 7.73594L1.26667 7.60013ZM17.7333 7.60013L19.2272 7.73594L19.3759 6.10013H17.7333V7.60013ZM16.4667 21.5335L14.9728 21.3977L14.9589 21.5508L14.9763 21.7035L16.4667 21.5335ZM15.2 24.0668L15.2109 22.5668H15.2V24.0668ZM17.5 3.4513V3.80013H20.5V3.4513H17.5ZM18.4004 5.01963C18.4447 5.02808 18.5426 5.04735 18.6362 5.05967C18.7075 5.06904 18.945 5.10093 19.2242 5.04511C19.5889 4.9722 20.0213 4.74808 20.2876 4.27985C20.4939 3.91709 20.5 3.57045 20.5 3.4513H17.5C17.5 3.41001 17.496 3.11986 17.6799 2.7966C17.9238 2.36786 18.3212 2.16628 18.6361 2.10332C18.7652 2.07751 18.868 2.0764 18.9219 2.07765C18.9779 2.07895 19.017 2.08391 19.0276 2.08531C19.0393 2.08684 19.0379 2.08716 18.9632 2.07288L18.4004 5.01963ZM17.7333 4.9513C18.0435 4.9513 18.2366 4.98835 18.4004 5.01963L18.9631 2.07288C18.7361 2.02952 18.3256 1.9513 17.7333 1.9513V4.9513ZM12.6667 4.9513H17.7333V1.9513H12.6667V4.9513ZM11.1667 2.18464V3.4513H14.1667V2.18464H11.1667ZM11.4 2.41797C11.5627 2.41797 11.6507 2.43896 11.6784 2.4477C11.7097 2.45761 11.6354 2.44172 11.5349 2.33923C11.4201 2.22218 11.3171 2.03516 11.2993 1.80852C11.2829 1.59819 11.3483 1.46873 11.3612 1.44594L13.9722 2.92333C14.183 2.55076 14.3303 2.08807 14.2902 1.57467C14.2488 1.04494 14.0164 0.584971 13.6768 0.238707C13.0465 -0.404002 12.1491 -0.582031 11.4 -0.582031V2.41797ZM7.6 2.41797H11.4V-0.582031H7.6V2.41797ZM7.63883 1.44594C7.65173 1.46873 7.71711 1.59819 7.70067 1.80851C7.68295 2.03516 7.5799 2.22218 7.46512 2.33923C7.36461 2.44172 7.2903 2.45761 7.32163 2.4477C7.34926 2.43896 7.43735 2.41797 7.6 2.41797V-0.582031C6.85093 -0.582031 5.95349 -0.404002 5.32321 0.238707C4.98363 0.584971 4.75122 1.04494 4.7098 1.57467C4.66966 2.08808 4.81702 2.55076 5.02783 2.92333L7.63883 1.44594ZM7.83333 3.4513V2.18464H4.83333V3.4513H7.83333ZM1.26667 4.9513H6.33333V1.9513H1.26667V4.9513ZM0.599552 5.01963C0.763359 4.98835 0.956496 4.9513 1.26667 4.9513V1.9513C0.674395 1.9513 0.263884 2.02952 0.0368502 2.07288L0.599552 5.01963ZM-1.5 3.4513C-1.5 3.57045 -1.49393 3.91708 -1.28759 4.27985C-1.02126 4.74808 -0.588925 4.9722 -0.22423 5.04511C0.0549919 5.10093 0.292528 5.06904 0.363771 5.05967C0.457364 5.04735 0.555309 5.02808 0.599551 5.01963L0.0368505 2.07288C-0.0379238 2.08716 -0.0392622 2.08684 -0.0276481 2.08531C-0.0169959 2.08391 0.0220664 2.07895 0.0780682 2.07765C0.131964 2.0764 0.234779 2.07751 0.363906 2.10332C0.678805 2.16628 1.07622 2.36787 1.32008 2.7966C1.50395 3.11986 1.5 3.41001 1.5 3.4513H-1.5ZM1.5 3.80013V3.4513H-1.5V3.80013H1.5ZM1.26667 3.5668C1.17531 3.5668 1.11013 3.56349 1.06508 3.55926C1.01961 3.55499 1.00595 3.55081 1.01469 3.55302C1.03826 3.55899 1.1801 3.60126 1.32476 3.74759C1.46873 3.89323 1.50871 4.034 1.51373 4.0544C1.51559 4.06197 1.51142 4.04745 1.50726 4.00152C1.50314 3.95602 1.5 3.89091 1.5 3.80013H-1.5C-1.5 4.30854 -1.4621 5.19574 -0.80872 5.85668C-0.150966 6.52204 0.740603 6.5668 1.26667 6.5668V3.5668ZM17.7333 3.5668H1.26667V6.5668H17.7333V3.5668ZM17.5 3.80013C17.5 3.89091 17.4969 3.95602 17.4927 4.00152C17.4886 4.04745 17.4844 4.06197 17.4863 4.0544C17.4913 4.034 17.5313 3.89323 17.6752 3.74759C17.8199 3.60126 17.9617 3.55899 17.9853 3.55302C17.9941 3.55081 17.9804 3.55499 17.9349 3.55926C17.8899 3.56349 17.8247 3.5668 17.7333 3.5668V6.5668C18.2594 6.5668 19.151 6.52204 19.8087 5.85668C20.4621 5.19574 20.5 4.30854 20.5 3.80013H17.5ZM1.04066 21.3854C0.926023 22.5409 1.24416 23.5151 1.70642 24.218C1.93366 24.5635 2.20721 24.8613 2.50429 25.0876C2.73936 25.2667 3.20976 25.5714 3.8115 25.5668L3.7885 22.5668C4.02334 22.565 4.18119 22.6292 4.23098 22.6512C4.26456 22.666 4.28777 22.6791 4.30084 22.687C4.31425 22.6952 4.32123 22.7004 4.32236 22.7013C4.32393 22.7025 4.31132 22.6929 4.28929 22.6689C4.26783 22.6455 4.2412 22.6125 4.21296 22.5696C4.1015 22.4001 3.98388 22.1061 4.02601 21.6816L1.04066 21.3854ZM-0.227173 7.73594L1.03949 21.6693L4.02717 21.3977L2.76051 7.46433L-0.227173 7.73594ZM17.7333 6.10013H1.26667V9.10013H17.7333V6.10013ZM17.9605 21.6693L19.2272 7.73594L16.2395 7.46433L14.9728 21.3977L17.9605 21.6693ZM15.1891 25.5668C15.7793 25.571 16.247 25.2834 16.4977 25.0961C16.8025 24.8684 17.0813 24.5676 17.3112 24.218C17.7794 23.5061 18.0893 22.5229 17.957 21.3634L14.9763 21.7035C15.0243 22.1241 14.9102 22.4091 14.8047 22.5696C14.7777 22.6106 14.7524 22.6418 14.7321 22.6636C14.7113 22.6861 14.6997 22.6946 14.7021 22.6928C14.7036 22.6917 14.7109 22.6863 14.7244 22.6783C14.7376 22.6705 14.7605 22.658 14.7933 22.644C14.8446 22.6221 14.9924 22.5653 15.2109 22.5668L15.1891 25.5668ZM3.8 25.5668H15.2V22.5668H3.8V25.5668Z" fill="black" mask="url(#path-1-inside-1_158_4484)" />
</svg>
