<svg width="22" height="31" viewBox="0 0 22 31" fill="none" xmlns="http://www.w3.org/2000/svg">
<path fill-rule="evenodd" clip-rule="evenodd" d="M19.4724 19.5082C18.3371 17.4343 15.7372 16.7286 13.7093 17.9569L12.9395 18.4199C12.9395 18.4199 11.9289 16.7388 11.1308 14.8769C10.3327 13.015 9.73822 10.9522 9.73822 10.9522L10.6102 10.4214C12.5908 9.22186 13.2712 6.63158 12.1621 4.58432L10.8183 2.16007C9.68608 0.091985 7.09432 -0.618325 5.06535 0.588609L2.12301 2.37647C-1.19407 4.39754 -0.619537 11.0991 3.81459 19.1674C8.297 27.2964 12.9128 31.6223 16.3313 29.5518C16.3586 29.5333 16.384 29.5161 16.408 29.4997C16.4877 29.4455 16.5534 29.4008 16.6313 29.3502C16.7121 29.3107 16.7395 29.2975 16.7768 29.2803L16.926 29.201L19.262 27.785C21.2466 26.5615 21.9239 23.9768 20.8093 21.9197L19.4724 19.5082ZM15.2606 20.5251C15.8276 20.1817 16.5233 20.3705 16.8434 20.9553L18.18 23.3663C18.5284 24.0161 18.3092 24.8477 17.6962 25.2256L15.4377 26.5945C15.4028 26.6112 15.3645 26.6298 15.3133 26.6548C15.2325 26.6943 15.2052 26.7074 15.1678 26.7247L14.9751 26.8136L14.8147 26.9524C14.8005 26.9646 14.7778 26.9813 14.6994 27.0356C13.6641 27.6594 10.0766 24.3088 6.44405 17.7211C4.74417 14.628 4.28502 12.3169 3.79806 9.86577C3.74196 9.58338 3.68549 9.29913 3.62671 9.01162C3.14243 6.64285 3.32381 5.15831 3.68355 4.93913L6.61226 3.15947C7.16711 2.82949 7.86874 3.02178 8.18927 3.60726L9.52993 6.02571C9.87467 6.66219 9.65698 7.49095 9.05212 7.85729L7.09133 9.05072L6.02106 9.70214L6.47138 10.871C6.47138 10.871 7.32452 13.7912 8.50218 16.3248C9.67984 18.8583 11.3252 21.3131 11.3252 21.3131L12.1372 22.4038L15.2606 20.5251Z" fill="white"/>
</svg>
