<svg width="70" height="80" viewBox="0 0 70 80" fill="none" xmlns="http://www.w3.org/2000/svg">
<path fill-rule="evenodd" clip-rule="evenodd" d="M0.133966 59.9707C-0.0359555 59.6768 -0.0447446 59.3164 0.110529 59.0146C0.270441 58.7021 3.87298 51.7852 10.981 46.2468C8.0733 45.2156 6.72405 42.4579 6.72479 39.9746C6.72552 37.4887 8.0772 34.7265 10.9882 33.6942C3.89727 28.1754 0.284479 21.2671 0.110529 20.9268C-0.0447446 20.625 -0.0359556 20.2646 0.133966 19.9707C0.303888 19.6768 0.611505 19.4893 0.950373 19.4717C1.29754 19.4553 9.09344 19.116 17.4443 22.5023C16.886 19.4701 18.6021 16.9224 20.7541 15.6797C22.9061 14.4363 25.9719 14.2255 28.3183 16.23C29.5521 7.33075 33.7277 0.748962 33.9357 0.427734C34.3049 -0.142578 35.2463 -0.142578 35.6154 0.427734C35.8062 0.723022 39.9964 7.30243 41.238 16.2277C43.5843 14.2281 46.6489 14.4406 48.801 15.6826C50.9512 16.9237 52.6657 19.4683 52.1088 22.4972C60.3996 19.1302 68.1584 19.4533 68.5959 19.4715L68.6008 19.4717C68.9396 19.4893 69.2472 19.6768 69.4172 19.9707C69.5871 20.2646 69.5959 20.625 69.4406 20.9268C69.2807 21.2393 65.6782 28.1562 58.5701 33.6946C61.4778 34.7258 62.8271 37.4835 62.8263 39.9668C62.8256 42.4527 61.4739 45.2149 58.5629 46.2472C65.6539 51.766 69.2667 58.6743 69.4406 59.0146C69.5959 59.3164 69.5871 59.6768 69.4172 59.9707C69.2472 60.2646 68.9396 60.4521 68.6008 60.4697L68.5993 60.4698H68.5993C68.5315 60.4729 68.214 60.4873 67.6906 60.4873C65.3576 60.4873 58.9174 60.1985 52.1064 57.4363C52.6662 60.4697 50.9496 63.0186 48.7971 64.2617C47.7746 64.8525 46.5451 65.2119 45.2844 65.2119C43.8923 65.2119 42.4633 64.7692 41.2321 63.7177C39.9971 72.6138 35.8234 79.1926 35.6154 79.5137C35.4308 79.7988 35.1154 79.9707 34.7756 79.9707C34.4357 79.9707 34.1203 79.7988 33.9357 79.5137C33.7449 79.2184 29.5565 72.6415 28.3139 63.7189C27.0834 64.767 25.6557 65.209 24.2648 65.209C23.0031 65.209 21.7736 64.8496 20.7502 64.2588C18.5991 63.0172 16.884 60.4709 17.443 57.4404C10.6531 60.1984 4.22027 60.4873 1.87225 60.4873C1.36546 60.4873 1.04956 60.4739 0.96119 60.4702L0.950373 60.4697C0.611505 60.4521 0.303888 60.2646 0.133966 59.9707ZM19.8088 56.5488C18.5851 59.1992 19.9025 61.46 21.7492 62.5264C23.5988 63.5938 26.2199 63.6035 27.9045 61.2178C28.465 60.4248 28.9933 59.5996 29.4777 58.7637C30.6918 56.6592 31.6882 54.3217 32.4697 51.8222C31.0425 51.545 29.7104 51.0096 28.5095 50.2767C26.3874 52.2703 24.1318 53.9758 21.7892 55.3291C21.1661 55.6889 20.539 56.016 19.9114 56.3277L19.8088 56.5488ZM24.6974 39.9707C24.6974 34.4141 29.2189 29.8926 34.7756 29.8926C40.3322 29.8926 44.8537 34.4141 44.8537 39.9707C44.8537 45.5273 40.3322 50.0488 34.7756 50.0488C29.2189 50.0488 24.6974 45.5273 24.6974 39.9707ZM30.0823 61.5631C30.6644 68.5205 33.3747 74.3539 34.7746 76.9629C36.3478 74.0234 39.5832 66.9941 39.5832 58.8965C39.5832 56.4642 39.277 53.9387 38.7028 51.3804C37.4697 51.8062 36.1518 52.0488 34.7756 52.0488C34.7247 52.0488 34.6748 52.0453 34.6248 52.0417L34.6246 52.0417C34.5834 52.0388 34.5422 52.0359 34.5004 52.0349C33.6598 54.8203 32.5605 57.4229 31.2092 59.7646C30.8563 60.374 30.4749 60.9727 30.0823 61.5631ZM47.7971 62.5293C45.9504 63.5977 43.3342 63.6055 41.6486 61.2217L41.5143 61.0294C41.5583 60.3286 41.5832 59.6176 41.5832 58.8965C41.5832 56.1959 41.235 53.394 40.5707 50.563C41.8281 49.8724 42.9428 48.959 43.8781 47.8848C45.6555 49.8137 47.1847 51.8485 48.4015 53.957C48.8801 54.7852 49.3303 55.6562 49.7404 56.5439C50.966 59.1963 49.6467 61.4609 47.7971 62.5293ZM51.1293 54.8322C57.4308 57.7986 63.8472 58.3723 66.8107 58.4658C65.051 55.6328 60.5812 49.3174 53.5695 45.2695C51.464 44.0545 49.1266 43.0581 46.6271 42.2767C46.3499 43.7037 45.8145 45.0359 45.0816 46.2368C47.0751 48.3588 48.7807 50.6144 50.134 52.957C50.4838 53.5626 50.8122 54.1934 51.1293 54.8322ZM60.8263 39.9658C60.8263 42.1035 59.5197 44.3799 56.6047 44.6445L56.3825 44.6636C55.7975 44.275 55.194 43.8978 54.5695 43.5371C52.2277 42.1857 49.6252 41.0865 46.8398 40.2458C46.8407 40.204 46.8436 40.1628 46.8466 40.1216C46.8501 40.0716 46.8537 40.0216 46.8537 39.9707C46.8537 38.5945 46.611 37.2767 46.1852 36.0434C48.7436 35.4693 51.2691 35.1631 53.7013 35.1631C54.6613 35.1631 55.6418 35.208 56.6164 35.2979C59.5256 35.5635 60.8263 37.834 60.8263 39.9658ZM53.7013 33.1631C54.4015 33.1631 55.112 33.1939 55.8229 33.2386C61.5566 29.2548 65.2531 23.9918 66.8127 21.4756C63.4797 21.583 55.7746 22.2959 48.7619 26.3447C46.6534 27.5616 44.6186 29.0909 42.6896 30.8682C43.7638 31.8034 44.6774 32.9183 45.3679 34.1755C48.1989 33.5112 51.0008 33.1631 53.7013 33.1631ZM47.8019 17.415C49.6486 18.4814 50.966 20.7422 49.7424 23.3926L49.644 23.6044C49.0148 23.9167 48.3865 24.2516 47.7619 24.6123C45.4194 25.9656 43.1637 27.6711 41.0417 29.6647C39.8408 28.9318 38.5086 28.3964 37.0815 28.1192C37.863 25.6197 38.8593 23.2822 40.0734 21.1777C40.5578 20.3418 41.0861 19.5166 41.6467 18.7236C43.3322 16.3379 45.9523 16.3467 47.8019 17.415ZM39.4688 18.3783C38.8868 11.4209 36.1764 5.58752 34.7765 2.97852C33.2033 5.91797 29.968 12.9473 29.968 21.0449C29.968 23.4771 30.2741 26.0027 30.8483 28.561C32.0815 28.1352 33.3993 27.8926 34.7756 27.8926C34.8264 27.8926 34.8764 27.8961 34.9264 27.8997L34.9264 27.8997C34.9677 27.9026 35.009 27.9056 35.0507 27.9065C35.8913 25.1212 36.9907 22.5186 38.342 20.1768C38.6949 19.5674 39.0762 18.9687 39.4688 18.3783ZM21.7541 17.4121C23.6008 16.3438 26.218 16.335 27.9025 18.7197L28.0368 18.912C27.9929 19.6128 27.968 20.3239 27.968 21.0449C27.968 23.7455 28.3161 26.5474 28.9804 29.3784C27.7231 30.0689 26.6083 30.9824 25.673 32.0566C23.8957 30.1277 22.3664 28.0929 21.1496 25.9844C20.6711 25.1562 20.2209 24.2852 19.8107 23.3975C18.5851 20.7451 19.9045 18.4805 21.7541 17.4121ZM18.4218 25.1092C12.1203 22.1428 5.70391 21.5691 2.74041 21.4756C4.50018 24.3086 8.9699 30.624 15.9816 34.6719C18.0871 35.8869 20.4245 36.8832 22.924 37.6647C23.2012 36.2377 23.7366 34.9055 24.4695 33.7047C22.476 31.5826 20.7704 29.327 19.4172 26.9844C19.0673 26.3788 18.7389 25.748 18.4218 25.1092ZM8.72479 39.9756C8.72479 37.8379 10.0314 35.5615 12.9465 35.2969L13.1686 35.2778C13.7536 35.6664 14.3571 36.0436 14.9816 36.4043C17.3234 37.7557 19.926 38.8549 22.7114 39.6956C22.7104 39.7374 22.7075 39.7786 22.7046 39.8198C22.701 39.8698 22.6974 39.9198 22.6974 39.9707C22.6974 41.3469 22.9401 42.6647 23.3659 43.898C20.8076 44.4721 18.2819 44.7783 15.8498 44.7783C14.8898 44.7783 13.9094 44.7334 12.9347 44.6436C10.0256 44.3779 8.72479 42.1074 8.72479 39.9756ZM15.8498 46.7783C15.1496 46.7783 14.4391 46.7475 13.7282 46.7028C7.99456 50.6866 4.29803 55.9496 2.73846 58.4658C6.07147 58.3584 13.7765 57.6455 20.7892 53.5967C22.8978 52.3799 24.9326 50.8505 26.8615 49.0732C25.7873 48.138 24.8737 47.0231 24.1833 45.7659C21.3522 46.4301 18.5503 46.7783 15.8498 46.7783ZM32.2629 24.9814C32.2765 25.5244 32.7219 25.9561 33.2619 25.9561H33.2883C33.84 25.9414 34.2765 25.4834 34.2629 24.9307C34.2609 24.8809 34.1506 19.8662 35.2209 16.1719C35.3752 15.6416 35.0695 15.0869 34.5392 14.9336C34.008 14.7764 33.4533 15.0859 33.301 15.6152C32.1425 19.6089 32.2579 24.7574 32.2629 24.981V24.9811L32.2629 24.9814ZM21.8937 34.251C21.7131 34.585 21.3693 34.7734 21.0148 34.7734C20.8537 34.7734 20.6896 34.7344 20.5383 34.6514C20.3469 34.5479 15.8273 32.0723 12.9455 29.0703C12.5637 28.6719 12.5763 28.0391 12.9748 27.6562C13.3722 27.2754 14.007 27.2861 14.3888 27.6855C17.0262 30.4329 21.3456 32.814 21.49 32.8936L21.4933 32.8955C21.9787 33.1592 22.1584 33.7666 21.8937 34.251ZM14.1808 53.4551C14.2599 53.4551 14.341 53.4463 14.4211 53.4258C18.4611 52.4316 22.8644 49.7549 23.05 49.6406C23.5217 49.3525 23.6691 48.7373 23.382 48.2666C23.0929 47.7949 22.4758 47.6484 22.007 47.9346C21.964 47.9609 17.6779 50.5645 13.9426 51.4844C13.4064 51.6162 13.0793 52.1582 13.2111 52.6943C13.3234 53.1504 13.7316 53.4551 14.1808 53.4551ZM36.2629 53.9854C36.7892 53.9775 37.2746 54.4082 37.2883 54.96L37.2883 54.9603V54.9604C37.2933 55.184 37.4087 60.3325 36.2502 64.3262C36.1242 64.7637 35.7248 65.0479 35.2902 65.0479C35.1984 65.0479 35.1047 65.0352 35.0119 65.0078C34.4816 64.8545 34.176 64.2998 34.3303 63.7695C35.4006 60.0752 35.2902 55.0605 35.2883 55.0107C35.2746 54.458 35.7111 54 36.2629 53.9854ZM47.6574 45.6904C47.3928 46.1748 47.5724 46.7822 48.0578 47.0459L48.0612 47.0478L48.0612 47.0478C48.2062 47.1277 52.5251 49.5087 55.1623 52.2559C55.3586 52.4609 55.6213 52.5635 55.884 52.5635C56.133 52.5635 56.383 52.4707 56.5763 52.2852C56.9748 51.9023 56.9875 51.2695 56.6056 50.8711C53.7238 47.8691 49.2043 45.3936 49.0129 45.29C48.5285 45.0234 47.9201 45.2051 47.6574 45.6904ZM47.0236 32.1533C46.6867 32.1533 46.3586 31.9834 46.1691 31.6748C45.882 31.2041 46.0295 30.5889 46.5012 30.3008C46.6867 30.1865 51.09 27.5098 55.1301 26.5156C55.6652 26.3789 56.2082 26.7109 56.34 27.2471C56.4719 27.7832 56.1447 28.3252 55.6086 28.457C51.8732 29.377 47.5871 31.9805 47.5441 32.0068C47.382 32.1055 47.2013 32.1533 47.0236 32.1533Z" fill="#448000"/>
</svg>
