<svg width="80" height="80" viewBox="0 0 80 80" fill="none" xmlns="http://www.w3.org/2000/svg">
<path fill-rule="evenodd" clip-rule="evenodd" d="M66.5118 32.8954C69.9793 33.376 73.5084 34.3063 77.0596 35.6973C78.874 36.4077 80 38.0542 80 39.9941C80 41.9419 78.8682 43.5947 77.0459 44.3076C73.5202 45.688 69.9876 46.6198 66.5126 47.1031C69.2749 49.2532 71.8655 51.8234 74.2451 54.8037C75.4619 56.3271 75.6133 58.3198 74.6416 60.0039C73.7959 61.4688 72.3223 62.313 70.6846 62.313C70.4434 62.313 70.1992 62.2944 69.9521 62.2573C66.1902 61.6882 62.6617 60.71 59.3992 59.3844C60.7215 62.6345 61.6836 66.1638 62.2559 69.9434C62.5479 71.8701 61.6846 73.6689 60.0039 74.6387C59.2676 75.064 58.4717 75.2739 57.6816 75.2739C56.6631 75.2739 55.6533 74.9243 54.793 74.2368C51.8348 71.8737 49.2613 69.2801 47.1047 66.512C46.6241 69.9803 45.6935 73.5093 44.3018 77.0596C43.5918 78.873 41.9453 80 40.0059 80C38.0586 80 36.4053 78.8682 35.6914 77.0464C34.3115 73.5197 33.3798 69.987 32.8964 66.5128C30.7461 69.2753 28.1758 71.8661 25.1963 74.2456C24.3398 74.9302 23.334 75.2773 22.3184 75.2773C21.5283 75.2773 20.7324 75.0674 19.9961 74.6416C18.3154 73.6719 17.4521 71.875 17.7432 69.9521C18.3115 66.1906 19.2899 62.6617 20.6157 59.399C17.3654 60.7217 13.8361 61.6839 10.0566 62.2559C9.80859 62.2935 9.5625 62.312 9.32031 62.312C7.68066 62.312 6.20703 61.4688 5.3623 60.0049C4.38867 58.3184 4.54199 56.3208 5.76367 54.7925C8.12811 51.8331 10.7214 49.2598 13.4882 47.1046C10.0207 46.624 6.49158 45.6937 2.94043 44.3027C1.12598 43.5923 0 41.9458 0 40.0059C0 38.0581 1.13184 36.4053 2.9541 35.6924C6.4798 34.312 10.0124 33.3802 13.4874 32.8969C10.7251 30.7468 8.13452 28.1766 5.75488 25.1963C4.53809 23.6729 4.38672 21.6802 5.3584 19.9961C6.3291 18.3154 8.125 17.4551 10.0479 17.7427C13.8098 18.3118 17.3383 19.29 20.6008 20.6156C19.2784 17.3655 18.3164 13.8362 17.7441 10.0566C17.4521 8.12988 18.3154 6.33105 19.9961 5.36133C21.6816 4.38721 23.6787 4.54199 25.207 5.76318C28.1652 8.12628 30.7387 10.7199 32.8953 13.488C33.3759 10.0197 34.3065 6.49066 35.6982 2.94043C36.4082 1.12695 38.0547 0 39.9941 0C41.9414 0 43.5947 1.13184 44.3086 2.95361C45.6885 6.48029 46.6202 10.013 47.1036 13.4872C49.2539 10.7247 51.8242 8.13385 54.8037 5.75439C56.3262 4.53711 58.3213 4.38525 60.0039 5.3584C61.6846 6.32812 62.5479 8.125 62.2568 10.0479C61.6885 13.8094 60.7101 17.3383 59.3844 20.6009C62.6346 19.2783 66.1639 18.3161 69.9434 17.7441C71.8691 17.4507 73.668 18.3149 74.6377 19.9951C75.6113 21.6816 75.458 23.6792 74.2363 25.2075C71.8719 28.1669 69.2786 30.7402 66.5118 32.8954ZM72.9062 20.9951C72.4756 20.2495 71.5479 19.5283 70.2422 19.7217C64.834 20.54 59.7607 22.2515 55.5713 24.6704C53.1754 26.0535 50.8611 27.7962 48.6697 29.8268C49.9259 30.899 50.9866 32.1936 51.7779 33.657C54.9643 32.9034 58.1161 32.5098 61.1504 32.5098C61.9476 32.5098 62.751 32.5444 63.557 32.5956C66.853 30.3115 69.9202 27.4064 72.6738 23.9595C73.5059 22.918 73.3389 21.7451 72.9062 20.9951ZM40 51.3809C33.7246 51.3809 28.6191 46.2754 28.6191 40C28.6191 33.7246 33.7246 28.6191 40 28.6191C46.2754 28.6191 51.3809 33.7246 51.3809 40C51.3809 46.2754 46.2754 51.3809 40 51.3809ZM59.0049 7.09033C58.2539 6.65771 57.085 6.49023 56.0518 7.31689C51.7773 10.7305 48.2393 14.749 45.8203 18.938C44.438 21.3326 43.3053 23.9973 42.4232 26.8502C44.0828 27.1555 45.6312 27.7699 47.017 28.6283C49.4026 26.3777 51.9388 24.4579 54.5713 22.938C55.2618 22.5394 55.975 22.1677 56.6987 21.809C58.4133 18.1766 59.6192 14.1193 60.2803 9.74902C60.4766 8.44531 59.75 7.521 59.0049 7.09033ZM37.5596 3.66992C38.042 2.43848 39.1338 2 39.9941 2C40.8613 2 41.96 2.44238 42.4453 3.68262C44.0532 7.79041 45.0356 11.8997 45.3662 15.8962C44.9186 16.5688 44.4868 17.2474 44.0879 17.938C42.569 20.569 41.3333 23.4989 40.3918 26.639C40.3352 26.6373 40.2792 26.6334 40.2232 26.6295L40.2231 26.6295L40.223 26.6295L40.2229 26.6295C40.149 26.6243 40.0752 26.6191 40 26.6191C38.4287 26.6191 36.9266 26.9055 35.5247 27.4053C34.8618 24.4913 34.5098 21.6158 34.5098 18.8496C34.5098 14.0112 35.5645 8.76221 37.5596 3.66992ZM23.959 7.32568C22.917 6.49365 21.7441 6.66113 20.9951 7.09375C20.25 7.52393 19.5234 8.44971 19.7207 9.75732C20.54 15.166 22.252 20.2393 24.6699 24.4287C26.053 26.8248 27.7961 29.1392 29.8271 31.33C30.8992 30.0739 32.1935 29.0135 33.6566 28.2223C32.903 25.0354 32.5098 21.884 32.5098 18.8496C32.5098 18.0522 32.5444 17.2487 32.5956 16.4425C30.31 13.1456 27.4049 10.0783 23.959 7.32568ZM7.31738 23.9482C6.49121 22.9136 6.6582 21.7446 7.09082 20.9956C7.52148 20.2505 8.43848 19.5229 9.74902 19.7202C14.1196 20.3813 18.1769 21.5863 21.8087 23.3016C22.1674 24.0252 22.5389 24.7383 22.9375 25.4287C24.458 28.0615 26.3779 30.5978 28.6279 32.9835C27.7698 34.3691 27.1554 35.9172 26.8502 37.5764C23.9977 36.6949 21.3331 35.5629 18.9385 34.1797C14.6904 31.7275 10.7803 28.2852 7.31738 23.9482ZM3.68262 37.5547C2.44238 38.0405 2 39.1396 2 40.0059C2 40.8667 2.43848 41.958 3.66992 42.4404C8.83691 44.4644 13.9443 45.4902 18.8496 45.4902C21.6158 45.4902 24.4912 45.1378 27.4052 44.4749C26.9055 43.0732 26.6191 41.5712 26.6191 40C26.6191 39.9248 26.6243 39.851 26.6295 39.7771L26.6295 39.7771L26.6295 39.777L26.6295 39.7769C26.6334 39.7207 26.6374 39.6646 26.639 39.6078C23.499 38.6676 20.569 37.4315 17.9385 35.9121C17.2474 35.5132 16.5685 35.0811 15.8954 34.6334C11.8987 34.9645 7.78925 35.947 3.68262 37.5547ZM9.75781 60.2783C8.45312 60.479 7.52539 59.751 7.09375 59.0049C6.66113 58.2549 6.49414 57.082 7.32617 56.0405C10.0798 52.5936 13.147 49.6885 16.443 47.4044C17.249 47.4555 18.0524 47.4902 18.8496 47.4902C21.8839 47.4902 25.0357 47.0966 28.2221 46.343C29.0134 47.8064 30.0741 49.101 31.3303 50.1732C29.1389 52.2038 26.8246 53.9465 24.4287 55.3296C20.2393 57.7485 15.166 59.46 9.75781 60.2783ZM20.9951 72.9097C21.7451 73.3418 22.9131 73.5093 23.9482 72.6831C28.2227 69.2695 31.7607 65.251 34.1797 61.062C35.562 58.6674 36.6947 56.0027 37.5768 53.1498C35.9172 52.8445 34.3688 52.2301 32.983 51.3717C30.5974 53.6223 28.0612 55.5421 25.4287 57.062C24.7382 57.4606 24.025 57.8323 23.3013 58.191C21.5867 61.8235 20.3808 65.8807 19.7197 70.251C19.5234 71.5547 20.25 72.479 20.9951 72.9097ZM42.4404 76.3301C41.958 77.5615 40.8662 78 40.0059 78C39.1387 78 38.04 77.5576 37.5547 76.3174C35.9468 72.2096 34.9644 68.1003 34.6338 64.1038C35.0814 63.4312 35.5132 62.7526 35.9121 62.062C37.431 59.431 38.6667 56.5011 39.6082 53.361C39.6646 53.3627 39.7205 53.3666 39.7764 53.3705L39.7766 53.3705L39.7769 53.3705L39.7771 53.3705H39.7771H39.7772H39.7772C39.8511 53.3757 39.9249 53.3809 40 53.3809C41.5713 53.3809 43.0734 53.0945 44.4753 52.5947C45.1382 55.5087 45.4902 58.3842 45.4902 61.1504C45.4902 65.9888 44.4355 71.2378 42.4404 76.3301ZM56.041 72.6743C57.083 73.5063 58.2549 73.3394 59.0049 72.9062C59.75 72.4761 60.4766 71.5503 60.2793 70.2427C59.46 64.834 57.748 59.7607 55.3301 55.5713C53.947 53.1752 52.2039 50.8608 50.1729 48.67C49.1008 49.9261 47.8065 50.9865 46.3434 51.7777C47.097 54.9646 47.4902 58.116 47.4902 61.1504C47.4902 61.9478 47.4556 62.7513 47.4044 63.5575C49.69 66.8544 52.5951 69.9217 56.041 72.6743ZM72.6826 56.0518C73.5088 57.0864 73.3418 58.2554 72.9092 59.0044C72.4795 59.75 71.5654 60.4829 70.251 60.2798C65.8804 59.6187 61.8231 58.4137 58.1913 56.6984C57.8326 55.9748 57.4611 55.2617 57.0625 54.5713C55.542 51.9385 53.6221 49.4022 51.3721 47.0165C52.2302 45.6309 52.8446 44.0828 53.1498 42.4236C56.0023 43.3051 58.6669 44.4371 61.0615 45.8203C65.3096 48.2725 69.2197 51.7148 72.6826 56.0518ZM64.1046 45.3666C68.1013 45.0355 72.2108 44.053 76.3174 42.4453C77.5576 41.9595 78 40.8604 78 39.9941C78 39.1333 77.5615 38.042 76.3301 37.5596C71.1631 35.5356 66.0557 34.5098 61.1504 34.5098C58.3842 34.5098 55.5087 34.8621 52.5948 35.5251C53.0945 36.9268 53.3809 38.4288 53.3809 40C53.3809 40.0752 53.3757 40.1491 53.3705 40.2229C53.3666 40.2791 53.3626 40.3354 53.361 40.3922C56.501 41.3324 59.431 42.5685 62.0615 44.0879C62.7526 44.4868 63.4315 44.9189 64.1046 45.3666Z" fill="#448000"/>
</svg>
