<svg width="27" height="22" viewBox="0 0 27 22" fill="none" xmlns="http://www.w3.org/2000/svg">
<path fill-rule="evenodd" clip-rule="evenodd" d="M23.4993 0.0820312L20.9993 2.58227L18.4993 0.0820312L15.9993 2.58227L13.4993 0.0820312L10.9993 2.58227L8.49932 0.0820312L5.99932 2.58227L3.49932 0.0820312L0.0800781 3.50127L2.58032 6.00127L0.0800781 8.50127L2.58032 11.0013L0.0800781 13.5013L2.58032 16.0013L0.0800781 18.5013L3.49932 21.9205L5.99932 19.4203L8.49932 21.9205L10.9993 19.4203L13.4993 21.9205L15.9993 19.4203L18.4993 21.9205L20.9993 19.4203L23.4993 21.9205L26.9186 18.5013L24.4183 16.0013L26.9186 13.5013L24.4183 11.0013L26.9186 8.50127L24.4183 6.00127L26.9186 3.50127L23.4993 0.0820312ZM23.4993 1.92027L25.0803 3.50127L22.5801 6.00127L25.0803 8.50127L22.5801 11.0013L25.0803 13.5013L22.5801 16.0013L25.0803 18.5013L23.4993 20.0823L20.9993 17.582L18.4993 20.0823L15.9993 17.582L13.4993 20.0823L10.9993 17.582L8.49932 20.0823L5.99932 17.582L3.49932 20.0823L1.91832 18.5013L4.41856 16.0013L1.91832 13.5013L4.41856 11.0013L1.91832 8.50127L4.41856 6.00127L1.91832 3.50127L3.49932 1.92027L5.99932 4.42051L8.49932 1.92027L10.9993 4.42051L13.4993 1.92027L15.9993 4.42051L18.4993 1.92027L20.9993 4.42051L23.4993 1.92027ZM21.6493 5.35127V8.80571L13.4993 15.5974L5.34932 8.80571V5.35127H21.6493ZM6.64832 6.65027H20.3483V8.19627L13.4993 13.9043L6.64832 8.19527V6.65027Z" fill="black"/>
</svg>
