<svg width="22" height="30" viewBox="0 0 22 30" fill="none" xmlns="http://www.w3.org/2000/svg">
<path fill-rule="evenodd" clip-rule="evenodd" d="M11 0.5C5.15729 0.5 0.5 5.15729 0.5 11C0.5 12.8105 1.04439 14.8325 2.03771 17.0462C2.84995 18.8564 3.9458 20.7558 5.25562 22.7019C6.26624 24.2033 7.34645 25.6477 8.42684 26.9854L8.86777 27.5251L9.2799 28.018L9.88364 28.7162L11 29.9601L12.2782 28.5328L12.7201 28.018L13.1322 27.5251L13.5732 26.9854C14.6536 25.6477 15.7338 24.2033 16.7444 22.7019C18.0542 20.7558 19.15 18.8564 19.9623 17.0462C20.9556 14.8325 21.5 12.8105 21.5 11C21.5 5.15729 16.8427 0.5 11 0.5ZM11 2C16.0143 2 20 5.98571 20 11C20 13.5425 18.6985 16.5683 17.0853 19.3423L16.7221 19.9543L16.3511 20.5562L15.9746 21.1462C15.9115 21.2434 15.8483 21.3401 15.785 21.4362L15.4049 22.005L15.0254 22.5575L14.4626 23.3516L14.0952 23.8553L13.5617 24.5679L13.2215 25.0117L12.7401 25.6259L12.1652 26.3395L11.3972 27.2581L11 27.7143L10.6028 27.2581L9.96462 26.4975L9.41141 25.816L8.77853 25.0117L8.26322 24.3364L7.90484 23.8553L7.53741 23.3516L7.16334 22.827L6.78504 22.2834L6.40494 21.7225C6.34157 21.6277 6.27823 21.5323 6.21496 21.4362L5.83666 20.8528C5.7739 20.7544 5.71131 20.6556 5.64895 20.5562L5.2779 19.9543L4.91469 19.3423C3.30153 16.5683 2 13.5425 2 11C2 5.98571 5.98571 2 11 2ZM11 6.28571C8.37157 6.28571 6.28571 8.37157 6.28571 11C6.28571 13.6284 8.37157 15.7143 11 15.7143C13.6284 15.7143 15.7143 13.6284 15.7143 11C15.7143 8.37157 13.6284 6.28571 11 6.28571ZM11 7.78571C12.8 7.78571 14.2143 9.2 14.2143 11C14.2143 12.8 12.8 14.2143 11 14.2143C9.2 14.2143 7.78571 12.8 7.78571 11C7.78571 9.2 9.2 7.78571 11 7.78571Z" fill="black"/>
</svg>
