<svg width="27" height="27" viewBox="0 0 27 27" fill="none" xmlns="http://www.w3.org/2000/svg">
<path fill-rule="evenodd" clip-rule="evenodd" d="M13.5 0.5C6.3203 0.5 0.5 6.3203 0.5 13.5C0.5 20.6797 6.3203 26.5 13.5 26.5C20.6797 26.5 26.5 20.6797 26.5 13.5C26.5 6.3203 20.6797 0.5 13.5 0.5ZM13.5 2C19.8513 2 25 7.14873 25 13.5C25 19.8513 19.8513 25 13.5 25C7.14873 25 2 19.8513 2 13.5C2 7.14873 7.14873 2 13.5 2ZM14.5525 13.7172V6.47347H11.9407V15.0179L17.9971 19.5902L19.5708 17.5057L14.5525 13.7172Z" fill="black"/>
</svg>
