<svg width="20" height="29" viewBox="0 0 20 29" fill="none" xmlns="http://www.w3.org/2000/svg">
<path fill-rule="evenodd" clip-rule="evenodd" d="M4 0.5H16C17.933 0.5 19.5 2.067 19.5 4V25.4545C19.5 27.3875 17.933 28.9545 16 28.9545H4C2.067 28.9545 0.5 27.3875 0.5 25.4545V4C0.5 2.067 2.067 0.5 4 0.5ZM18 4C18 2.89543 17.1046 2 16 2H4C2.89543 2 2 2.89543 2 4V25.4545C2 26.5591 2.89543 27.4545 4 27.4545H16C17.1046 27.4545 18 26.5591 18 25.4545V4ZM13.3636 22.3636C13.9159 22.3636 14.3636 22.8114 14.3636 23.3636V23.5455C14.3636 24.0977 13.9159 24.5455 13.3636 24.5455H6.63636C6.08408 24.5455 5.63636 24.0977 5.63636 23.5455V23.3636C5.63636 22.8114 6.08408 22.3636 6.63636 22.3636H13.3636ZM10.6818 4.18182C11.5102 4.18182 12.1818 4.85339 12.1818 5.68182V6.31818C12.1818 7.14661 11.5102 7.81818 10.6818 7.81818H10.0455C9.21703 7.81818 8.54545 7.14661 8.54545 6.31818V5.68182C8.54545 4.85339 9.21703 4.18182 10.0455 4.18182H10.6818ZM10.6818 5.68182H10.0455V6.31818H10.6818V5.68182Z" fill="black"/>
</svg>
