<svg width="38" height="33" viewBox="0 0 38 33" fill="none" xmlns="http://www.w3.org/2000/svg">
<path d="M5.87024 32.9997C2.86802 32.9997 0.429688 30.5575 0.429688 27.5591V7.99915C0.429688 4.99693 2.87191 2.55859 5.87024 2.55859H7.70969C8.09469 2.55859 8.40969 2.87359 8.40969 3.25859C8.40969 3.64359 8.09469 3.95859 7.70969 3.95859H5.87024C3.64191 3.95859 1.82969 5.77082 1.82969 7.99915V27.5553C1.82969 29.7836 3.64191 31.5958 5.87024 31.5958H22.6119C24.8402 31.5958 26.6525 29.7836 26.6525 27.5553V7.99915C26.6525 5.77082 24.8402 3.95859 22.6119 3.95859H20.7725C20.3875 3.95859 20.0725 3.64359 20.0725 3.25859C20.0725 2.87359 20.3875 2.55859 20.7725 2.55859H22.6119C25.6141 2.55859 28.0525 5.00082 28.0525 7.99915V27.5553C28.0525 30.5575 25.6102 32.9958 22.6119 32.9958L5.87024 32.9997Z" fill="black"/>
<path fill-rule="evenodd" clip-rule="evenodd" d="M9.61143 6.51389H18.8709C20.3059 6.51389 21.4725 5.34722 21.4725 3.91222V2.60167C21.4725 1.16667 20.3059 0 18.8709 0H9.61143C8.17643 0 7.00977 1.16667 7.00977 2.60167V3.91222C7.00977 5.34722 8.17643 6.51389 9.61143 6.51389ZM8.40977 2.60167C8.40977 1.94056 8.94643 1.4 9.61143 1.4H18.8709C19.532 1.4 20.0725 1.93667 20.0725 2.60167V3.91222C20.0725 4.57333 19.5359 5.11389 18.8709 5.11389H9.61143C8.95032 5.11389 8.40977 4.57722 8.40977 3.91222V2.60167Z" fill="black"/>
<path d="M9.1984 13.9181C7.65451 13.9181 6.08729 13.5448 4.53174 12.8098C4.18174 12.6426 4.03396 12.2265 4.19729 11.8765C4.36451 11.5265 4.78062 11.3787 5.13062 11.542C6.67062 12.2731 8.21062 12.592 9.71174 12.4987C11.0884 12.4131 12.0645 11.9931 13.0056 11.5887C13.3401 11.4448 13.6901 11.297 14.044 11.1648C16.7623 10.1692 20.0056 10.2859 23.6845 11.5109C24.0501 11.6315 24.2484 12.0281 24.1278 12.3976C24.0073 12.7631 23.6106 12.9615 23.2412 12.8409C19.8695 11.717 16.9373 11.5965 14.5223 12.4831C14.2034 12.5998 13.8884 12.7359 13.554 12.8798C12.5506 13.3115 11.4151 13.7976 9.79729 13.9026C9.59507 13.9142 9.39674 13.922 9.19451 13.922L9.1984 13.9181Z" fill="black"/>
<path d="M9.1984 19.4923C7.65451 19.4923 6.08729 19.119 4.53174 18.384C4.18174 18.2168 4.03396 17.8007 4.19729 17.4507C4.36451 17.1007 4.78062 16.9529 5.13062 17.1162C6.67062 17.8473 8.21062 18.1662 9.71174 18.0729C11.0884 17.9873 12.0645 17.5673 13.0056 17.1629C13.3401 17.019 13.6901 16.8712 14.044 16.739C16.7623 15.7435 20.0056 15.8601 23.6845 17.0851C24.0501 17.2057 24.2484 17.6023 24.1278 17.9718C24.0073 18.3412 23.6106 18.5357 23.2412 18.4151C19.8695 17.2912 16.9373 17.1707 14.5223 18.0573C14.2034 18.174 13.8884 18.3101 13.554 18.454C12.5506 18.8857 11.4151 19.3718 9.79729 19.4768C9.59507 19.4885 9.39674 19.4962 9.19451 19.4962L9.1984 19.4923Z" fill="black"/>
<path d="M9.1984 25.0601C7.65451 25.0601 6.08729 24.6867 4.53174 23.9517C4.18174 23.7845 4.03396 23.3684 4.19729 23.0184C4.36451 22.6684 4.78062 22.5206 5.13062 22.684C6.67062 23.4151 8.21062 23.734 9.71174 23.6406C11.0884 23.5551 12.0645 23.1351 13.0056 22.7306C13.3401 22.5867 13.6901 22.439 14.044 22.3067C15.5762 21.7467 17.2834 21.5367 19.1228 21.6806C20.5462 21.7934 22.0823 22.1201 23.6884 22.6529C24.054 22.7734 24.2523 23.1701 24.1317 23.5395C24.0112 23.909 23.6145 24.1034 23.2451 23.9829C21.7478 23.4851 20.3245 23.1817 19.014 23.0767C17.3767 22.9484 15.8678 23.1312 14.5262 23.6212C14.2073 23.7379 13.8923 23.874 13.5578 24.0179C12.5545 24.4495 11.419 24.9356 9.80118 25.0406C9.59896 25.0523 9.40062 25.0601 9.1984 25.0601Z" fill="black"/>
<path fill-rule="evenodd" clip-rule="evenodd" d="M33.5017 28.6524C33.77 29.2124 34.3222 29.5624 34.9445 29.5624C35.5667 29.5624 36.1189 29.2124 36.3872 28.6524C36.9978 27.3807 37.3206 25.9574 37.3206 24.5457V6.53236C37.3206 5.22181 36.255 4.15625 34.9445 4.15625C33.6339 4.15625 32.5684 5.22181 32.5684 6.53236V24.5457C32.5684 25.9574 32.8911 27.3768 33.5017 28.6524ZM33.9684 6.53236C33.9684 5.99569 34.4078 5.55625 34.9445 5.55625C35.4811 5.55625 35.9206 5.99569 35.9206 6.53236V24.5457C35.9206 25.7513 35.6445 26.9646 35.1234 28.0496C35.0806 28.1429 34.9989 28.1624 34.9445 28.1624C34.89 28.1624 34.8122 28.1429 34.7656 28.0496C34.2445 26.9607 33.9684 25.7513 33.9684 24.5457V6.53236Z" fill="black"/>
</svg>
