<svg width="23" height="21" viewBox="0 0 23 21" fill="none" xmlns="http://www.w3.org/2000/svg">
<path fill-rule="evenodd" clip-rule="evenodd" d="M0 6.50077C0 2.92089 2.75323 0 6.17168 0C7.81193 0 9.38285 0.687602 10.5394 1.90792L11.5 2.92145L12.4606 1.90792C13.6172 0.687615 15.188 0 16.8283 0C20.2468 0 23 2.92088 23 6.50077C23 8.22137 22.3522 9.87365 21.1961 11.0936L12.0228 20.7725C11.8848 20.9181 11.6965 21 11.5 21C11.3035 21 11.1152 20.9181 10.9772 20.7725L1.80392 11.0936C0.647697 9.87365 0 8.22135 0 6.50077Z" fill="#313131"/>
</svg>
