<svg width="23" height="23" viewBox="0 0 23 23" fill="none" xmlns="http://www.w3.org/2000/svg">
<path fill-rule="evenodd" clip-rule="evenodd" d="M19.1667 1.53333C17.8973 1.53333 16.8667 2.56395 16.8667 3.83334C16.8667 5.10272 17.8973 6.13334 19.1667 6.13334C20.436 6.13334 21.4667 5.10272 21.4667 3.83334C21.4667 2.56395 20.436 1.53333 19.1667 1.53333ZM15.3333 3.83334C15.3333 1.71712 17.0504 0 19.1667 0C21.2829 0 23 1.71712 23 3.83334C23 5.94956 21.2829 7.66667 19.1667 7.66667C18.4197 7.66667 17.7224 7.45273 17.1329 7.08282L13.9753 11.5006L17.1266 15.9211C17.7175 15.5488 18.4171 15.3333 19.1667 15.3333C21.2829 15.3333 23 17.0504 23 19.1667C23 21.2829 21.2829 23 19.1667 23C17.0504 23 15.3333 21.2829 15.3333 19.1667C15.3333 18.3602 15.5827 17.6117 16.0085 16.9941L12.6434 12.2737H7.58847C7.23034 14.0194 5.68454 15.3333 3.83333 15.3333C1.71711 15.3333 0 13.6162 0 11.5C0 9.38378 1.71711 7.66666 3.83333 7.66666C5.68949 7.66666 7.23861 8.98768 7.59132 10.7403H12.6339L16.0131 6.01258C15.5845 5.3937 15.3333 4.64271 15.3333 3.83334ZM6.13333 11.5C6.13333 10.2306 5.10271 9.2 3.83333 9.2C2.56395 9.2 1.53333 10.2306 1.53333 11.5C1.53333 12.7694 2.56395 13.8 3.83333 13.8C5.10271 13.8 6.13333 12.7694 6.13333 11.5ZM19.1667 16.8667C17.8973 16.8667 16.8667 17.8973 16.8667 19.1667C16.8667 20.4361 17.8973 21.4667 19.1667 21.4667C20.436 21.4667 21.4667 20.4361 21.4667 19.1667C21.4667 17.8973 20.436 16.8667 19.1667 16.8667Z" fill="#313131"/>
</svg>
