<svg width="22" height="14" viewBox="0 0 22 14" fill="none" xmlns="http://www.w3.org/2000/svg">
<path fill-rule="evenodd" clip-rule="evenodd" d="M9.09789 0.5L9.25788 0.505809L11.682 0.505552C12.5628 0.505552 13.2711 1.23374 13.2711 2.12519V5.67875C13.2711 5.79758 13.282 5.8944 13.2938 5.96885L13.3215 6.12476C13.3237 6.14434 13.3218 6.15382 13.3127 6.1531C13.3521 6.15624 13.448 6.08116 13.5825 5.91417L13.7067 5.7482C13.751 5.68516 13.798 5.61429 13.8473 5.53528L14.0017 5.27351C14.0552 5.17789 14.1106 5.07381 14.1674 4.96095L14.2855 4.72868L15.8809 1.67823C16.0942 1.26973 16.5123 1.01255 16.9697 1.01256H20.2152C21.2555 1.01256 21.646 1.71183 21.3746 2.621C21.219 3.14207 20.8695 3.73921 20.423 4.34986L18.3286 7.19096C18.1722 7.40266 18.1896 7.70336 18.3711 7.89679L20.1388 9.79807L20.6098 10.2964L20.8433 10.5378C21.9817 11.6904 21.6424 13.1667 19.8488 13.1667H16.9363C16.5329 13.1667 16.1455 13.0089 15.8534 12.7268L13.6356 10.5845C13.5727 10.5237 13.4846 10.5079 13.408 10.5419C13.3266 10.5781 13.2711 10.665 13.2711 10.7638V11.9141C13.2711 12.6028 12.7226 13.1667 12.039 13.1667H10.1861C6.63962 13.1667 2.99249 8.38217 1.00524 3.5381L0.774846 2.95683C0.70078 2.76318 0.629483 2.56974 0.561066 2.3768C0.449349 2.06747 0.492511 1.72205 0.677465 1.45059C0.865229 1.17502 1.17575 1.01025 1.50447 1.01256L4.45245 1.01256C4.91821 1.01186 5.33915 1.28836 5.54068 1.73899C6.16416 3.33424 6.97273 4.8461 7.91632 6.20015C7.97753 6.27055 8.07023 6.29307 8.15177 6.25986C8.23825 6.22464 8.29727 6.13289 8.2947 6.02633L8.2497 3.17621C8.22497 2.71186 8.0918 2.48367 7.90142 2.38345C7.80013 2.33013 7.68348 2.31516 7.59316 2.32347L6.4162 2.51891L7.10627 1.54113C7.53383 0.935303 8.19934 0.560416 8.91739 0.506689L9.09789 0.5ZM9.22578 1.50529L9.05459 1.50065C8.90624 1.50511 8.76079 1.53309 8.62289 1.58243L8.548 1.61301L8.59357 1.64525C8.98079 1.95023 9.21293 2.45301 9.24893 3.14614L9.25386 3.33988L9.25471 3.52141L9.29447 6.00477C9.30696 6.5208 9.00328 6.99282 8.52896 7.186C8.04969 7.38119 7.50254 7.24827 7.12928 6.81481C6.10772 5.35411 5.26161 3.77205 4.6188 2.12569C4.58708 2.05499 4.52232 2.01245 4.45319 2.01256L1.50395 2.01247L1.50029 2.02476L1.50258 2.03985C1.90437 3.17288 2.41963 4.33337 3.01464 5.44567L3.31864 5.99746L3.63499 6.53911C5.51462 9.66512 7.97715 12.1667 10.1861 12.1667H12.039C12.164 12.1667 12.2711 12.0566 12.2711 11.9141V10.7638C12.2711 10.2728 12.5565 9.82618 13.0016 9.62821C13.4516 9.42809 13.9751 9.52212 14.3303 9.86523L16.5482 12.0075C16.6545 12.1102 16.7931 12.1667 16.9363 12.1667H19.8488C20.6341 12.1667 20.712 11.8279 20.1318 11.2405L19.5485 10.6302L17.6392 8.57813C17.1296 8.03536 17.0813 7.19659 17.5243 6.59671L19.3691 4.09603L19.7557 3.56342C20.0722 3.10762 20.3163 2.67016 20.4164 2.33491L20.4582 2.18897C20.5029 2.01256 20.4589 2.01256 20.2163 2.01256H20.2152H16.9697C16.8874 2.01256 16.8094 2.06049 16.7663 2.14312L15.7199 4.13488L14.9552 5.61394C14.3939 6.66501 13.8358 7.19787 13.2334 7.14995C12.5854 7.09839 12.2711 6.45203 12.2711 5.67875V2.12519C12.2711 1.77992 12.0042 1.50555 11.682 1.50555L9.22578 1.50529Z" fill="black"/>
</svg>
