<svg aria-hidden="true" xmlns="http://www.w3.org/2000/svg" xmlns:xlink="http://www.w3.org/1999/xlink"><symbol viewBox="0 0 16 27" id="arrow-back-sidebar-catalog" xmlns="http://www.w3.org/2000/svg">
<path fill-rule="evenodd" clip-rule="evenodd" d="M16 27H13.0233L0 13.5L13.0233 0H16L2.85296 13.5L16 27Z"/>
</symbol><symbol viewBox="0 0 25 13" id="back-btn" xmlns="http://www.w3.org/2000/svg">
<path fill-rule="evenodd" clip-rule="evenodd" d="M25 5.84595H2.56076L8.35489 0H6.42568L0 6.49534L6.42568 13H8.35489L2.56076 7.15H25V5.84595Z"/>
</symbol><symbol viewBox="0 0 53 43" id="basket_empty" xmlns="http://www.w3.org/2000/svg">
	<path fill-rule="evenodd" clip-rule="evenodd" d="M10.6571 0C14.8992 0 18.3387 3.4278 18.3387 7.65455C18.3387 11.8823 14.8992 15.3091 10.6571 15.3091C6.41591 15.3091 2.97642 11.8823 2.97642 7.65455C2.97742 3.4278 6.41591 0 10.6571 0ZM42.3429 0C46.5851 0 50.0215 3.4278 50.0215 7.65455C50.0215 11.8823 46.5841 15.3091 42.3429 15.3091C38.0997 15.3091 34.6622 11.8823 34.6622 7.65455C34.6622 3.4278 38.1007 0 42.3429 0ZM26.5 23.3876C15.7932 23.3876 5.96841 29.2213 0.861357 38.6087C0.0757331 40.0537 0.613529 41.8586 2.06337 42.6405C3.51422 43.4225 5.32426 42.8865 6.10788 41.4426C10.1725 33.975 17.9855 29.3343 26.5 29.3343C35.0144 29.3343 42.8275 33.975 46.8931 41.4436C47.6767 42.8875 49.4908 43.4225 50.9376 42.6395C52.3864 41.8566 52.9242 40.0507 52.1386 38.6087C47.0306 29.2203 37.2067 23.3876 26.5 23.3876Z"/>
</symbol><symbol viewBox="0 0 19 25" id="del-compare" xmlns="http://www.w3.org/2000/svg">
<path fill-rule="evenodd" clip-rule="evenodd" d="M0 3.9761V1.98805H4.84615C4.84615 1.66122 4.89061 1.05219 5.40782 0.575643C5.88995 0.131417 6.5725 0 7.30769 0H11.6923C12.4275 0 13.1101 0.131417 13.5922 0.575642C14.1094 1.05219 14.1538 1.66122 14.1538 1.98805H19V3.9761H0ZM0.172545 6.64366H18.8293L17.4593 21.6233L17.451 21.6682L16.4676 21.4878C17.451 21.6682 17.451 21.668 17.451 21.6682L17.4507 21.6698L17.4502 21.6724L17.4487 21.6802L17.4436 21.7064C17.4393 21.7283 17.4332 21.7591 17.4251 21.7976C17.4092 21.8743 17.3857 21.982 17.355 22.1106C17.2943 22.3652 17.2024 22.7133 17.08 23.0688C16.9618 23.4122 16.7962 23.8191 16.5714 24.1587C16.3885 24.4353 15.9484 25 15.2009 25H3.80091C3.05368 25 2.61337 24.4363 2.42976 24.1589C2.20477 23.8191 2.03918 23.412 1.92102 23.0685C1.79871 22.7129 1.70698 22.3647 1.64639 22.1101C1.61578 21.9815 1.59241 21.8737 1.57647 21.7969C1.56849 21.7585 1.56234 21.7277 1.55805 21.7057L1.55299 21.6796L1.55151 21.6717L1.55103 21.6692L1.55079 21.6678C1.55076 21.6677 1.55073 21.6675 2.53424 21.4878L1.55079 21.6678L1.54248 21.6229L0.172545 6.64366ZM3.52559 21.3481C3.52817 21.361 3.53137 21.3767 3.53517 21.395C3.54783 21.456 3.5671 21.545 3.59268 21.6524C3.64445 21.87 3.71921 22.1513 3.81345 22.4253C3.89947 22.6753 3.98751 22.8768 4.06682 23.0119H14.9342C15.0136 22.8766 15.1017 22.675 15.1878 22.425C15.2822 22.1509 15.3571 21.8695 15.409 21.6519C15.4347 21.5444 15.454 21.4554 15.4667 21.3944C15.4705 21.3762 15.4737 21.3606 15.4763 21.3477L16.6392 8.63171H2.36261L3.52559 21.3481ZM14.8425 23.141C14.8424 23.1399 14.8484 23.1325 14.8607 23.1217C14.8487 23.1366 14.8426 23.142 14.8425 23.141ZM4.15819 23.1404C4.15811 23.1414 4.15204 23.1361 4.14018 23.1213C4.15234 23.1321 4.15827 23.1394 4.15819 23.1404Z"/>
</symbol><symbol viewBox="0 0 16 16" id="filters-btn" xmlns="http://www.w3.org/2000/svg">
<path fill-rule="evenodd" clip-rule="evenodd" d="M4 0H2V7.17071C0.834808 7.58254 0 8.69378 0 10C0 11.3062 0.834808 12.4175 2 12.8293V16H4V12.8293C5.16519 12.4175 6 11.3062 6 10C6 8.69378 5.16519 7.58254 4 7.17071V0ZM12 0H14V3.17071C15.1652 3.58254 16 4.69378 16 6C16 7.30622 15.1652 8.41746 14 8.82929V16H12V8.82929C10.8348 8.41746 10 7.30622 10 6C10 4.69378 10.8348 3.58254 12 3.17071V0ZM13 7C13.5523 7 14 6.55228 14 6C14 5.44772 13.5523 5 13 5C12.4477 5 12 5.44772 12 6C12 6.55228 12.4477 7 13 7ZM4 10C4 10.5523 3.55228 11 3 11C2.44772 11 2 10.5523 2 10C2 9.44772 2.44772 9 3 9C3.55228 9 4 9.44772 4 10Z"/>
</symbol><symbol viewBox="0 0 19 25" id="icon_basket-del" xmlns="http://www.w3.org/2000/svg">
	<mask id="fpath-1-inside-1_158_4484">
		<path fill-rule="evenodd" clip-rule="evenodd" d="M19 3.80013V3.4513C19 3.60702 18.9198 3.59171 18.6818 3.54625C18.4864 3.50894 18.1846 3.4513 17.7333 3.4513H12.6667V2.18464C13.0625 1.48507 12.5308 0.917969 11.4 0.917969H7.6C6.46916 0.917969 5.9375 1.48507 6.33333 2.18464V3.4513H1.26667C0.815445 3.4513 0.513622 3.50894 0.318201 3.54625C0.0801671 3.59171 0 3.60702 0 3.4513V3.80013C0 4.78325 0.265831 5.0668 1.26667 5.0668H17.7333C18.7342 5.0668 19 4.78325 19 3.80013ZM3.8 24.0668C3.40483 24.0698 2.37657 23.1136 2.53333 21.5335L1.26667 7.60013H17.7333L16.4667 21.5335C16.6469 23.1136 15.6187 24.0698 15.2 24.0668H3.8Z"/>
	</mask>
	<path d="M18.6818 3.54625L18.9632 2.07288L18.9631 2.07288L18.6818 3.54625ZM12.6667 3.4513H11.1667V4.9513H12.6667V3.4513ZM12.6667 2.18464L11.3612 1.44594L11.1667 1.78968V2.18464H12.6667ZM6.33333 2.18464H7.83333V1.78968L7.63883 1.44594L6.33333 2.18464ZM6.33333 3.4513V4.9513H7.83333V3.4513H6.33333ZM0.318201 3.54625L0.599551 5.01963L0.599552 5.01963L0.318201 3.54625ZM2.53333 21.5335L4.02601 21.6816L4.04008 21.5397L4.02717 21.3977L2.53333 21.5335ZM3.8 24.0668L3.8 22.5668L3.7885 22.5668L3.8 24.0668ZM1.26667 7.60013V6.10013H-0.375883L-0.227173 7.73594L1.26667 7.60013ZM17.7333 7.60013L19.2272 7.73594L19.3759 6.10013H17.7333V7.60013ZM16.4667 21.5335L14.9728 21.3977L14.9589 21.5508L14.9763 21.7035L16.4667 21.5335ZM15.2 24.0668L15.2109 22.5668H15.2V24.0668ZM17.5 3.4513V3.80013H20.5V3.4513H17.5ZM18.4004 5.01963C18.4447 5.02808 18.5426 5.04735 18.6362 5.05967C18.7075 5.06904 18.945 5.10093 19.2242 5.04511C19.5889 4.9722 20.0213 4.74808 20.2876 4.27985C20.4939 3.91709 20.5 3.57045 20.5 3.4513H17.5C17.5 3.41001 17.496 3.11986 17.6799 2.7966C17.9238 2.36786 18.3212 2.16628 18.6361 2.10332C18.7652 2.07751 18.868 2.0764 18.9219 2.07765C18.9779 2.07895 19.017 2.08391 19.0276 2.08531C19.0393 2.08684 19.0379 2.08716 18.9632 2.07288L18.4004 5.01963ZM17.7333 4.9513C18.0435 4.9513 18.2366 4.98835 18.4004 5.01963L18.9631 2.07288C18.7361 2.02952 18.3256 1.9513 17.7333 1.9513V4.9513ZM12.6667 4.9513H17.7333V1.9513H12.6667V4.9513ZM11.1667 2.18464V3.4513H14.1667V2.18464H11.1667ZM11.4 2.41797C11.5627 2.41797 11.6507 2.43896 11.6784 2.4477C11.7097 2.45761 11.6354 2.44172 11.5349 2.33923C11.4201 2.22218 11.3171 2.03516 11.2993 1.80852C11.2829 1.59819 11.3483 1.46873 11.3612 1.44594L13.9722 2.92333C14.183 2.55076 14.3303 2.08807 14.2902 1.57467C14.2488 1.04494 14.0164 0.584971 13.6768 0.238707C13.0465 -0.404002 12.1491 -0.582031 11.4 -0.582031V2.41797ZM7.6 2.41797H11.4V-0.582031H7.6V2.41797ZM7.63883 1.44594C7.65173 1.46873 7.71711 1.59819 7.70067 1.80851C7.68295 2.03516 7.5799 2.22218 7.46512 2.33923C7.36461 2.44172 7.2903 2.45761 7.32163 2.4477C7.34926 2.43896 7.43735 2.41797 7.6 2.41797V-0.582031C6.85093 -0.582031 5.95349 -0.404002 5.32321 0.238707C4.98363 0.584971 4.75122 1.04494 4.7098 1.57467C4.66966 2.08808 4.81702 2.55076 5.02783 2.92333L7.63883 1.44594ZM7.83333 3.4513V2.18464H4.83333V3.4513H7.83333ZM1.26667 4.9513H6.33333V1.9513H1.26667V4.9513ZM0.599552 5.01963C0.763359 4.98835 0.956496 4.9513 1.26667 4.9513V1.9513C0.674395 1.9513 0.263884 2.02952 0.0368502 2.07288L0.599552 5.01963ZM-1.5 3.4513C-1.5 3.57045 -1.49393 3.91708 -1.28759 4.27985C-1.02126 4.74808 -0.588925 4.9722 -0.22423 5.04511C0.0549919 5.10093 0.292528 5.06904 0.363771 5.05967C0.457364 5.04735 0.555309 5.02808 0.599551 5.01963L0.0368505 2.07288C-0.0379238 2.08716 -0.0392622 2.08684 -0.0276481 2.08531C-0.0169959 2.08391 0.0220664 2.07895 0.0780682 2.07765C0.131964 2.0764 0.234779 2.07751 0.363906 2.10332C0.678805 2.16628 1.07622 2.36787 1.32008 2.7966C1.50395 3.11986 1.5 3.41001 1.5 3.4513H-1.5ZM1.5 3.80013V3.4513H-1.5V3.80013H1.5ZM1.26667 3.5668C1.17531 3.5668 1.11013 3.56349 1.06508 3.55926C1.01961 3.55499 1.00595 3.55081 1.01469 3.55302C1.03826 3.55899 1.1801 3.60126 1.32476 3.74759C1.46873 3.89323 1.50871 4.034 1.51373 4.0544C1.51559 4.06197 1.51142 4.04745 1.50726 4.00152C1.50314 3.95602 1.5 3.89091 1.5 3.80013H-1.5C-1.5 4.30854 -1.4621 5.19574 -0.80872 5.85668C-0.150966 6.52204 0.740603 6.5668 1.26667 6.5668V3.5668ZM17.7333 3.5668H1.26667V6.5668H17.7333V3.5668ZM17.5 3.80013C17.5 3.89091 17.4969 3.95602 17.4927 4.00152C17.4886 4.04745 17.4844 4.06197 17.4863 4.0544C17.4913 4.034 17.5313 3.89323 17.6752 3.74759C17.8199 3.60126 17.9617 3.55899 17.9853 3.55302C17.9941 3.55081 17.9804 3.55499 17.9349 3.55926C17.8899 3.56349 17.8247 3.5668 17.7333 3.5668V6.5668C18.2594 6.5668 19.151 6.52204 19.8087 5.85668C20.4621 5.19574 20.5 4.30854 20.5 3.80013H17.5ZM1.04066 21.3854C0.926023 22.5409 1.24416 23.5151 1.70642 24.218C1.93366 24.5635 2.20721 24.8613 2.50429 25.0876C2.73936 25.2667 3.20976 25.5714 3.8115 25.5668L3.7885 22.5668C4.02334 22.565 4.18119 22.6292 4.23098 22.6512C4.26456 22.666 4.28777 22.6791 4.30084 22.687C4.31425 22.6952 4.32123 22.7004 4.32236 22.7013C4.32393 22.7025 4.31132 22.6929 4.28929 22.6689C4.26783 22.6455 4.2412 22.6125 4.21296 22.5696C4.1015 22.4001 3.98388 22.1061 4.02601 21.6816L1.04066 21.3854ZM-0.227173 7.73594L1.03949 21.6693L4.02717 21.3977L2.76051 7.46433L-0.227173 7.73594ZM17.7333 6.10013H1.26667V9.10013H17.7333V6.10013ZM17.9605 21.6693L19.2272 7.73594L16.2395 7.46433L14.9728 21.3977L17.9605 21.6693ZM15.1891 25.5668C15.7793 25.571 16.247 25.2834 16.4977 25.0961C16.8025 24.8684 17.0813 24.5676 17.3112 24.218C17.7794 23.5061 18.0893 22.5229 17.957 21.3634L14.9763 21.7035C15.0243 22.1241 14.9102 22.4091 14.8047 22.5696C14.7777 22.6106 14.7524 22.6418 14.7321 22.6636C14.7113 22.6861 14.6997 22.6946 14.7021 22.6928C14.7036 22.6917 14.7109 22.6863 14.7244 22.6783C14.7376 22.6705 14.7605 22.658 14.7933 22.644C14.8446 22.6221 14.9924 22.5653 15.2109 22.5668L15.1891 25.5668ZM3.8 25.5668H15.2V22.5668H3.8V25.5668Z" mask="url(#fpath-1-inside-1_158_4484)"/>
</symbol><symbol viewBox="0 0 25 22" id="icon_basket-fav" xmlns="http://www.w3.org/2000/svg">
<path fill-rule="evenodd" clip-rule="evenodd" d="M2.70123 11.0592L12.5 21L22.2988 11.0592C23.388 9.95415 24 8.45536 24 6.89256C24 3.63819 21.3995 1 18.1916 1C16.6511 1 15.1738 1.62082 14.0845 2.72589L12.5 4.33333L10.9155 2.72589C9.82624 1.62082 8.34885 1 6.80838 1C3.6005 1 1 3.63819 1 6.89256C1 8.45536 1.61195 9.95415 2.70123 11.0592Z" stroke-width="1.5" stroke-linejoin="round"/>
</symbol><symbol viewBox="0 0 22 21" id="icon_change" xmlns="http://www.w3.org/2000/svg">
<path d="M16.9953 19.034H2.02696V4.98786H10.7585L12.7855 3H1.7374C0.779601 3 0 3.76456 0 4.68204V19.318C0 20.2573 0.779601 21 1.7374 21H17.2626C18.2204 21 19 20.2573 19 19.318V7.83088L16.973 9.94853V19.034H16.9953Z"/>
<path d="M10.098 8.87233L15.8143 2.8615L18.7521 5.94292L13.0358 11.9538L10.098 8.87233Z"/>
<path d="M7.97303 10.9775C7.86444 11.096 7.81015 11.2144 7.75585 11.3922L7.02288 14.9763C6.88715 15.5687 7.3758 16.1019 7.94588 15.9834L10.7241 14.5894C10.8598 14.5598 10.9956 14.471 11.1041 14.3525L12 13.375L8.86889 10L7.97303 10.9775Z"/>
<path d="M21.7534 2.15817L19.9592 0.236819C19.6304 -0.0789396 19.0924 -0.0789396 18.7636 0.236819L17 1.93043L19.9898 5L21.7534 3.30639C22.0822 2.99063 22.0822 2.47393 21.7534 2.15817Z"/>
</symbol><symbol viewBox="0 0 26 26" id="icon_close-modal" xmlns="http://www.w3.org/2000/svg">
<path fill-rule="evenodd" clip-rule="evenodd" d="M24.8622 0L25.9922 1.13041L14.1292 12.9954L26 24.8696L24.8699 26L12.9995 14.1255L1.13006 26L0 24.8696L11.8698 12.9954L0.0077914 1.13041L1.13785 0L12.9995 11.8654L24.8622 0Z"/>
</symbol><symbol viewBox="0 0 21 14" id="icon_enter" xmlns="http://www.w3.org/2000/svg">
<path d="M7.33333 14H4.0835L0.916016 10L4.0835 6H7.33333L3.99984 9H18.0835V0H20.0835V10L19.0835 11H3.99984L7.33333 14Z"/>
</symbol><symbol viewBox="0 0 22 20" id="icon_favorite" xmlns="http://www.w3.org/2000/svg">
<path d="M2.72234 9.69709L11.2927 18.5195L19.8631 9.69709C20.8158 8.71634 21.351 7.38616 21.351 5.99917C21.351 3.11092 19.0765 0.769531 16.2708 0.769531C14.9235 0.769531 13.6313 1.32051 12.6786 2.30126L11.2927 3.72786L9.90686 2.30126C8.95413 1.32051 7.66196 0.769531 6.3146 0.769531C3.50887 0.769531 1.23438 3.11092 1.23438 5.99917C1.23438 7.38616 1.76961 8.71634 2.72234 9.69709Z" stroke-linejoin="round"/>
</symbol><symbol viewBox="0 0 34 15" id="icon_pagging-left" xmlns="http://www.w3.org/2000/svg">
<path d="M6.61351 0.230469L0.000656128 6.9249V7.9249L6.61351 14.7683L7.50586 13.9249L1.50586 7.9249H33.5059V6.9249H1.50586L7.50586 0.924904L6.61351 0.230469Z"/>
</symbol><symbol viewBox="0 0 35 15" id="icon_pagging-right" xmlns="http://www.w3.org/2000/svg">
<path d="M27.7341 0.230469L34.347 6.9249V7.9249L27.7341 14.7683L26.8418 13.9249L32.8418 7.9249H0.841797V6.9249H32.8418L26.8418 0.924904L27.7341 0.230469Z"/>
</symbol><symbol viewBox="0 0 22 31" id="icon_phone" xmlns="http://www.w3.org/2000/svg">
<path fill-rule="evenodd" clip-rule="evenodd" d="M19.4724 19.5082C18.3371 17.4343 15.7372 16.7286 13.7093 17.9569L12.9395 18.4199C12.9395 18.4199 11.9289 16.7388 11.1308 14.8769C10.3327 13.015 9.73822 10.9522 9.73822 10.9522L10.6102 10.4214C12.5908 9.22186 13.2712 6.63158 12.1621 4.58432L10.8183 2.16007C9.68608 0.091985 7.09432 -0.618325 5.06535 0.588609L2.12301 2.37647C-1.19407 4.39754 -0.619537 11.0991 3.81459 19.1674C8.297 27.2964 12.9128 31.6223 16.3313 29.5518C16.3586 29.5333 16.384 29.5161 16.408 29.4997C16.4877 29.4455 16.5534 29.4008 16.6313 29.3502C16.7121 29.3107 16.7395 29.2975 16.7768 29.2803L16.926 29.201L19.262 27.785C21.2466 26.5615 21.9239 23.9768 20.8093 21.9197L19.4724 19.5082ZM15.2606 20.5251C15.8276 20.1817 16.5233 20.3705 16.8434 20.9553L18.18 23.3663C18.5284 24.0161 18.3092 24.8477 17.6962 25.2256L15.4377 26.5945C15.4028 26.6112 15.3645 26.6298 15.3133 26.6548C15.2325 26.6943 15.2052 26.7074 15.1678 26.7247L14.9751 26.8136L14.8147 26.9524C14.8005 26.9646 14.7778 26.9813 14.6994 27.0356C13.6641 27.6594 10.0766 24.3088 6.44405 17.7211C4.74417 14.628 4.28502 12.3169 3.79806 9.86577C3.74196 9.58338 3.68549 9.29913 3.62671 9.01162C3.14243 6.64285 3.32381 5.15831 3.68355 4.93913L6.61226 3.15947C7.16711 2.82949 7.86874 3.02178 8.18927 3.60726L9.52993 6.02571C9.87467 6.66219 9.65698 7.49095 9.05212 7.85729L7.09133 9.05072L6.02106 9.70214L6.47138 10.871C6.47138 10.871 7.32452 13.7912 8.50218 16.3248C9.67984 18.8583 11.3252 21.3131 11.3252 21.3131L12.1372 22.4038L15.2606 20.5251Z"/>
</symbol><symbol viewBox="0 0 17 18" id="icon_reset" xmlns="http://www.w3.org/2000/svg">
<g clip-path="url(#oclip0_109_1659)">
<path fill-rule="evenodd" clip-rule="evenodd" d="M11.0006 1C14.4508 1.88831 17 5.02035 17 8.7478C17 11.7271 15.3713 14.3261 12.9558 15.7029L15 17.7478H9V11.7478L10.7034 13.4501C12.6262 12.7535 14 10.9111 14 8.7478C14 6.69799 12.7665 4.93628 11.0013 4.16442L11.0006 1ZM5.99935 16.7478C2.54923 15.8595 0 12.7274 0 9C0 6.02065 1.62865 3.4217 4.04422 2.04486L2 0H8V6L6.29661 4.29765C4.37383 4.9943 3 6.83671 3 9C3 11.0498 4.23348 12.8115 5.99868 13.5834L5.99935 16.7478Z"/>
</g>
<defs>
<clipPath id="oclip0_109_1659">
<rect width="17" height="17.7478"/>
</clipPath>
</defs>
</symbol><symbol viewBox="0 0 22 22" id="icon_search" xmlns="http://www.w3.org/2000/svg">
<path d="M21 21L15.2857 15.2857M9.57143 18.1429C4.83756 18.1429 1 14.3053 1 9.57143C1 4.83756 4.83756 1 9.57143 1C14.3053 1 18.1429 4.83756 18.1429 9.57143C18.1429 14.3053 14.3053 18.1429 9.57143 18.1429Z" stroke-width="1.5"/>
</symbol><symbol viewBox="0 0 26 26" id="icon_share" xmlns="http://www.w3.org/2000/svg">
<path fill-rule="evenodd" clip-rule="evenodd" d="M16.6397 17.6801C17.6799 16.3801 19.1099 15.6 20.7998 15.6H20.8001C23.6602 15.6 26.0001 17.9399 26.0001 20.8C26.0001 23.6601 23.6602 26 20.8001 26C17.94 26 15.6001 23.6601 15.6001 20.8C15.6001 20.67 15.6326 20.54 15.6651 20.41C15.6976 20.28 15.7301 20.15 15.7301 20.02L9.3601 17.42C8.31996 18.72 6.88991 19.5 5.2 19.5C2.33991 19.5 0 17.1601 0 14.3C0 11.4399 2.33991 9.1 5.2 9.1C6.63 9.1 7.93 9.75 8.83991 10.6601L15.8599 6.63005C15.8376 6.54102 15.8154 6.45581 15.7938 6.37309L15.7937 6.3729L15.7937 6.37281C15.6891 5.97254 15.5998 5.63083 15.5998 5.2C15.5998 2.33991 17.9397 0 20.7998 0C23.6599 0 25.9998 2.33991 25.9998 5.2C25.9998 8.0601 23.6599 10.4 20.7998 10.4C19.3698 10.4 18.0698 9.75 17.0297 8.83991L10.1397 12.87C10.162 12.9591 10.1843 13.0444 10.2059 13.1272L10.2059 13.1272C10.3105 13.5275 10.3998 13.8692 10.3998 14.3C10.3998 14.5601 10.3998 14.82 10.2697 15.0801L16.6397 17.6801ZM23.3998 5.2C23.3998 3.76995 22.2299 2.6 20.7998 2.6C19.3698 2.6 18.1998 3.76995 18.1998 5.2C18.1998 6.63005 19.3698 7.8 20.7998 7.8C22.2299 7.8 23.3998 6.63005 23.3998 5.2ZM5.19983 16.9C3.76978 16.9 2.59982 15.7301 2.59982 14.3C2.59982 12.87 3.76978 11.7 5.19983 11.7C6.62987 11.7 7.79983 12.87 7.79983 14.3C7.79983 15.7301 6.62987 16.9 5.19983 16.9ZM18.1998 20.8C18.1998 22.2301 19.3698 23.4 20.7998 23.4C22.2299 23.4 23.3998 22.2301 23.3998 20.8C23.3998 19.37 22.2299 18.2 20.7998 18.2C19.3698 18.2 18.1998 19.37 18.1998 20.8Z"/>
</symbol><symbol viewBox="0 0 26 48" id="icon_slider-left" xmlns="http://www.w3.org/2000/svg">
<path fill-rule="evenodd" clip-rule="evenodd" d="M24.5799 0L1.46725 22.5137C0.662634 23.2975 0.661079 24.59 1.46381 25.3757L24.5788 48L26 46.5573L4.25521 25.4336C3.44663 24.6481 3.44664 23.3499 4.25523 22.5644L26 1.4416L24.5799 0Z"/>
</symbol><symbol viewBox="0 0 26 48" id="icon_slider-right" xmlns="http://www.w3.org/2000/svg">
<path fill-rule="evenodd" clip-rule="evenodd" d="M1.4201 0L24.5328 22.5137C25.3374 23.2975 25.3389 24.59 24.5362 25.3757L1.4212 48L0 46.5573L21.7448 25.4336C22.5534 24.6481 22.5534 23.3499 21.7448 22.5644L0 1.4416L1.4201 0Z"/>
</symbol><symbol viewBox="0 0 31 31" id="icon_spoller" xmlns="http://www.w3.org/2000/svg">
<path fill-rule="evenodd" clip-rule="evenodd" d="M17 0H14V14H0V17H14V31H17V17H31V14H17V0Z"/>
</symbol><symbol viewBox="0 0 16 16" id="input_clear" xmlns="http://www.w3.org/2000/svg">
<path fill-rule="evenodd" clip-rule="evenodd" d="M8 0C3.6 0 0 3.6 0 8C0 12.4 3.6 16 8 16C12.4 16 16 12.4 16 8C16 3.6 12.4 0 8 0ZM12 11.0494L10.88 12.2353L8 9.18588L5.12 12.2353L4 11.0494L6.88 8L4 4.95059L5.12 3.76471L8 6.81412L10.88 3.76471L12 4.95059L9.12 8L12 11.0494Z"/>
</symbol><symbol viewBox="0 0 77 14" id="logo_salt" xmlns="http://www.w3.org/2000/svg">
<path fill-rule="evenodd" clip-rule="evenodd" d="M32.7048 10.9764C34.2224 11.0205 35.7244 10.6559 37.0571 9.91985C37.1285 9.8802 37.2046 9.85222 37.3061 9.80557C37.673 10.5339 37.8597 11.3415 37.8501 12.159C37.8616 13.0733 37.8501 13.0919 36.9902 13.3741C35.5422 13.8278 34.028 14.0267 32.5134 13.9619C30.8998 13.9293 29.376 13.619 27.9883 12.77C26.3377 11.7718 25.4156 10.2767 25.1298 8.39213C24.8566 6.89013 25.0167 5.34034 25.5908 3.92792C26.453 1.89406 28.0528 0.760515 30.1391 0.289369C32.6121 -0.288017 35.2057 0.00401796 37.4928 1.11737C37.6103 1.17102 37.7763 1.30396 37.7763 1.39959C37.8041 2.50724 37.5391 3.60231 37.0087 4.57166C36.2249 4.17282 35.4849 3.74832 34.7034 3.40546C33.7746 2.99609 32.7409 2.89722 31.7527 3.12324C30.1321 3.49409 29.1593 4.67895 29.104 6.45157C29.0804 7.09895 29.1455 7.74653 29.2976 8.3758C29.7057 9.9665 31.0266 10.9414 32.7071 10.9858L32.7048 10.9764ZM73.0235 8.54374C72.9516 8.3518 72.8262 8.18509 72.6625 8.06379C72.4989 7.9425 72.3039 7.87183 72.1014 7.86034C71.0733 7.82536 70.0428 7.86034 68.9939 7.86034V10.9088C70.052 10.9088 71.0848 10.9508 72.1106 10.8831C72.2748 10.8493 72.4307 10.7831 72.5696 10.6882C72.7084 10.5934 72.8274 10.4718 72.9198 10.3304C73.0905 10.07 73.1895 9.7682 73.2065 9.45619C73.2235 9.14418 73.158 8.83322 73.0166 8.5554L73.0235 8.54374ZM76.4122 11.4966C75.7206 12.9846 74.4435 13.6774 72.8644 13.7123C70.4808 13.7683 68.0972 13.7287 65.7182 13.731C65.3862 13.731 65.1903 13.5771 65.1903 13.2459C65.1903 10.7362 65.1903 8.22575 65.1903 5.71454C65.1672 5.49762 65.1557 5.29237 65.1534 5.10578C65.1547 4.77476 65.1246 4.44438 65.0635 4.11917C65.0362 3.85923 64.9121 3.61955 64.7164 3.44886C64.5207 3.27816 64.2681 3.18926 64.01 3.20021C63.3184 3.17688 62.6061 3.20021 61.873 3.20021C61.873 3.89993 61.8846 4.59965 61.873 5.29937C61.8431 6.99969 61.7393 8.69301 61.2667 10.335C60.8818 11.6738 60.2547 12.8633 58.89 13.4325C58.37 13.6436 57.8196 13.7681 57.2602 13.801C56.4419 13.8476 55.6166 13.7776 54.7798 13.7567C54.5266 12.7605 54.5393 11.7141 54.8167 10.7245C55.1822 10.7433 55.5484 10.7433 55.914 10.7245C56.336 10.7018 56.7413 10.5504 57.0766 10.2902C57.412 10.0301 57.6616 9.67325 57.7928 9.26678C58.0676 8.49036 58.2472 7.68276 58.3276 6.86208C58.4175 5.7122 58.3506 4.55067 58.3506 3.2935H55.9301C55.8333 2.48183 55.7641 2.32322 55.7641 1.84975C55.732 1.32925 55.7881 0.807033 55.9301 0.305696H56.428C59.1943 0.305696 61.9606 0.284704 64.7384 0.31969C65.4236 0.317351 66.1045 0.430059 66.7532 0.653224C68.0972 1.14303 68.6551 2.2859 68.8717 3.62004C68.9328 4.02918 68.9628 4.44244 68.9617 4.85621V4.98916C68.9706 5.00423 68.9769 5.02083 68.9801 5.03814C70.0636 5.03814 71.0963 5.02181 72.1268 5.03814C72.7177 5.03636 73.3078 5.0863 73.8903 5.18741C75.3748 5.49062 76.32 6.40259 76.6865 7.886C77.0201 9.08074 76.9253 10.3563 76.4191 11.4872L76.4122 11.4966ZM49.5907 6.15536C49.4708 4.54367 48.6686 3.16289 46.5939 3.0556C45.0401 2.9763 43.846 3.53607 43.3389 5.24106C43.2026 5.81928 43.1253 6.41015 43.1084 7.00435C43.1099 7.29195 43.1269 7.57926 43.1591 7.86501C43.3343 9.41372 43.9797 10.7339 45.8585 10.9484C47.5068 11.135 49.0328 10.5706 49.4731 8.61604C49.6326 7.80707 49.6738 6.97877 49.5953 6.15769L49.5907 6.15536ZM51.9905 11.8324C51.0446 12.8584 49.7915 13.5412 48.4242 13.7753C46.2781 14.1881 44.1757 14.0902 42.2208 12.9893C40.425 11.9747 39.4937 10.3583 39.1848 8.35948C38.9355 6.92374 39.0815 5.44627 39.6067 4.08885C40.3836 2.15063 41.822 0.923782 43.8138 0.384997C45.8746 -0.170115 47.9355 -0.118801 49.9134 0.74652C52.0112 1.66082 53.173 3.33315 53.5672 5.5606C53.6502 6.02708 53.6641 6.52154 53.7102 6.99969C53.6802 8.81196 53.233 10.468 51.9858 11.8371"/>
<rect y="5" width="20" height="0.999965"/>
<rect y="8" width="20" height="0.999965"/>
</symbol></svg>