<svg aria-hidden="true" xmlns="http://www.w3.org/2000/svg" xmlns:xlink="http://www.w3.org/1999/xlink"><symbol viewBox="0 0 53 43" id="basket_empty" xmlns="http://www.w3.org/2000/svg">
<path fill-rule="evenodd" clip-rule="evenodd" d="M10.6571 0C14.8992 0 18.3387 3.4278 18.3387 7.65455C18.3387 11.8823 14.8992 15.3091 10.6571 15.3091C6.41591 15.3091 2.97642 11.8823 2.97642 7.65455C2.97742 3.4278 6.41591 0 10.6571 0ZM42.3429 0C46.5851 0 50.0215 3.4278 50.0215 7.65455C50.0215 11.8823 46.5841 15.3091 42.3429 15.3091C38.0997 15.3091 34.6622 11.8823 34.6622 7.65455C34.6622 3.4278 38.1007 0 42.3429 0ZM26.5 23.3876C15.7932 23.3876 5.96841 29.2213 0.861357 38.6087C0.0757331 40.0537 0.613529 41.8586 2.06337 42.6405C3.51422 43.4225 5.32426 42.8865 6.10788 41.4426C10.1725 33.975 17.9855 29.3343 26.5 29.3343C35.0144 29.3343 42.8275 33.975 46.8931 41.4436C47.6767 42.8875 49.4908 43.4225 50.9376 42.6395C52.3864 41.8566 52.9242 40.0507 52.1386 38.6087C47.0306 29.2203 37.2067 23.3876 26.5 23.3876Z"/>
</symbol><symbol viewBox="0 0 15 19" id="del-compare" xmlns="http://www.w3.org/2000/svg">
<path fill-rule="evenodd" clip-rule="evenodd" d="M15 3V2C15 2.12293 14.9367 2.11085 14.7488 2.07496C14.5945 2.0455 14.3562 2 14 2H10V1C10.3125 0.447715 9.89277 0 9 0H6C5.10723 0 4.6875 0.447715 5 1V2H1C0.643773 2 0.405491 2.0455 0.251211 2.07496C0.0632898 2.11085 0 2.12293 0 2V3C0 3.77614 0.209867 4 1 4H14C14.7901 4 15 3.77614 15 3ZM3 19C2.68802 19.0024 1.87624 18.2474 2 17L1 6H14L13 17C13.1423 18.2474 12.3305 19.0024 12 19H3Z"/>
</symbol><symbol viewBox="0 0 20 20" id="filters-btn" xmlns="http://www.w3.org/2000/svg">
<path fill-rule="evenodd" clip-rule="evenodd" d="M2 0H4V3.17071C5.16519 3.58254 6 4.69378 6 6C6 7.30622 5.16519 8.41746 4 8.82929V20H2V8.82929C0.834808 8.41746 0 7.30622 0 6C0 4.69378 0.834808 3.58254 2 3.17071V0ZM7 14C7 15.3062 7.83481 16.4175 9 16.8293V20H11V16.8293C12.1652 16.4175 13 15.3062 13 14C13 12.6938 12.1652 11.5825 11 11.1707V0H9V11.1707C7.83481 11.5825 7 12.6938 7 14ZM18 0H16V5.17071C14.8348 5.58254 14 6.69378 14 8C14 9.30622 14.8348 10.4175 16 10.8293V20H18V10.8293C19.1652 10.4175 20 9.30622 20 8C20 6.69378 19.1652 5.58254 18 5.17071V0ZM18 8C18 8.55228 17.5523 9 17 9C16.4477 9 16 8.55228 16 8C16 7.44772 16.4477 7 17 7C17.5523 7 18 7.44772 18 8ZM10 15C10.5523 15 11 14.5523 11 14C11 13.4477 10.5523 13 10 13C9.44772 13 9 13.4477 9 14C9 14.5523 9.44772 15 10 15ZM4 6C4 6.55228 3.55228 7 3 7C2.44772 7 2 6.55228 2 6C2 5.44772 2.44772 5 3 5C3.55228 5 4 5.44772 4 6Z"/>
</symbol><symbol viewBox="0 0 24 24" id="icon_basket" xmlns="http://www.w3.org/2000/svg">
<path d="M19.6873 22.5896L19.0165 22.2542L19.0163 22.2545L19.6873 22.5896ZM3.81268 22.5896L4.48353 22.2542L4.4835 22.2542L3.81268 22.5896ZM6.10741 8.99301L10.8217 1.13587L9.53548 0.364127L4.82117 8.22127L6.10741 8.99301ZM12.6783 1.13587L17.3926 8.99301L18.6788 8.22127L13.9645 0.364127L12.6783 1.13587ZM1.06931 9.35714H22.4307V7.85714H1.06931V9.35714ZM22.4307 9.35714C22.1928 9.35714 22 9.16436 22 8.92645H23.5C23.5 8.33584 23.0212 7.85714 22.4307 7.85714V9.35714ZM22 8.92645V9.61593H23.5V8.92645H22ZM22 9.61593C22 14.0032 20.9785 18.3301 19.0165 22.2542L20.3581 22.925C22.4243 18.7927 23.5 14.236 23.5 9.61593H22ZM19.0163 22.2545C19.0943 22.0985 19.2536 22 19.4279 22V23.5C19.8218 23.5 20.1821 23.2773 20.3583 22.9247L19.0163 22.2545ZM19.4279 22H4.07215V23.5H19.4279V22ZM4.07215 22C4.24646 22 4.40567 22.0985 4.48353 22.2542L3.14183 22.925C3.31797 23.2773 3.67808 23.5 4.07215 23.5V22ZM4.4835 22.2542C2.52146 18.3301 1.5 14.0032 1.5 9.61593H0C0 14.236 1.07568 18.7927 3.14186 22.925L4.4835 22.2542ZM1.5 9.61593V8.92645H0V9.61593H1.5ZM1.5 8.92645C1.5 9.16431 1.30717 9.35714 1.06931 9.35714V7.85714C0.478746 7.85714 0 8.33589 0 8.92645H1.5Z"/>
</symbol><symbol viewBox="0 0 24 24" id="icon_cabinet" xmlns="http://www.w3.org/2000/svg">
<path fill-rule="evenodd" clip-rule="evenodd" d="M24 21.0964C24 19.1673 22.6869 17.4859 20.8158 17.0185L16.2181 15.8695L16.2243 15.2833C16.2296 14.7569 16.4483 14.2325 16.8468 13.7958C18.1591 12.3574 18.7991 10.9712 19.0069 9.35909C19.085 8.75304 19.0997 8.29281 19.0997 7.25245C19.0997 3.27444 15.9693 0.0724969 12.0236 0C8.03086 0.0724936 4.90032 3.27426 4.90032 7.25147C4.90032 8.29184 4.91499 8.75207 4.99311 9.35811C5.20091 10.9702 5.84088 12.3564 7.15313 13.7947C7.55171 14.2315 7.77044 14.7559 7.77571 15.2817L7.78189 15.8685L3.18407 17.0175C1.31261 17.4864 0 19.1677 0 21.0964V22.7143C0 23.4244 0.575634 24 1.28571 24H22.7143C23.4244 24 24 23.4244 24 22.7143V21.0964ZM20.2696 19.5839C21.0027 19.7671 21.5172 20.426 21.5172 21.182V21.5172H2.48276V21.182C2.48276 20.4259 2.99753 19.7666 3.73123 19.5828L8.61295 18.3628C9.63691 18.1074 10.3517 17.1815 10.3403 16.1262L10.3315 15.286C10.3195 14.0978 9.84557 12.9616 9.02493 12.0623C8.06062 11.0054 7.64328 10.1014 7.50153 9.00171C7.44163 8.53702 7.42917 8.14605 7.42917 7.20713C7.42917 4.60514 9.45829 2.5299 12.0238 2.48276C14.5418 2.5299 16.5708 4.60526 16.5708 7.20812C16.5708 8.14704 16.5584 8.538 16.4985 9.00269C16.3567 10.1024 15.9394 11.0064 14.975 12.0633C14.1544 12.9626 13.6805 14.0988 13.6685 15.2876L13.6597 16.1276C13.6483 17.1833 14.3629 18.1084 15.3876 18.364L20.2696 19.5839Z"/>
</symbol><symbol viewBox="0 0 20 20" id="icon_change" xmlns="http://www.w3.org/2000/svg">
<path fill-rule="evenodd" clip-rule="evenodd" d="M18.1463 0.225379L19.776 2.05392C20.0747 2.35443 20.0747 2.84617 19.776 3.14667L18.1741 4.75847L15.4583 1.83718L17.0602 0.225379C17.3589 -0.0751264 17.8476 -0.0751264 18.1463 0.225379ZM1.92028 18.1133H16.0797V9.39444L18 7.36224V18.3858C18 19.2872 17.2614 20 16.354 20H1.64596C0.73857 20 0 19.2872 0 18.3858V4.34044C0 3.45999 0.73857 2.72627 1.64596 2.72627H12.1125L10.1923 4.63393H1.92028V18.1133ZM14.5841 2.72627L9.14005 8.45087L11.9379 11.3856L17.382 5.66096L14.5841 2.72627ZM6.97303 10.6667C6.86444 10.767 6.81015 10.8673 6.75585 11.0178L6.02288 14.0526C5.88715 14.5543 6.3758 15.0057 6.94588 14.9054L9.72409 13.7251C9.85982 13.7 9.99556 13.6248 10.1041 13.5245L11 12.6968L7.86889 9.83898L6.97303 10.6667Z"/>
</symbol><symbol viewBox="0 0 27 27" id="icon_close-modal" xmlns="http://www.w3.org/2000/svg">
	<path fill-rule="evenodd" clip-rule="evenodd" d="M15.9099 13.0815L26.163 23.3345L23.3345 26.163L13.0815 15.9099L2.82843 26.163L0 23.3345L10.253 13.0815L0 2.82843L2.82843 0L13.0815 10.253L23.3345 0L26.163 2.82843L15.9099 13.0815Z"/>
</symbol><symbol viewBox="0 0 12 19" id="icon_enter" xmlns="http://www.w3.org/2000/svg">
<path d="M5 16C6.06922 16.5062 6.25623 17.8468 6 18C5.56139 18.0418 5.18811 17.9474 5 18L0 13L5 8L5.3263 7.99585C5.59279 7.99447 5.91058 7.99585 6 8C6.66518 8.78971 6.13613 9.43494 5 10L3 12H10V1C9.99608 0.579773 10.4447 0.133077 11 0C11.5514 0.133077 12 0.579773 12 1V13C12 14.0423 10.9664 14.0423 11 14H3L5 16Z"/>
</symbol><symbol viewBox="0 0 25 21" id="icon_favorites" xmlns="http://www.w3.org/2000/svg">
<path fill-rule="evenodd" clip-rule="evenodd" d="M2.45123 10.3063L12.25 19.75L22.0488 10.3063C23.138 9.25645 23.75 7.83259 23.75 6.34793C23.75 3.25628 21.1495 0.75 17.9416 0.75C16.4011 0.75 14.9238 1.33978 13.8345 2.38959L12.25 3.91667L10.6655 2.3896C9.57624 1.33978 8.09885 0.75 6.55838 0.75C3.3505 0.75 0.75 3.25628 0.75 6.34793C0.75 7.83259 1.36195 9.25644 2.45123 10.3063Z" stroke-width="1.5" stroke-linejoin="round"/>
</symbol><symbol viewBox="0 0 23 15" id="icon_pagging-left" xmlns="http://www.w3.org/2000/svg">
<path fill-rule="evenodd" clip-rule="evenodd" d="M22.4375 6.79564L2.82588 6.79564L9.13504 0.5L7.03435 0.5L0.0375004 7.49498L7.03435 14.5H9.13504L2.82588 8.2L22.4375 8.2V6.79564Z"/>
</symbol><symbol viewBox="0 0 23 15" id="icon_pagging-right" xmlns="http://www.w3.org/2000/svg">
<path fill-rule="evenodd" clip-rule="evenodd" d="M0.291504 6.79564L19.9031 6.79564L13.594 0.5L15.6947 0.5L22.6915 7.49498L15.6947 14.5H13.594L19.9031 8.2L0.291504 8.2L0.291504 6.79564Z"/>
</symbol><symbol viewBox="0 0 22 31" id="icon_phone" xmlns="http://www.w3.org/2000/svg">
<path fill-rule="evenodd" clip-rule="evenodd" d="M19.4724 19.5082C18.3371 17.4343 15.7372 16.7286 13.7093 17.9569L12.9395 18.4199C12.9395 18.4199 11.9289 16.7388 11.1308 14.8769C10.3327 13.015 9.73822 10.9522 9.73822 10.9522L10.6102 10.4214C12.5908 9.22186 13.2712 6.63158 12.1621 4.58432L10.8183 2.16007C9.68608 0.091985 7.09432 -0.618325 5.06535 0.588609L2.12301 2.37647C-1.19407 4.39754 -0.619537 11.0991 3.81459 19.1674C8.297 27.2964 12.9128 31.6223 16.3313 29.5518C16.3586 29.5333 16.384 29.5161 16.408 29.4997C16.4877 29.4455 16.5534 29.4008 16.6313 29.3502C16.7121 29.3107 16.7395 29.2975 16.7768 29.2803L16.926 29.201L19.262 27.785C21.2466 26.5615 21.9239 23.9768 20.8093 21.9197L19.4724 19.5082ZM15.2606 20.5251C15.8276 20.1817 16.5233 20.3705 16.8434 20.9553L18.18 23.3663C18.5284 24.0161 18.3092 24.8477 17.6962 25.2256L15.4377 26.5945C15.4028 26.6112 15.3645 26.6298 15.3133 26.6548C15.2325 26.6943 15.2052 26.7074 15.1678 26.7247L14.9751 26.8136L14.8147 26.9524C14.8005 26.9646 14.7778 26.9813 14.6994 27.0356C13.6641 27.6594 10.0766 24.3088 6.44405 17.7211C4.74417 14.628 4.28502 12.3169 3.79806 9.86577C3.74196 9.58338 3.68549 9.29913 3.62671 9.01162C3.14243 6.64285 3.32381 5.15831 3.68355 4.93913L6.61226 3.15947C7.16711 2.82949 7.86874 3.02178 8.18927 3.60726L9.52993 6.02571C9.87467 6.66219 9.65698 7.49095 9.05212 7.85729L7.09133 9.05072L6.02106 9.70214L6.47138 10.871C6.47138 10.871 7.32452 13.7912 8.50218 16.3248C9.67984 18.8583 11.3252 21.3131 11.3252 21.3131L12.1372 22.4038L15.2606 20.5251Z"/>
</symbol><symbol viewBox="0 0 18 24" id="icon_profile" xmlns="http://www.w3.org/2000/svg">
<path fill-rule="evenodd" clip-rule="evenodd" d="M13.5492 5.46428C13.5492 8.06814 11.4004 10.1786 8.74922 10.1786C6.09802 10.1786 3.94922 8.06814 3.94922 5.46428C3.94922 2.86043 6.09802 0.75 8.74922 0.75C11.4004 0.75 13.5492 2.86043 13.5492 5.46428Z" stroke-width="1.5" stroke-linecap="square"/>
<path fill-rule="evenodd" clip-rule="evenodd" d="M16.75 22.7516H0.75C0.75 21.6351 0.75 20.5729 0.75 19.611C0.75 17.0057 2.89903 14.8945 5.55 14.8945H11.95C14.601 14.8945 16.75 17.0057 16.75 19.611C16.75 20.5729 16.75 21.6351 16.75 22.7516Z" stroke-width="1.5" stroke-linecap="square"/>
</symbol><symbol viewBox="0 0 17 18" id="icon_reset" xmlns="http://www.w3.org/2000/svg">
<g clip-path="url(#nclip0_109_1659)">
<path fill-rule="evenodd" clip-rule="evenodd" d="M11.0006 1C14.4508 1.88831 17 5.02035 17 8.7478C17 11.7271 15.3713 14.3261 12.9558 15.7029L15 17.7478H9V11.7478L10.7034 13.4501C12.6262 12.7535 14 10.9111 14 8.7478C14 6.69799 12.7665 4.93628 11.0013 4.16442L11.0006 1ZM5.99935 16.7478C2.54923 15.8595 0 12.7274 0 9C0 6.02065 1.62865 3.4217 4.04422 2.04486L2 0H8V6L6.29661 4.29765C4.37383 4.9943 3 6.83671 3 9C3 11.0498 4.23348 12.8115 5.99868 13.5834L5.99935 16.7478Z"/>
</g>
<defs>
<clipPath id="nclip0_109_1659">
<rect width="17" height="17.7478"/>
</clipPath>
</defs>
</symbol><symbol viewBox="0 0 22 22" id="icon_search" xmlns="http://www.w3.org/2000/svg">
<path d="M21 21L15.2857 15.2857M9.57143 18.1429C4.83756 18.1429 1 14.3053 1 9.57143C1 4.83756 4.83756 1 9.57143 1C14.3053 1 18.1429 4.83756 18.1429 9.57143C18.1429 14.3053 14.3053 18.1429 9.57143 18.1429Z" stroke-width="1.5"/>
</symbol><symbol viewBox="0 0 26 26" id="icon_share" xmlns="http://www.w3.org/2000/svg">
<path fill-rule="evenodd" clip-rule="evenodd" d="M16.6397 17.6801C17.6799 16.3801 19.1099 15.6 20.7998 15.6H20.8001C23.6602 15.6 26.0001 17.9399 26.0001 20.8C26.0001 23.6601 23.6602 26 20.8001 26C17.94 26 15.6001 23.6601 15.6001 20.8C15.6001 20.67 15.6326 20.54 15.6651 20.41C15.6976 20.28 15.7301 20.15 15.7301 20.02L9.3601 17.42C8.31996 18.72 6.88991 19.5 5.2 19.5C2.33991 19.5 0 17.1601 0 14.3C0 11.4399 2.33991 9.1 5.2 9.1C6.63 9.1 7.93 9.75 8.83991 10.6601L15.8599 6.63005C15.8376 6.54102 15.8154 6.45581 15.7938 6.37309L15.7937 6.3729L15.7937 6.37281C15.6891 5.97254 15.5998 5.63083 15.5998 5.2C15.5998 2.33991 17.9397 0 20.7998 0C23.6599 0 25.9998 2.33991 25.9998 5.2C25.9998 8.0601 23.6599 10.4 20.7998 10.4C19.3698 10.4 18.0698 9.75 17.0297 8.83991L10.1397 12.87C10.162 12.9591 10.1843 13.0444 10.2059 13.1272L10.2059 13.1272C10.3105 13.5275 10.3998 13.8692 10.3998 14.3C10.3998 14.5601 10.3998 14.82 10.2697 15.0801L16.6397 17.6801ZM23.3998 5.2C23.3998 3.76995 22.2299 2.6 20.7998 2.6C19.3698 2.6 18.1998 3.76995 18.1998 5.2C18.1998 6.63005 19.3698 7.8 20.7998 7.8C22.2299 7.8 23.3998 6.63005 23.3998 5.2ZM5.19983 16.9C3.76978 16.9 2.59982 15.7301 2.59982 14.3C2.59982 12.87 3.76978 11.7 5.19983 11.7C6.62987 11.7 7.79983 12.87 7.79983 14.3C7.79983 15.7301 6.62987 16.9 5.19983 16.9ZM18.1998 20.8C18.1998 22.2301 19.3698 23.4 20.7998 23.4C22.2299 23.4 23.3998 22.2301 23.3998 20.8C23.3998 19.37 22.2299 18.2 20.7998 18.2C19.3698 18.2 18.1998 19.37 18.1998 20.8Z"/>
</symbol><symbol viewBox="0 0 31 31" id="icon_spoller" xmlns="http://www.w3.org/2000/svg">
<path fill-rule="evenodd" clip-rule="evenodd" d="M17 0H14V14H0V17H14V31H17V17H31V14H17V0Z"/>
</symbol><symbol viewBox="0 0 27 24" id="icon_tg" xmlns="http://www.w3.org/2000/svg">
<path fill-rule="evenodd" clip-rule="evenodd" d="M25.75 0.75L0.75 9.9167L7.89286 13.5833L18.6071 6.25L11.4643 15.4167L22.1786 22.75L25.75 0.75Z" stroke-width="1.5" stroke-linejoin="round"/>
</symbol><symbol viewBox="0 0 22 14" id="icon_vk" xmlns="http://www.w3.org/2000/svg">
<path fill-rule="evenodd" clip-rule="evenodd" d="M9.09789 0.5L9.25788 0.505809L11.682 0.505552C12.5628 0.505552 13.2711 1.23374 13.2711 2.12519V5.67875C13.2711 5.79758 13.282 5.8944 13.2938 5.96885L13.3215 6.12476C13.3237 6.14434 13.3218 6.15382 13.3127 6.1531C13.3521 6.15624 13.448 6.08116 13.5825 5.91417L13.7067 5.7482C13.751 5.68516 13.798 5.61429 13.8473 5.53528L14.0017 5.27351C14.0552 5.17789 14.1106 5.07381 14.1674 4.96095L14.2855 4.72868L15.8809 1.67823C16.0942 1.26973 16.5123 1.01255 16.9697 1.01256H20.2152C21.2555 1.01256 21.646 1.71183 21.3746 2.621C21.219 3.14207 20.8695 3.73921 20.423 4.34986L18.3286 7.19096C18.1722 7.40266 18.1896 7.70336 18.3711 7.89679L20.1388 9.79807L20.6098 10.2964L20.8433 10.5378C21.9817 11.6904 21.6424 13.1667 19.8488 13.1667H16.9363C16.5329 13.1667 16.1455 13.0089 15.8534 12.7268L13.6356 10.5845C13.5727 10.5237 13.4846 10.5079 13.408 10.5419C13.3266 10.5781 13.2711 10.665 13.2711 10.7638V11.9141C13.2711 12.6028 12.7226 13.1667 12.039 13.1667H10.1861C6.63962 13.1667 2.99249 8.38217 1.00524 3.5381L0.774846 2.95683C0.70078 2.76318 0.629483 2.56974 0.561066 2.3768C0.449349 2.06747 0.492511 1.72205 0.677465 1.45059C0.865229 1.17502 1.17575 1.01025 1.50447 1.01256L4.45245 1.01256C4.91821 1.01186 5.33915 1.28836 5.54068 1.73899C6.16416 3.33424 6.97273 4.8461 7.91632 6.20015C7.97753 6.27055 8.07023 6.29307 8.15177 6.25986C8.23825 6.22464 8.29727 6.13289 8.2947 6.02633L8.2497 3.17621C8.22497 2.71186 8.0918 2.48367 7.90142 2.38345C7.80013 2.33013 7.68348 2.31516 7.59316 2.32347L6.4162 2.51891L7.10627 1.54113C7.53383 0.935303 8.19934 0.560416 8.91739 0.506689L9.09789 0.5ZM9.22578 1.50529L9.05459 1.50065C8.90624 1.50511 8.76079 1.53309 8.62289 1.58243L8.548 1.61301L8.59357 1.64525C8.98079 1.95023 9.21293 2.45301 9.24893 3.14614L9.25386 3.33988L9.25471 3.52141L9.29447 6.00477C9.30696 6.5208 9.00328 6.99282 8.52896 7.186C8.04969 7.38119 7.50254 7.24827 7.12928 6.81481C6.10772 5.35411 5.26161 3.77205 4.6188 2.12569C4.58708 2.05499 4.52232 2.01245 4.45319 2.01256L1.50395 2.01247L1.50029 2.02476L1.50258 2.03985C1.90437 3.17288 2.41963 4.33337 3.01464 5.44567L3.31864 5.99746L3.63499 6.53911C5.51462 9.66512 7.97715 12.1667 10.1861 12.1667H12.039C12.164 12.1667 12.2711 12.0566 12.2711 11.9141V10.7638C12.2711 10.2728 12.5565 9.82618 13.0016 9.62821C13.4516 9.42809 13.9751 9.52212 14.3303 9.86523L16.5482 12.0075C16.6545 12.1102 16.7931 12.1667 16.9363 12.1667H19.8488C20.6341 12.1667 20.712 11.8279 20.1318 11.2405L19.5485 10.6302L17.6392 8.57813C17.1296 8.03536 17.0813 7.19659 17.5243 6.59671L19.3691 4.09603L19.7557 3.56342C20.0722 3.10762 20.3163 2.67016 20.4164 2.33491L20.4582 2.18897C20.5029 2.01256 20.4589 2.01256 20.2163 2.01256H20.2152H16.9697C16.8874 2.01256 16.8094 2.06049 16.7663 2.14312L15.7199 4.13488L14.9552 5.61394C14.3939 6.66501 13.8358 7.19787 13.2334 7.14995C12.5854 7.09839 12.2711 6.45203 12.2711 5.67875V2.12519C12.2711 1.77992 12.0042 1.50555 11.682 1.50555L9.22578 1.50529Z"/>
</symbol><symbol viewBox="0 0 20 20" id="icon_wa" xmlns="http://www.w3.org/2000/svg">
<path fill-rule="evenodd" clip-rule="evenodd" d="M16.6491 3.35518C14.8088 1.51497 12.3761 0.5 9.80305 0.5C7.31552 0.5 4.98475 1.45868 3.24498 3.19844C1.70046 4.74297 0.753274 6.8019 0.577181 8.99631L0.554958 9.36307L0.547038 9.7299C0.543278 11.4413 1.0031 13.1412 1.87535 14.6295L1.93601 14.729L0.558626 18.4552L0.523276 18.5742C0.450661 18.8947 0.550045 19.234 0.792108 19.4649C0.968594 19.6333 1.20207 19.7259 1.44348 19.7259L1.56877 19.7175L1.6512 19.7027C1.70574 19.6904 1.75932 19.6732 1.81132 19.6512L5.38601 18.134L5.47044 18.1847C6.92878 19.0194 8.56875 19.4574 10.2483 19.4574L10.5775 19.4517L10.915 19.434C13.1568 19.2765 15.2261 18.339 16.8058 16.7593C20.4604 13.1046 20.3862 7.09232 16.6491 3.35518ZM3.95209 3.90555C5.50368 2.35396 7.57985 1.5 9.80305 1.5C12.1099 1.5 14.2886 2.40896 15.942 4.06228C19.2924 7.41276 19.3588 12.792 16.0987 16.0522C14.6195 17.5314 12.6614 18.3781 10.5512 18.4521L10.2396 18.4575L9.89651 18.4506C8.41241 18.391 6.96651 17.9459 5.68917 17.1509L5.46875 17.0137L1.54201 18.679L3.04511 14.6162L2.91125 14.4067L2.72761 14.1059C1.84126 12.5852 1.43413 10.8193 1.57398 9.0763C1.73111 7.11816 2.57595 5.28169 3.95209 3.90555ZM7.2009 4.07674C7.92552 4.07674 8.24397 4.30873 8.62834 4.95303L8.95591 5.51747L9.11867 5.76894C9.81471 6.8294 10.0077 7.28713 9.77883 7.88052C9.6424 8.23166 9.44628 8.44906 8.99102 8.82221L8.73201 9.03L8.78383 9.12287C8.9485 9.40222 9.23861 9.78457 9.60646 10.1715L9.74795 10.3166C10.1824 10.7511 10.6266 11.0948 10.941 11.2802L11.032 11.331L11.1088 11.2371C11.5679 10.6618 11.7938 10.436 12.1854 10.2851C12.3203 10.2331 12.465 10.2072 12.6138 10.2072C13.0097 10.2072 13.3397 10.3422 13.9395 10.717L14.5477 11.109L14.8529 11.2882L15.1849 11.478C15.7346 11.8087 15.9878 12.1881 15.9878 12.8636C15.9878 13.407 15.5908 14.078 15.0572 14.6229C14.5163 15.1751 13.8912 15.5316 13.2388 15.6416L13.0423 15.6672L12.8477 15.6758C11.0872 15.6747 9.12363 14.758 7.3967 13.1646L7.13267 12.9135C5.39589 11.1284 4.38984 9.0612 4.38863 7.2175C4.38863 6.44621 4.7693 5.66446 5.44145 5.00665C5.98645 4.47336 6.65745 4.07674 7.2009 4.07674ZM6.14087 5.72137C6.51546 5.35482 6.98591 5.07674 7.2009 5.07674C7.46991 5.07674 7.54874 5.10244 7.71419 5.37067L7.96592 5.8089L8.10458 6.04213L8.47317 6.61448L8.62146 6.86041C8.64285 6.89747 8.66262 6.93265 8.68084 6.96605L8.77211 7.14607C8.85818 7.33337 8.87505 7.44488 8.84626 7.51954C8.78507 7.67701 8.62761 7.83431 8.20542 8.17131L8.05948 8.28886L7.86808 8.45292L7.77648 8.54377L7.60879 8.72641L7.65268 8.97044L7.68116 9.09022C7.82618 9.58941 8.33911 10.322 9.04086 11.0237C9.80005 11.7829 10.5953 12.321 11.0921 12.4114L11.3374 12.4561L11.5206 12.2871L11.5871 12.2213C11.6025 12.205 11.6185 12.1877 11.6351 12.1691L11.7435 12.0424L12.091 11.616C12.2987 11.3718 12.4216 11.2657 12.545 11.2182C12.563 11.2113 12.5857 11.2072 12.6138 11.2072C12.6768 11.2072 12.7511 11.2234 12.8464 11.2609L13.0062 11.3337C13.0655 11.3637 13.1312 11.3997 13.2047 11.4423L13.4491 11.5904L13.9142 11.8911L14.1648 12.0456L14.5433 12.2618L14.7512 12.386C14.9491 12.516 14.9878 12.6029 14.9878 12.8636C14.9878 13.0783 14.7095 13.5487 14.3427 13.9232L14.1949 14.0654C13.7969 14.4256 13.3701 14.6332 12.9728 14.6699L12.845 14.675L12.5985 14.6683C11.1781 14.5836 9.55697 13.7915 8.09175 12.4452L7.84831 12.215L7.61742 11.9709C6.19381 10.4214 5.3896 8.69514 5.38863 7.21717C5.38863 6.73734 5.64892 6.20282 6.14087 5.72137Z"/>
</symbol><symbol viewBox="0 0 19 19" id="icon_watch" xmlns="http://www.w3.org/2000/svg">
<path d="M13.9871 12.4607L14.3861 12.762L14.6874 12.363L14.2884 12.0617L13.9871 12.4607ZM12.8239 14.0015L12.5227 14.4005L12.9217 14.7018L13.223 14.3027L12.8239 14.0015ZM10.2779 9.66052H9.77794V9.90953L9.97667 10.0596L10.2779 9.66052ZM10.2779 4.30648H10.7779V3.80648H10.2779V4.30648ZM8.34747 4.30648V3.80648H7.84747V4.30648H8.34747ZM8.34747 10.6219H7.84747V10.8709L8.04621 11.021L8.34747 10.6219ZM9.5 0.5C4.52944 0.5 0.5 4.52944 0.5 9.5H1.5C1.5 5.08172 5.08172 1.5 9.5 1.5V0.5ZM18.5 9.5C18.5 4.52944 14.4706 0.5 9.5 0.5V1.5C13.9183 1.5 17.5 5.08172 17.5 9.5H18.5ZM9.5 18.5C14.4706 18.5 18.5 14.4706 18.5 9.5H17.5C17.5 13.9183 13.9183 17.5 9.5 17.5V18.5ZM0.5 9.5C0.5 14.4706 4.52944 18.5 9.5 18.5V17.5C5.08172 17.5 1.5 13.9183 1.5 9.5H0.5ZM13.588 12.1595L12.4249 13.7002L13.223 14.3027L14.3861 12.762L13.588 12.1595ZM9.97667 10.0596L13.6858 12.8598L14.2884 12.0617L10.5792 9.26147L9.97667 10.0596ZM9.77794 4.30648V9.66052H10.7779V4.30648H9.77794ZM8.34747 4.80648H10.2779V3.80648H8.34747V4.80648ZM8.84747 10.6219V4.30648H7.84747V10.6219H8.84747ZM13.1252 13.6024L8.64874 10.2229L8.04621 11.021L12.5227 14.4005L13.1252 13.6024Z"/>
</symbol><symbol viewBox="0 0 16 16" id="input_clear" xmlns="http://www.w3.org/2000/svg">
<path fill-rule="evenodd" clip-rule="evenodd" d="M8 0C3.6 0 0 3.6 0 8C0 12.4 3.6 16 8 16C12.4 16 16 12.4 16 8C16 3.6 12.4 0 8 0ZM12 11.0494L10.88 12.2353L8 9.18588L5.12 12.2353L4 11.0494L6.88 8L4 4.95059L5.12 3.76471L8 6.81412L10.88 3.76471L12 4.95059L9.12 8L12 11.0494Z"/>
</symbol><symbol viewBox="0 0 77 14" id="logo_salt" xmlns="http://www.w3.org/2000/svg">
<path fill-rule="evenodd" clip-rule="evenodd" d="M32.7048 10.9764C34.2224 11.0205 35.7244 10.6559 37.0571 9.91985C37.1285 9.8802 37.2046 9.85222 37.3061 9.80557C37.673 10.5339 37.8597 11.3415 37.8501 12.159C37.8616 13.0733 37.8501 13.0919 36.9902 13.3741C35.5422 13.8278 34.028 14.0267 32.5134 13.9619C30.8998 13.9293 29.376 13.619 27.9883 12.77C26.3377 11.7718 25.4156 10.2767 25.1298 8.39213C24.8566 6.89013 25.0167 5.34034 25.5908 3.92792C26.453 1.89406 28.0528 0.760515 30.1391 0.289369C32.6121 -0.288017 35.2057 0.00401796 37.4928 1.11737C37.6103 1.17102 37.7763 1.30396 37.7763 1.39959C37.8041 2.50724 37.5391 3.60231 37.0087 4.57166C36.2249 4.17282 35.4849 3.74832 34.7034 3.40546C33.7746 2.99609 32.7409 2.89722 31.7527 3.12324C30.1321 3.49409 29.1593 4.67895 29.104 6.45157C29.0804 7.09895 29.1455 7.74653 29.2976 8.3758C29.7057 9.9665 31.0266 10.9414 32.7071 10.9858L32.7048 10.9764ZM73.0235 8.54374C72.9516 8.3518 72.8262 8.18509 72.6625 8.06379C72.4989 7.9425 72.3039 7.87183 72.1014 7.86034C71.0733 7.82536 70.0428 7.86034 68.9939 7.86034V10.9088C70.052 10.9088 71.0848 10.9508 72.1106 10.8831C72.2748 10.8493 72.4307 10.7831 72.5696 10.6882C72.7084 10.5934 72.8274 10.4718 72.9198 10.3304C73.0905 10.07 73.1895 9.7682 73.2065 9.45619C73.2235 9.14418 73.158 8.83322 73.0166 8.5554L73.0235 8.54374ZM76.4122 11.4966C75.7206 12.9846 74.4435 13.6774 72.8644 13.7123C70.4808 13.7683 68.0972 13.7287 65.7182 13.731C65.3862 13.731 65.1903 13.5771 65.1903 13.2459C65.1903 10.7362 65.1903 8.22575 65.1903 5.71454C65.1672 5.49762 65.1557 5.29237 65.1534 5.10578C65.1547 4.77476 65.1246 4.44438 65.0635 4.11917C65.0362 3.85923 64.9121 3.61955 64.7164 3.44886C64.5207 3.27816 64.2681 3.18926 64.01 3.20021C63.3184 3.17688 62.6061 3.20021 61.873 3.20021C61.873 3.89993 61.8846 4.59965 61.873 5.29937C61.8431 6.99969 61.7393 8.69301 61.2667 10.335C60.8818 11.6738 60.2547 12.8633 58.89 13.4325C58.37 13.6436 57.8196 13.7681 57.2602 13.801C56.4419 13.8476 55.6166 13.7776 54.7798 13.7567C54.5266 12.7605 54.5393 11.7141 54.8167 10.7245C55.1822 10.7433 55.5484 10.7433 55.914 10.7245C56.336 10.7018 56.7413 10.5504 57.0766 10.2902C57.412 10.0301 57.6616 9.67325 57.7928 9.26678C58.0676 8.49036 58.2472 7.68276 58.3276 6.86208C58.4175 5.7122 58.3506 4.55067 58.3506 3.2935H55.9301C55.8333 2.48183 55.7641 2.32322 55.7641 1.84975C55.732 1.32925 55.7881 0.807033 55.9301 0.305696H56.428C59.1943 0.305696 61.9606 0.284704 64.7384 0.31969C65.4236 0.317351 66.1045 0.430059 66.7532 0.653224C68.0972 1.14303 68.6551 2.2859 68.8717 3.62004C68.9328 4.02918 68.9628 4.44244 68.9617 4.85621V4.98916C68.9706 5.00423 68.9769 5.02083 68.9801 5.03814C70.0636 5.03814 71.0963 5.02181 72.1268 5.03814C72.7177 5.03636 73.3078 5.0863 73.8903 5.18741C75.3748 5.49062 76.32 6.40259 76.6865 7.886C77.0201 9.08074 76.9253 10.3563 76.4191 11.4872L76.4122 11.4966ZM49.5907 6.15536C49.4708 4.54367 48.6686 3.16289 46.5939 3.0556C45.0401 2.9763 43.846 3.53607 43.3389 5.24106C43.2026 5.81928 43.1253 6.41015 43.1084 7.00435C43.1099 7.29195 43.1269 7.57926 43.1591 7.86501C43.3343 9.41372 43.9797 10.7339 45.8585 10.9484C47.5068 11.135 49.0328 10.5706 49.4731 8.61604C49.6326 7.80707 49.6738 6.97877 49.5953 6.15769L49.5907 6.15536ZM51.9905 11.8324C51.0446 12.8584 49.7915 13.5412 48.4242 13.7753C46.2781 14.1881 44.1757 14.0902 42.2208 12.9893C40.425 11.9747 39.4937 10.3583 39.1848 8.35948C38.9355 6.92374 39.0815 5.44627 39.6067 4.08885C40.3836 2.15063 41.822 0.923782 43.8138 0.384997C45.8746 -0.170115 47.9355 -0.118801 49.9134 0.74652C52.0112 1.66082 53.173 3.33315 53.5672 5.5606C53.6502 6.02708 53.6641 6.52154 53.7102 6.99969C53.6802 8.81196 53.233 10.468 51.9858 11.8371"/>
<rect y="5" width="20" height="0.999965"/>
<rect y="8" width="20" height="0.999965"/>
</symbol></svg>