<svg width="20" height="20" viewBox="0 0 20 20" fill="none" xmlns="http://www.w3.org/2000/svg">
<path fill-rule="evenodd" clip-rule="evenodd" d="M16.6491 3.35518C14.8088 1.51497 12.3761 0.5 9.80305 0.5C7.31552 0.5 4.98475 1.45868 3.24498 3.19844C1.70046 4.74297 0.753274 6.8019 0.577181 8.99631L0.554958 9.36307L0.547038 9.7299C0.543278 11.4413 1.0031 13.1412 1.87535 14.6295L1.93601 14.729L0.558626 18.4552L0.523276 18.5742C0.450661 18.8947 0.550045 19.234 0.792108 19.4649C0.968594 19.6333 1.20207 19.7259 1.44348 19.7259L1.56877 19.7175L1.6512 19.7027C1.70574 19.6904 1.75932 19.6732 1.81132 19.6512L5.38601 18.134L5.47044 18.1847C6.92878 19.0194 8.56875 19.4574 10.2483 19.4574L10.5775 19.4517L10.915 19.434C13.1568 19.2765 15.2261 18.339 16.8058 16.7593C20.4604 13.1046 20.3862 7.09232 16.6491 3.35518ZM3.95209 3.90555C5.50368 2.35396 7.57985 1.5 9.80305 1.5C12.1099 1.5 14.2886 2.40896 15.942 4.06228C19.2924 7.41276 19.3588 12.792 16.0987 16.0522C14.6195 17.5314 12.6614 18.3781 10.5512 18.4521L10.2396 18.4575L9.89651 18.4506C8.41241 18.391 6.96651 17.9459 5.68917 17.1509L5.46875 17.0137L1.54201 18.679L3.04511 14.6162L2.91125 14.4067L2.72761 14.1059C1.84126 12.5852 1.43413 10.8193 1.57398 9.0763C1.73111 7.11816 2.57595 5.28169 3.95209 3.90555ZM7.2009 4.07674C7.92552 4.07674 8.24397 4.30873 8.62834 4.95303L8.95591 5.51747L9.11867 5.76894C9.81471 6.8294 10.0077 7.28713 9.77883 7.88052C9.6424 8.23166 9.44628 8.44906 8.99102 8.82221L8.73201 9.03L8.78383 9.12287C8.9485 9.40222 9.23861 9.78457 9.60646 10.1715L9.74795 10.3166C10.1824 10.7511 10.6266 11.0948 10.941 11.2802L11.032 11.331L11.1088 11.2371C11.5679 10.6618 11.7938 10.436 12.1854 10.2851C12.3203 10.2331 12.465 10.2072 12.6138 10.2072C13.0097 10.2072 13.3397 10.3422 13.9395 10.717L14.5477 11.109L14.8529 11.2882L15.1849 11.478C15.7346 11.8087 15.9878 12.1881 15.9878 12.8636C15.9878 13.407 15.5908 14.078 15.0572 14.6229C14.5163 15.1751 13.8912 15.5316 13.2388 15.6416L13.0423 15.6672L12.8477 15.6758C11.0872 15.6747 9.12363 14.758 7.3967 13.1646L7.13267 12.9135C5.39589 11.1284 4.38984 9.0612 4.38863 7.2175C4.38863 6.44621 4.7693 5.66446 5.44145 5.00665C5.98645 4.47336 6.65745 4.07674 7.2009 4.07674ZM6.14087 5.72137C6.51546 5.35482 6.98591 5.07674 7.2009 5.07674C7.46991 5.07674 7.54874 5.10244 7.71419 5.37067L7.96592 5.8089L8.10458 6.04213L8.47317 6.61448L8.62146 6.86041C8.64285 6.89747 8.66262 6.93265 8.68084 6.96605L8.77211 7.14607C8.85818 7.33337 8.87505 7.44488 8.84626 7.51954C8.78507 7.67701 8.62761 7.83431 8.20542 8.17131L8.05948 8.28886L7.86808 8.45292L7.77648 8.54377L7.60879 8.72641L7.65268 8.97044L7.68116 9.09022C7.82618 9.58941 8.33911 10.322 9.04086 11.0237C9.80005 11.7829 10.5953 12.321 11.0921 12.4114L11.3374 12.4561L11.5206 12.2871L11.5871 12.2213C11.6025 12.205 11.6185 12.1877 11.6351 12.1691L11.7435 12.0424L12.091 11.616C12.2987 11.3718 12.4216 11.2657 12.545 11.2182C12.563 11.2113 12.5857 11.2072 12.6138 11.2072C12.6768 11.2072 12.7511 11.2234 12.8464 11.2609L13.0062 11.3337C13.0655 11.3637 13.1312 11.3997 13.2047 11.4423L13.4491 11.5904L13.9142 11.8911L14.1648 12.0456L14.5433 12.2618L14.7512 12.386C14.9491 12.516 14.9878 12.6029 14.9878 12.8636C14.9878 13.0783 14.7095 13.5487 14.3427 13.9232L14.1949 14.0654C13.7969 14.4256 13.3701 14.6332 12.9728 14.6699L12.845 14.675L12.5985 14.6683C11.1781 14.5836 9.55697 13.7915 8.09175 12.4452L7.84831 12.215L7.61742 11.9709C6.19381 10.4214 5.3896 8.69514 5.38863 7.21717C5.38863 6.73734 5.64892 6.20282 6.14087 5.72137Z" fill="black"/>
</svg>
