<svg width="26" height="26" viewBox="0 0 26 26" fill="none" xmlns="http://www.w3.org/2000/svg">
<path fill-rule="evenodd" clip-rule="evenodd" d="M2.04212e-05 12.75C2.04212e-05 5.70837 5.70839 0 12.75 0C19.7916 0 25.5 5.70837 25.5 12.75C25.5 19.7916 19.7916 25.5 12.75 25.5C10.0482 25.5 7.54099 24.6588 5.47835 23.2244L5.88473 23.0212L5.54932 22.3504L5.99979 21.7507C7.88007 23.1633 10.2162 24 12.75 24C18.9632 24 24 18.9632 24 12.75C24 6.5368 18.9632 1.5 12.75 1.5C6.53682 1.5 1.50002 6.5368 1.50002 12.75C1.50002 15.2838 2.33676 17.6199 3.74931 19.5002L4.02797 19.8712L3.82049 20.2861L2.42706 23.073L0.41461 24.0792L0.75002 24.75L1.42084 25.0854L2.42706 23.073L5.21391 21.6795L5.62887 21.4721L5.99979 21.7507L5.5493 22.3504L5.09884 22.95C5.22359 23.0437 5.35011 23.1352 5.47835 23.2244L1.08543 25.4208C0.79669 25.5652 0.44796 25.5086 0.21969 25.2803C-0.00857957 25.0521 -0.0651706 24.7033 0.0792004 24.4146L2.27566 20.0217C2.36484 20.1499 2.45632 20.2765 2.55003 20.4012L3.14967 19.9507L2.47885 19.6153L2.27566 20.0217C0.841185 17.959 2.04212e-05 15.4518 2.04212e-05 12.75ZM8.02319 8.23118L7.60716 7.60714H8.13499H8.35716V7.94039V8.00854L8.02319 8.23118ZM8.71873 11.679C8.48384 10.935 8.35716 10.143 8.35716 9.32143V8.00854L8.38861 7.98757C8.97083 7.59942 9.75962 7.94115 9.87462 8.63137L10.1137 10.0657C10.1761 10.44 10.0131 10.816 9.69744 11.0265L8.71873 11.679ZM9.31873 13.0818L8.88033 13.374L8.04828 12.126L8.71873 11.679C8.87351 12.1692 9.07527 12.6386 9.31873 13.0818ZM12.4183 16.1813C11.1135 15.4646 10.0354 14.3865 9.31873 13.0818L10.5295 12.2746C11.3363 11.7367 11.7527 10.7756 11.5933 9.8191L11.3542 8.38477C11.0603 6.62088 9.04446 5.74756 7.55656 6.73949L7.19114 6.98311C6.98249 7.1222 6.85716 7.35638 6.85716 7.60714V9.32143C6.85716 14.4695 11.0305 18.6429 16.1786 18.6429H17.8929C18.1436 18.6429 18.3778 18.5175 18.5169 18.3089L18.7605 17.9435C19.7524 16.4556 18.8791 14.4397 17.1152 14.1458L15.6809 13.9067C14.7244 13.7473 13.7633 14.1637 13.2254 14.9705L12.4183 16.1813ZM13.821 16.7813L13.374 17.4517L12.126 16.6197L12.4183 16.1813C12.8615 16.4248 13.3308 16.6265 13.821 16.7813ZM16.8686 15.6254L15.4343 15.3863C15.06 15.3239 14.684 15.4869 14.4735 15.8026L13.821 16.7813C14.565 17.0162 15.357 17.1429 16.1786 17.1429H17.4914L17.2688 17.4768L17.8929 17.8929L17.8929 17.3651V17.1429H17.5597H17.4914L17.5124 17.1114C17.9006 16.5292 17.5588 15.7404 16.8686 15.6254Z" fill="black"/>
</svg>
