<svg width="11" height="16" viewBox="0 0 11 16" fill="none" xmlns="http://www.w3.org/2000/svg">
<path d="M1.029 15.063C0.931 15.063 0.847 15.021 0.777 14.937C0.721 14.853 0.693 14.755 0.693 14.643C0.707 14.461 0.749 14.356 0.819 14.328C0.889 14.286 1.015 14.265 1.197 14.265C1.561 14.265 1.82 14.202 1.974 14.076C2.128 13.95 2.212 13.803 2.226 13.635C2.254 13.467 2.268 13.201 2.268 12.837V8.028C2.268 7.664 2.254 7.398 2.226 7.23C2.212 7.062 2.128 6.915 1.974 6.789C1.82 6.663 1.561 6.6 1.197 6.6C1.029 6.6 0.903 6.579 0.819 6.537C0.735 6.481 0.693 6.362 0.693 6.18C0.693 6.096 0.721 6.019 0.777 5.949C0.833 5.865 0.917 5.816 1.029 5.802C1.911 5.676 2.667 5.494 3.297 5.256C3.493 5.186 3.654 5.144 3.78 5.13H3.843C4.067 5.13 4.179 5.263 4.179 5.529V12.837C4.179 13.201 4.193 13.467 4.221 13.635C4.249 13.803 4.34 13.95 4.494 14.076C4.648 14.202 4.907 14.265 5.271 14.265H5.397C5.509 14.265 5.593 14.286 5.649 14.328C5.705 14.37 5.74 14.475 5.754 14.643C5.754 14.755 5.726 14.853 5.67 14.937C5.614 15.021 5.53 15.063 5.418 15.063C4.606 15.021 3.871 15 3.213 15C2.583 15 1.855 15.021 1.029 15.063ZM3.108 2.799C2.716 2.799 2.387 2.68 2.121 2.442C1.855 2.19 1.722 1.882 1.722 1.518C1.722 1.196 1.883 0.909 2.205 0.656999C2.527 0.404999 2.891 0.278999 3.297 0.278999C3.647 0.278999 3.934 0.404999 4.158 0.656999C4.382 0.895 4.494 1.203 4.494 1.581C4.494 1.917 4.361 2.204 4.095 2.442C3.829 2.68 3.5 2.799 3.108 2.799ZM8.79687 8.616C8.40487 8.616 8.08287 8.497 7.83087 8.259C7.59287 8.021 7.47387 7.706 7.47387 7.314C7.47387 6.922 7.59987 6.607 7.85187 6.369C8.10387 6.117 8.42587 5.991 8.81787 5.991C9.20987 5.991 9.52487 6.117 9.76287 6.369C10.0149 6.607 10.1409 6.922 10.1409 7.314C10.1409 7.706 10.0149 8.021 9.76287 8.259C9.52487 8.497 9.20287 8.616 8.79687 8.616ZM8.79687 15.252C8.41887 15.252 8.10387 15.133 7.85187 14.895C7.59987 14.643 7.47387 14.314 7.47387 13.908C7.47387 13.544 7.59987 13.243 7.85187 13.005C8.10387 12.753 8.42587 12.627 8.81787 12.627C9.20987 12.627 9.53187 12.753 9.78387 13.005C10.0359 13.243 10.1619 13.544 10.1619 13.908C10.1619 14.314 10.0359 14.643 9.78387 14.895C9.53187 15.133 9.20287 15.252 8.79687 15.252Z" fill="black"/>
</svg>
