<svg width="15" height="22" viewBox="0 0 15 22" fill="none" xmlns="http://www.w3.org/2000/svg">
<mask id="path-1-outside-1_158_1171" maskUnits="userSpaceOnUse" x="0" y="0" width="15" height="22" fill="black">
<rect fill="white" width="15" height="22"/>
<path fill-rule="evenodd" clip-rule="evenodd" d="M1 3C1 1.89543 1.89543 1 3 1H12C13.1046 1 14 1.89543 14 3V19C14 20.1046 13.1046 21 12 21H3C1.89543 21 1 20.1046 1 19V3ZM4 18C4 17.4477 4.44772 17 5 17H10C10.5523 17 11 17.4477 11 18C11 18.5523 10.5523 19 10 19H5C4.44772 19 4 18.5523 4 18ZM7.5 3C6.67157 3 6 3.67157 6 4.5C6 5.32843 6.67157 6 7.5 6C8.32843 6 9 5.32843 9 4.5C9 3.67157 8.32843 3 7.5 3Z"/>
</mask>
<path d="M3 0C1.34315 0 0 1.34315 0 3H2C2 2.44772 2.44772 2 3 2V0ZM12 0H3V2H12V0ZM15 3C15 1.34315 13.6569 0 12 0V2C12.5523 2 13 2.44772 13 3H15ZM15 19V3H13V19H15ZM12 22C13.6569 22 15 20.6569 15 19H13C13 19.5523 12.5523 20 12 20V22ZM3 22H12V20H3V22ZM0 19C0 20.6569 1.34315 22 3 22V20C2.44771 20 2 19.5523 2 19H0ZM0 3V19H2V3H0ZM5 16C3.89543 16 3 16.8954 3 18H5V16ZM10 16H5V18H10V16ZM12 18C12 16.8954 11.1046 16 10 16V18H12ZM10 20C11.1046 20 12 19.1046 12 18H10V20ZM5 20H10V18H5V20ZM3 18C3 19.1046 3.89543 20 5 20V18H3ZM7 4.5C7 4.22386 7.22386 4 7.5 4V2C6.11929 2 5 3.11929 5 4.5H7ZM7.5 5C7.22386 5 7 4.77614 7 4.5H5C5 5.88071 6.11929 7 7.5 7V5ZM8 4.5C8 4.77614 7.77614 5 7.5 5V7C8.88071 7 10 5.88071 10 4.5H8ZM7.5 4C7.77614 4 8 4.22386 8 4.5H10C10 3.11929 8.88071 2 7.5 2V4Z" fill="black" mask="url(#path-1-outside-1_158_1171)"/>
</svg>
