<svg width="17" height="25" viewBox="0 0 17 25" fill="none" xmlns="http://www.w3.org/2000/svg">
<path fill-rule="evenodd" clip-rule="evenodd" d="M8.5 1.5C6.13732 1.5 4.2 3.46996 4.2 5.92857C4.2 8.38718 6.13732 10.3571 8.5 10.3571C10.8627 10.3571 12.8 8.38718 12.8 5.92857C12.8 3.46996 10.8627 1.5 8.5 1.5ZM3.2 5.92857C3.2 2.94275 5.56028 0.5 8.5 0.5C11.4397 0.5 13.8 2.94275 13.8 5.92857C13.8 8.91438 11.4397 11.3571 8.5 11.3571C5.56028 11.3571 3.2 8.91438 3.2 5.92857ZM5.3 16.2857C2.93775 16.2857 1 18.2563 1 20.7167V23.5H16V20.7167C16 18.2563 14.0623 16.2857 11.7 16.2857H5.3ZM0 20.7167C0 17.7295 2.36032 15.2857 5.3 15.2857H11.7C14.6397 15.2857 17 17.7295 17 20.7167V24.5H0V20.7167Z" fill="black"/>
</svg>
