<svg width="26" height="23" viewBox="0 0 26 23" fill="none" xmlns="http://www.w3.org/2000/svg">
<path fill-rule="evenodd" clip-rule="evenodd" d="M7.18465 1C4.20588 1 1.75 3.54276 1.75 6.73138C1.75 8.25909 2.32821 9.71962 3.35028 10.7928L13 20.925L22.6497 10.7928C23.6718 9.71962 24.25 8.25909 24.25 6.73138C24.25 3.54276 21.7941 1 18.8154 1C17.3821 1 16.0023 1.5976 14.981 2.66996L13.3621 4.36983C13.2677 4.46892 13.1368 4.525 13 4.525C12.8632 4.525 12.7323 4.46892 12.6379 4.36983L11.019 2.66996C9.99772 1.59761 8.61791 1 7.18465 1ZM0.75 6.73138C0.75 3.03701 3.60818 0 7.18465 0C8.89931 0 10.5385 0.715431 11.7431 1.9803L13 3.3L14.2569 1.9803C15.4615 0.71543 17.1007 0 18.8154 0C22.3918 0 25.25 3.03701 25.25 6.73138C25.25 8.50899 24.5777 10.2184 23.3738 11.4825L13.3621 21.9948C13.2677 22.0939 13.1368 22.15 13 22.15C12.8632 22.15 12.7323 22.0939 12.6379 21.9948L2.62614 11.4825C1.42229 10.2184 0.75 8.50899 0.75 6.73138Z" fill="black"/>
</svg>
