<svg width="18" height="25" viewBox="0 0 18 25" fill="none" xmlns="http://www.w3.org/2000/svg">
<path fill-rule="evenodd" clip-rule="evenodd" d="M9.06328 2.25C7.1246 2.25 5.48078 3.90291 5.48078 6.03393C5.48078 8.16494 7.1246 9.81785 9.06328 9.81785C11.002 9.81785 12.6458 8.16494 12.6458 6.03393C12.6458 3.90291 11.002 2.25 9.06328 2.25ZM3.48078 6.03393C3.48078 2.8803 5.93982 0.25 9.06328 0.25C12.1867 0.25 14.6458 2.8803 14.6458 6.03393C14.6458 9.18756 12.1867 11.8179 9.06328 11.8179C5.93982 11.8179 3.48078 9.18756 3.48078 6.03393ZM6.00828 16.6018C4.07021 16.6018 2.42578 18.2551 2.42578 20.388V22.575H15.7008V20.388C15.7008 18.2551 14.0564 16.6018 12.1183 16.6018H6.00828ZM0.425781 20.388C0.425781 17.2333 2.88466 14.6018 6.00828 14.6018H12.1183C15.2419 14.6018 17.7008 17.2333 17.7008 20.388V24.575H0.425781V20.388Z" fill="#295E21"/>
</svg>
