<svg width="23" height="23" viewBox="0 0 23 23" fill="none" xmlns="http://www.w3.org/2000/svg">
<path fill-rule="evenodd" clip-rule="evenodd" d="M16.5844 7.55301L12.5066 0.756685L13.364 0.242188L17.7505 7.55301H21.6926C22.1383 7.55301 22.4996 7.91429 22.4996 8.35998V9.02282C22.4996 13.4301 21.4735 17.7769 19.5025 21.7189C19.3705 21.9828 19.1008 22.1494 18.8058 22.1494H4.0434C3.74838 22.1494 3.47867 21.9828 3.34674 21.7189C1.37573 17.7769 0.349609 13.4301 0.349609 9.02282V8.35998C0.349609 7.91429 0.710907 7.55301 1.15659 7.55301H5.09866L9.48514 0.242189L10.3426 0.756684L6.26483 7.55301H16.5844ZM1.34961 8.55301V9.02282C1.34961 13.2294 2.31854 17.3788 4.18042 21.1494H18.6688C20.5307 17.3788 21.4996 13.2294 21.4996 9.02282V8.55301H1.34961Z" fill="black"/>
</svg>
