<svg width="23" height="22" viewBox="0 0 23 22" fill="none" xmlns="http://www.w3.org/2000/svg">
<path fill-rule="evenodd" clip-rule="evenodd" d="M15.6278 6.80877L12.0962 1.05214L13.8891 0L18.0662 6.80877H21.651C22.3958 6.80877 23 7.39924 23 8.12806V8.76897C23 13.114 21.9657 17.3994 19.9788 21.2857C19.755 21.7235 19.2975 22 18.7972 22H4.20287C3.70245 22 3.24497 21.7235 3.02119 21.2857C1.03436 17.3994 0 13.114 0 8.76897V8.12806C0 7.39944 0.60394 6.80877 1.34893 6.80877H4.93241L9.10945 5.11938e-06L10.9024 1.05214L7.37081 6.80877H15.6278ZM2.09105 8.85374C2.10389 12.6978 2.99 16.4895 4.68332 19.955H18.3167C20.01 16.4895 20.8961 12.6978 20.9089 8.85374H2.09105Z" fill="#295E21"/>
</svg>
