<svg width="26" height="22" viewBox="0 0 26 22" fill="none" xmlns="http://www.w3.org/2000/svg">
<path fill-rule="evenodd" clip-rule="evenodd" d="M9.06236 2C7.62077 2 6.2848 2.73676 5.54274 3.94102L2.05263 9.60499V19.3333C2.05263 19.7015 2.35897 20 2.73684 20H4.44737C4.82524 20 5.13158 19.7015 5.13158 19.3333V16.6667H20.8684V19.3333C20.8684 19.7015 21.1748 20 21.5526 20H23.2632C23.641 20 23.9474 19.7015 23.9474 19.3333V9.60498L20.4573 3.94106C19.7152 2.73675 18.3792 2 16.9376 2H9.06236ZM3.78293 2.91153C4.89602 1.10515 6.89996 0 9.06236 0H16.9376C19.1 0 21.1039 1.10516 22.2171 2.91149L26 9.05071V19.3333C26 20.8061 24.7746 22 23.2632 22H21.5526C20.0411 22 18.8158 20.8061 18.8158 19.3333V18.6667H7.18421V19.3333C7.18421 20.806 5.9589 22 4.44737 22H2.73684C1.22531 22 0 20.806 0 19.3333V9.0507L3.78293 2.91153ZM20.6974 10.3346H5.30263V8.33457H20.6974V10.3346ZM8.72368 15.3346H3.59211V13.3346H8.72368V15.3346ZM17.2763 13.3346H22.4079V15.3346H17.2763V13.3346Z" fill="#295E21"/>
</svg>
