<svg width="52" height="43" viewBox="0 0 52 43" fill="none" xmlns="http://www.w3.org/2000/svg">
<path fill-rule="evenodd" clip-rule="evenodd" d="M10.1571 0C14.3992 0 17.8387 3.4278 17.8387 7.65455C17.8387 11.8823 14.3992 15.3091 10.1571 15.3091C5.91591 15.3091 2.47642 11.8823 2.47642 7.65455C2.47742 3.4278 5.91591 0 10.1571 0ZM41.8429 0C46.0851 0 49.5215 3.4278 49.5215 7.65455C49.5215 11.8823 46.0841 15.3091 41.8429 15.3091C37.5997 15.3091 34.1622 11.8823 34.1622 7.65455C34.1622 3.4278 37.6007 0 41.8429 0ZM26 43C15.2932 43 5.46841 37.1663 0.361357 27.7789C-0.424267 26.334 0.113529 24.5291 1.56337 23.7471C3.01422 22.9652 4.82426 23.5011 5.60788 24.9451C9.67245 32.4126 17.4855 37.0533 26 37.0533C34.5144 37.0533 42.3275 32.4126 46.3931 24.9441C47.1767 23.5001 48.9908 22.9652 50.4376 23.7481C51.8864 24.5311 52.4242 26.337 51.6386 27.7789C46.5306 37.1673 36.7067 43 26 43Z" fill="#BCCBBC"/>
</svg>
