<svg width="28" height="27" viewBox="0 0 28 27" fill="none" xmlns="http://www.w3.org/2000/svg">
<mask id="path-1-inside-1_158_2582" fill="white">
<path fill-rule="evenodd" clip-rule="evenodd" d="M14 0C19.7167 0 24.325 4.55 24.5 10.2083C26.5417 10.9083 28 12.8917 28 15.1667C28 17.6167 25.2696 19.0167 23.0529 19.6C21.7696 24.0917 18.7833 26.738 14 26.738C9.21667 26.738 6.33338 24.0917 5.05005 19.6C2.83338 19.0167 0 17.6167 0 15.1667C0 12.8917 1.45833 10.9083 3.5 10.2083C3.675 4.55 8.28333 0 14 0ZM6.53333 13.3C6.06667 14.35 5.83333 16.1 5.83333 17.2667C5.83333 21.875 9.50833 25.6667 14 25.6667C17.5583 25.6667 20.5333 23.3333 21.6417 20.125C20.1833 21 18.3167 21.2917 16.2167 21.35C16.1 21.7 15.8083 22.1667 15.4 22.1667H12.4833C12.0167 22.1667 11.6667 21.8167 11.6667 21.35V19.6C11.6667 19.1333 12.0167 18.6667 12.4833 18.6667H15.4C15.6942 18.6667 15.9884 19.4911 16.1441 19.9272C16.1736 20.0098 16.1981 20.0785 16.2167 20.125C20.4436 20.125 21.7702 18.9292 22.1202 17.4708C22.0619 16.5375 21.7583 14.35 21.525 13.5917C21.4592 13.6246 21.3191 13.6204 20.9896 13.6104C20.735 13.6027 20.3673 13.5917 19.8333 13.5917C16.275 13.5917 13.0667 11.8417 11.025 9.275C10.0333 10.85 8.51667 12.075 6.76667 12.775C6.7375 12.8625 6.69375 12.95 6.65 13.0375C6.60625 13.125 6.5625 13.2125 6.53333 13.3Z"/>
</mask>
<path d="M24.5 10.2083L23.2006 10.2485L23.2284 11.1466L24.0784 11.4381L24.5 10.2083ZM23.0529 19.6L22.7221 18.3428L22.0063 18.5312L21.803 19.2429L23.0529 19.6ZM5.05005 19.6L6.30003 19.2429L6.09669 18.5312L5.38089 18.3428L5.05005 19.6ZM3.5 10.2083L3.92162 11.4381L4.7716 11.1466L4.79938 10.2485L3.5 10.2083ZM6.53333 13.3L7.72129 13.828L7.74678 13.7706L7.76662 13.7111L6.53333 13.3ZM21.6417 20.125L22.8704 20.5495L24.0373 17.1716L20.9728 19.0103L21.6417 20.125ZM16.2167 21.35L16.1806 20.0505L15.2711 20.0758L14.9834 20.9389L16.2167 21.35ZM16.1441 19.9272L14.9197 20.3641L14.9197 20.3641L16.1441 19.9272ZM16.2167 20.125L15.0096 20.6078L15.3365 21.425H16.2167V20.125ZM22.1202 17.4708L23.3843 17.7742L23.4298 17.5845L23.4177 17.3897L22.1202 17.4708ZM21.525 13.5917L22.7675 13.2094L22.3162 11.7426L20.9436 12.4289L21.525 13.5917ZM20.9896 13.6104L20.9504 14.9098L20.9896 13.6104ZM11.025 9.275L12.0424 8.46572L10.9014 7.03138L9.9249 8.58234L11.025 9.275ZM6.76667 12.775L6.28386 11.568L5.72404 11.7919L5.53338 12.3639L6.76667 12.775ZM6.65 13.0375L5.48725 12.4561L5.48724 12.4561L6.65 13.0375ZM25.7994 10.1681C25.6029 3.81687 20.428 -1.3 14 -1.3V1.3C19.0053 1.3 23.0471 5.28313 23.2006 10.2485L25.7994 10.1681ZM29.3 15.1667C29.3 12.3362 27.4887 9.85876 24.9216 8.9786L24.0784 11.4381C25.5946 11.9579 26.7 13.4471 26.7 15.1667H29.3ZM23.3838 20.8572C24.5892 20.54 26.0022 19.9862 27.1442 19.1184C28.2954 18.2437 29.3 16.9392 29.3 15.1667H26.7C26.7 15.8442 26.3394 16.4646 25.5712 17.0482C24.7939 17.6388 23.7334 18.0767 22.7221 18.3428L23.3838 20.8572ZM14 28.038C16.6427 28.038 18.8878 27.3016 20.6589 25.8622C22.4194 24.4314 23.6075 22.3911 24.3029 19.9571L21.803 19.2429C21.215 21.3006 20.2684 22.8292 19.0191 23.8445C17.7803 24.8513 16.1406 25.438 14 25.438V28.038ZM3.80007 19.9571C4.49232 22.38 5.64945 24.4209 7.38412 25.8553C9.13224 27.3007 11.356 28.038 14 28.038V25.438C11.8606 25.438 10.2511 24.8522 9.04093 23.8515C7.81729 22.8397 6.89111 21.3116 6.30003 19.2429L3.80007 19.9571ZM-1.3 15.1667C-1.3 16.9588 -0.247905 18.2638 0.920513 19.1284C2.0852 19.9902 3.519 20.5414 4.71921 20.8572L5.38089 18.3428C4.36443 18.0753 3.27321 17.6348 2.46704 17.0383C1.6646 16.4445 1.3 15.8245 1.3 15.1667H-1.3ZM3.07838 8.9786C0.511264 9.85876 -1.3 12.3362 -1.3 15.1667H1.3C1.3 13.4471 2.4054 11.9579 3.92162 11.4381L3.07838 8.9786ZM14 -1.3C7.572 -1.3 2.39705 3.81687 2.20062 10.1681L4.79938 10.2485C4.95295 5.28313 8.99467 1.3 14 1.3V-1.3ZM7.13333 17.2667C7.13333 16.1888 7.35872 14.6438 7.72129 13.828L5.34538 12.772C4.77462 14.0562 4.53333 16.0112 4.53333 17.2667H7.13333ZM14 24.3667C10.2617 24.3667 7.13333 21.193 7.13333 17.2667H4.53333C4.53333 22.557 8.75493 26.9667 14 26.9667V24.3667ZM20.4129 19.7005C19.4721 22.4239 16.9638 24.3667 14 24.3667V26.9667C18.1528 26.9667 21.5945 24.2428 22.8704 20.5495L20.4129 19.7005ZM16.2528 22.6495C18.4133 22.5895 20.5576 22.2915 22.3105 21.2397L20.9728 19.0103C19.809 19.7085 18.22 19.9939 16.1806 20.0505L16.2528 22.6495ZM15.4 23.4667C16.1329 23.4667 16.6356 23.0472 16.9016 22.7393C17.1756 22.422 17.3512 22.0573 17.45 21.7611L14.9834 20.9389C14.9773 20.9573 14.9666 20.983 14.953 21.0083C14.939 21.0343 14.9303 21.0439 14.9338 21.0399C14.936 21.0374 14.9685 20.9993 15.041 20.9581C15.1203 20.9131 15.2447 20.8667 15.4 20.8667V23.4667ZM12.4833 23.4667H15.4V20.8667H12.4833V23.4667ZM10.3667 21.35C10.3667 22.5346 11.2987 23.4667 12.4833 23.4667V20.8667C12.5838 20.8667 12.7136 20.9085 12.8192 21.0141C12.9249 21.1197 12.9667 21.2496 12.9667 21.35H10.3667ZM10.3667 19.6V21.35H12.9667V19.6H10.3667ZM12.4833 17.3667C11.7903 17.3667 11.2426 17.7165 10.9013 18.1261C10.5656 18.5289 10.3667 19.0551 10.3667 19.6H12.9667C12.9667 19.6783 12.9427 19.7377 12.8987 19.7906C12.8491 19.8501 12.7097 19.9667 12.4833 19.9667V17.3667ZM15.4 17.3667H12.4833V19.9667H15.4V17.3667ZM17.3684 19.4902C17.2956 19.2862 17.1581 18.8961 16.9877 18.5539C16.9048 18.3875 16.7808 18.1627 16.6096 17.961C16.4841 17.8132 16.0767 17.3667 15.4 17.3667V19.9667C15.1238 19.9667 14.9198 19.8687 14.8086 19.7975C14.7016 19.7289 14.6432 19.6622 14.6274 19.6436C14.599 19.6101 14.6134 19.6187 14.6603 19.7129C14.7495 19.8919 14.8369 20.1321 14.9197 20.3641L17.3684 19.4902ZM17.4237 19.6422C17.4165 19.6242 17.4018 19.5838 17.3684 19.4902L14.9197 20.3641C14.9453 20.4358 14.9797 20.5329 15.0096 20.6078L17.4237 19.6422ZM20.8561 17.1674C20.7628 17.5563 20.5675 17.9011 20.0112 18.1973C19.3794 18.5338 18.2381 18.825 16.2167 18.825V21.425C18.4221 21.425 20.0576 21.1183 21.2333 20.4923C22.4846 19.8259 23.1276 18.8437 23.3843 17.7742L20.8561 17.1674ZM20.2825 13.974C20.3662 14.2461 20.4888 14.89 20.6023 15.6561C20.7122 16.3984 20.7968 17.1378 20.8227 17.5519L23.4177 17.3897C23.3852 16.8705 23.2889 16.0495 23.1742 15.2751C23.063 14.5246 22.9171 13.6955 22.7675 13.2094L20.2825 13.974ZM20.9504 14.9098C21.0989 14.9143 21.2577 14.9195 21.3841 14.9168C21.4553 14.9153 21.782 14.9166 22.1064 14.7544L20.9436 12.4289C21.0225 12.3895 21.0928 12.3654 21.1463 12.3504C21.1993 12.3356 21.2423 12.3279 21.2695 12.3239C21.297 12.3198 21.3165 12.3183 21.3243 12.3177C21.3324 12.3172 21.3345 12.3173 21.3282 12.3174C21.3137 12.3177 21.2849 12.3177 21.2305 12.3166C21.177 12.3155 21.113 12.3135 21.0287 12.311L20.9504 14.9098ZM19.8333 14.8917C20.3476 14.8917 20.6999 14.9023 20.9504 14.9098L21.0287 12.311C20.7701 12.3032 20.387 12.2917 19.8333 12.2917V14.8917ZM10.0076 10.0843C12.2738 12.9332 15.8446 14.8917 19.8333 14.8917V12.2917C16.7054 12.2917 13.8595 10.7501 12.0424 8.46572L10.0076 10.0843ZM7.24947 13.982C9.23902 13.1862 10.9786 11.7886 12.1251 9.96766L9.9249 8.58234C9.0881 9.91138 7.79431 10.9638 6.28386 11.568L7.24947 13.982ZM7.81275 13.6189C7.84771 13.549 7.93628 13.3771 7.99996 13.1861L5.53338 12.3639C5.53864 12.3481 5.54057 12.3459 5.53202 12.3646C5.52271 12.3849 5.51088 12.4088 5.48725 12.4561L7.81275 13.6189ZM7.76662 13.7111C7.76136 13.7269 7.75943 13.7291 7.76798 13.7104C7.77729 13.6901 7.78912 13.6662 7.81276 13.6189L5.48724 12.4561C5.45229 12.526 5.36372 12.6979 5.30005 12.8889L7.76662 13.7111Z" fill="black" mask="url(#path-1-inside-1_158_2582)"/>
</svg>
