<svg width="27" height="22" viewBox="0 0 27 22" fill="none" xmlns="http://www.w3.org/2000/svg">
<path d="M26 3.5L26.4596 3.95962L26.9192 3.5L26.4596 3.04038L26 3.5ZM23.5 1L23.9596 0.540381L23.5 0.0807612L23.0404 0.540381L23.5 1ZM23.5 6L23.0404 5.54038L22.5808 6L23.0404 6.45962L23.5 6ZM26 8.5L26.4596 8.95962L26.9192 8.5L26.4596 8.04038L26 8.5ZM23.5 11L23.0404 10.5404L22.5808 11L23.0404 11.4596L23.5 11ZM26 13.5L26.4596 13.9596L26.9192 13.5L26.4596 13.0404L26 13.5ZM23.5 16L23.0404 15.5404L22.5808 16L23.0404 16.4596L23.5 16ZM26 18.5L26.4596 18.9596L26.9192 18.5L26.4596 18.0404L26 18.5ZM23.5 21L23.0404 21.4596L23.5 21.9192L23.9596 21.4596L23.5 21ZM21 18.5L21.4596 18.0404L21 17.5808L20.5404 18.0404L21 18.5ZM18.5 21L18.0404 21.4596L18.5 21.9192L18.9596 21.4596L18.5 21ZM16 18.5L16.4596 18.0404L16 17.5808L15.5404 18.0404L16 18.5ZM13.5 21L13.0404 21.4596L13.5 21.9192L13.9596 21.4596L13.5 21ZM11 18.5L11.4596 18.0404L11 17.5808L10.5404 18.0404L11 18.5ZM8.5 21L8.04038 21.4596L8.5 21.9192L8.95962 21.4596L8.5 21ZM6 18.5L6.45962 18.0404L6 17.5808L5.54038 18.0404L6 18.5ZM3.5 21L3.04038 21.4596L3.5 21.9192L3.95962 21.4596L3.5 21ZM1 18.5L0.540381 18.0404L0.0807612 18.5L0.540381 18.9596L1 18.5ZM3.5 16L3.95962 16.4596L4.41924 16L3.95962 15.5404L3.5 16ZM1 13.5L0.540381 13.0404L0.0807612 13.5L0.540381 13.9596L1 13.5ZM3.5 11L3.95962 11.4596L4.41924 11L3.95962 10.5404L3.5 11ZM1 8.5L0.540381 8.04038L0.0807612 8.5L0.540381 8.95962L1 8.5ZM3.5 6L3.95962 6.45962L4.41924 6L3.95962 5.54038L3.5 6ZM1 3.5L0.540381 3.04038L0.0807612 3.5L0.540381 3.95962L1 3.5ZM3.5 1L3.95962 0.540381L3.5 0.0807612L3.04038 0.540381L3.5 1ZM6 3.5L5.54038 3.95962L6 4.41924L6.45962 3.95962L6 3.5ZM8.5 1L8.95962 0.540381L8.5 0.0807612L8.04038 0.540381L8.5 1ZM11 3.5L10.5404 3.95962L11 4.41924L11.4596 3.95962L11 3.5ZM13.5 1L13.9596 0.540381L13.5 0.0807612L13.0404 0.540381L13.5 1ZM16 3.5L15.5404 3.95962L16 4.41924L16.4596 3.95962L16 3.5ZM18.5 1L18.9596 0.540381L18.5 0.0807612L18.0404 0.540381L18.5 1ZM21 3.5L20.5404 3.95962L21 4.41924L21.4596 3.95962L21 3.5ZM13.5 14.75L13.0839 15.2493L13.5 15.5961L13.9161 15.2493L13.5 14.75ZM6 8.5H5.35V8.80444L5.58388 8.99934L6 8.5ZM21 8.5L21.4161 8.99934L21.65 8.80444V8.5H21ZM21 6H21.65V5.35H21V6ZM6 6V5.35H5.35V6H6ZM26.4596 3.04038L23.9596 0.540381L23.0404 1.45962L25.5404 3.95962L26.4596 3.04038ZM23.9596 6.45962L26.4596 3.95962L25.5404 3.04038L23.0404 5.54038L23.9596 6.45962ZM26.4596 8.04038L23.9596 5.54038L23.0404 6.45962L25.5404 8.95962L26.4596 8.04038ZM23.9596 11.4596L26.4596 8.95962L25.5404 8.04038L23.0404 10.5404L23.9596 11.4596ZM26.4596 13.0404L23.9596 10.5404L23.0404 11.4596L25.5404 13.9596L26.4596 13.0404ZM23.9596 16.4596L26.4596 13.9596L25.5404 13.0404L23.0404 15.5404L23.9596 16.4596ZM26.4596 18.0404L23.9596 15.5404L23.0404 16.4596L25.5404 18.9596L26.4596 18.0404ZM23.9596 21.4596L26.4596 18.9596L25.5404 18.0404L23.0404 20.5404L23.9596 21.4596ZM20.5404 18.9596L23.0404 21.4596L23.9596 20.5404L21.4596 18.0404L20.5404 18.9596ZM18.9596 21.4596L21.4596 18.9596L20.5404 18.0404L18.0404 20.5404L18.9596 21.4596ZM15.5404 18.9596L18.0404 21.4596L18.9596 20.5404L16.4596 18.0404L15.5404 18.9596ZM13.9596 21.4596L16.4596 18.9596L15.5404 18.0404L13.0404 20.5404L13.9596 21.4596ZM10.5404 18.9596L13.0404 21.4596L13.9596 20.5404L11.4596 18.0404L10.5404 18.9596ZM8.95962 21.4596L11.4596 18.9596L10.5404 18.0404L8.04038 20.5404L8.95962 21.4596ZM5.54038 18.9596L8.04038 21.4596L8.95962 20.5404L6.45962 18.0404L5.54038 18.9596ZM3.95962 21.4596L6.45962 18.9596L5.54038 18.0404L3.04038 20.5404L3.95962 21.4596ZM0.540381 18.9596L3.04038 21.4596L3.95962 20.5404L1.45962 18.0404L0.540381 18.9596ZM3.04038 15.5404L0.540381 18.0404L1.45962 18.9596L3.95962 16.4596L3.04038 15.5404ZM0.540381 13.9596L3.04038 16.4596L3.95962 15.5404L1.45962 13.0404L0.540381 13.9596ZM3.04038 10.5404L0.540381 13.0404L1.45962 13.9596L3.95962 11.4596L3.04038 10.5404ZM0.540381 8.95962L3.04038 11.4596L3.95962 10.5404L1.45962 8.04038L0.540381 8.95962ZM3.04038 5.54038L0.540381 8.04038L1.45962 8.95962L3.95962 6.45962L3.04038 5.54038ZM0.540381 3.95962L3.04038 6.45962L3.95962 5.54038L1.45962 3.04038L0.540381 3.95962ZM3.04038 0.540381L0.540381 3.04038L1.45962 3.95962L3.95962 1.45962L3.04038 0.540381ZM6.45962 3.04038L3.95962 0.540381L3.04038 1.45962L5.54038 3.95962L6.45962 3.04038ZM8.04038 0.540381L5.54038 3.04038L6.45962 3.95962L8.95962 1.45962L8.04038 0.540381ZM11.4596 3.04038L8.95962 0.540381L8.04038 1.45962L10.5404 3.95962L11.4596 3.04038ZM13.0404 0.540381L10.5404 3.04038L11.4596 3.95962L13.9596 1.45962L13.0404 0.540381ZM16.4596 3.04038L13.9596 0.540381L13.0404 1.45962L15.5404 3.95962L16.4596 3.04038ZM18.0404 0.540381L15.5404 3.04038L16.4596 3.95962L18.9596 1.45962L18.0404 0.540381ZM21.4596 3.04038L18.9596 0.540381L18.0404 1.45962L20.5404 3.95962L21.4596 3.04038ZM23.0404 0.540381L20.5404 3.04038L21.4596 3.95962L23.9596 1.45962L23.0404 0.540381ZM13.9161 14.2507L6.41612 8.00066L5.58388 8.99934L13.0839 15.2493L13.9161 14.2507ZM20.5839 8.00066L13.0839 14.2507L13.9161 15.2493L21.4161 8.99934L20.5839 8.00066ZM20.35 6V8.5H21.65V6H20.35ZM13.5 6.65H21V5.35H13.5V6.65ZM6 6.65H13.5V5.35H6V6.65ZM6.65 8.5V6H5.35V8.5H6.65Z" fill="black"/>
</svg>
