<svg width="52" height="17" viewBox="0 0 52 17" fill="none" xmlns="http://www.w3.org/2000/svg">
<path fill-rule="evenodd" clip-rule="evenodd" d="M15.5676 0.105263L11.1351 10.9474L9.2973 1.68421C9.08108 0.631579 8.21622 0.105263 7.35135 0.105263H0.108108L0 0.526316C1.51351 0.842105 3.13514 1.36842 4.21622 1.89474C4.86486 2.21053 4.97297 2.52632 5.18919 3.26316L8.54054 16H13.0811L20 0H15.5676V0.105263ZM21.2083 0L18 16H21.8889L25 0H21.2083ZM45.1429 0H48.7857L52 16H48.1429L47.6071 13.5789H42.25L41.3929 16H37L43.3214 1.15789C43.6429 0.421053 44.2857 0 45.1429 0ZM43.6429 10.3158L45.8929 4.31579L47.1786 10.3158H43.6429ZM33.0167 3.48718C31.7167 3.70513 31.175 4.35897 31.175 4.90385C31.1305 5.71035 32.1298 6.24052 33.3222 6.87309C35.0298 7.77901 37.1333 8.89494 37.1333 11.3333C37.1333 14.8205 34.2083 17 29.7667 17C27.8167 17 25.975 16.5641 25 16.1282L25.7583 12.5321C26.7333 13.0769 27.925 13.6218 30.0917 13.6218C31.3917 13.6218 32.6917 13.0769 32.6917 11.9872C32.6917 11.2244 32.15 10.6795 30.525 9.91667C29.0083 9.15385 26.8417 7.84615 26.8417 5.44872C26.8417 2.28846 29.7667 0 33.9917 0C35.6167 0 37.025 0.435897 38 0.762821L37.2417 4.25C35.2917 3.37821 33.6667 3.37821 33.0167 3.48718Z" fill="#AEAEAE"/>
</svg>
