<svg width="58" height="16" viewBox="0 0 58 16" fill="none" xmlns="http://www.w3.org/2000/svg">
<path fill-rule="evenodd" clip-rule="evenodd" d="M23 0.022151H27.7816V9.56535C28.0019 9.64332 28.1196 9.59894 28.2184 9.39637C29.4743 6.82091 30.7353 4.24789 32.0032 1.67837C32.5043 0.663012 33.341 0.0726172 34.466 0.030258C35.5067 -0.00891768 36.5492 -0.00149815 37.5916 0.00592144C38.0309 0.00904823 38.4702 0.012175 38.9094 0.0118145C38.9249 0.0118145 38.9404 0.0160484 38.9609 0.021637L38.9609 0.0216419C38.9721 0.0247197 38.9849 0.028208 39 0.0316261V15.9867H34.2163V6.43639C33.7541 6.35633 33.7471 6.35871 33.5745 6.7102C33.2651 7.34045 32.955 7.97041 32.645 8.60037L32.6438 8.60273C31.7373 10.4446 30.8307 12.2865 29.9394 14.1357L29.9005 14.2165C29.6665 14.7039 29.44 15.1756 28.972 15.4928C28.5344 15.789 28.0565 15.9802 27.5302 15.9863C26.4442 15.9987 25.358 15.9989 24.2718 15.9992C23.8851 15.9993 23.4985 15.9994 23.1118 16C23.0908 16 23.0697 15.9959 23.0443 15.9909L23.0442 15.9909C23.0309 15.9883 23.0163 15.9855 23 15.9829V0.022151ZM19 15.9745V0.0224564C18.9809 0.0192191 18.9646 0.015882 18.9501 0.0129162C18.9233 0.00743252 18.9027 0.00321809 18.8821 0.00325098C18.438 0.00354502 17.9938 0.00294533 17.5496 0.00234564C16.3862 0.000775026 15.2228 -0.0007956 14.0596 0.0136898C13.3262 0.0228111 12.7279 0.356752 12.2597 0.92891C11.905 1.36248 11.7596 1.88416 11.6134 2.40865L11.597 2.46747C10.965 4.72863 10.3291 6.98864 9.69051 9.24793C9.67082 9.31755 9.61761 9.40669 9.55893 9.42812C9.49508 9.45148 9.37435 9.43263 9.33627 9.3851C9.29301 9.33096 9.27563 9.25515 9.25841 9.18005L9.25841 9.18005C9.25239 9.15379 9.24639 9.12762 9.23931 9.10249C9.02347 8.33568 8.80802 7.56874 8.59257 6.8018L8.59193 6.7995C8.14069 5.19322 7.68945 3.58695 7.23469 1.98171C6.86799 0.687347 5.96683 0.00451782 4.63543 0.00162942C3.62197 -0.000591415 2.60848 -6.57143e-05 1.59498 0.00045999C1.15158 0.000689986 0.708171 0.000919984 0.264764 0.000919984H0V15.9759H4.73083V6.57944C4.96731 6.51271 5.0598 6.587 5.1223 6.80814C5.57757 8.41833 6.03667 10.0274 6.49577 11.6365C6.88852 13.013 7.28127 14.3895 7.67162 15.7668C7.72297 15.9478 7.79742 16.0017 7.97919 16C8.68775 15.9933 9.39636 15.9942 10.105 15.9951H10.1052C10.3511 15.9954 10.5969 15.9958 10.8427 15.9958L11.0782 15.9958L13.7709 6.57377H14.2571V15.9745H19ZM55.0462 10.3519C55.918 9.78242 56.566 9.01586 57 8H42V16H46.6846V11.2003H47.011C47.5065 11.2003 48.0021 11.2001 48.4977 11.1999C49.6613 11.1994 50.8249 11.1989 51.9885 11.2011C53.0838 11.2032 54.1133 10.9613 55.0462 10.3519ZM40.2862 0.00681892H40.0144C40.0111 0.0222889 40.008 0.0341406 40.0055 0.0436562C40.0014 0.0592792 39.9989 0.0686049 40.0005 0.0773072C40.0102 0.131894 40.0205 0.186623 40.0354 0.240166C40.4198 1.62064 41.166 2.80988 42.2892 3.78679C44.0176 5.29002 46.0986 5.98551 48.4549 5.99419C50.5775 6.00203 52.7001 6.00025 54.8227 5.99847C55.7354 5.99771 56.648 5.99694 57.5607 5.99694H57.8031C58.1593 5.03209 58.0062 4.10933 57.5523 3.24244C56.4237 1.08702 54.505 0.0307897 51.9385 0.0136067C49.2126 -0.00461625 46.4866 -0.000603416 43.7605 0.00340945C42.6024 0.00511418 41.4443 0.00681892 40.2862 0.00681892Z" fill="#AEAEAE"/>
</svg>
