<svg width="80" height="81" viewBox="0 0 80 81" fill="none" xmlns="http://www.w3.org/2000/svg">
<path fill-rule="evenodd" clip-rule="evenodd" d="M70.9985 27.3862C73.4111 22.2227 72.3716 16.0293 68.2842 11.9424C64.1973 7.85547 58.0034 6.81445 52.8403 9.22803C50.8955 3.87061 45.7803 0.226562 40 0.226562C34.2197 0.226562 29.1045 3.87061 27.1597 9.22803C21.9961 6.81445 15.8027 7.85645 11.7158 11.9424C7.62842 16.0293 6.58838 22.2227 9.00146 27.3862C3.64404 29.3311 0 34.4463 0 40.2266C0 46.0068 3.64404 51.1221 9.00146 53.0669C6.58838 58.2305 7.62842 64.4238 11.7158 68.5107C15.8018 72.5972 21.9956 73.6377 27.1597 71.2251C29.105 76.5825 34.2197 80.2266 40 80.2266C45.7803 80.2266 50.895 76.5825 52.8403 71.2251C58.0044 73.6387 64.1978 72.5981 68.2842 68.5107C72.3716 64.4238 73.4111 58.2305 70.9985 53.0669C76.356 51.1216 80 46.0068 80 40.2266C80 34.4463 76.356 29.3315 70.9985 27.3862ZM69.3037 51.5034C69.0015 51.583 68.7544 51.7988 68.6348 52.0874C68.5151 52.376 68.5371 52.7036 68.6948 52.9736C71.3604 57.5488 70.6104 63.3564 66.8701 67.0967C63.1294 70.8379 57.3218 71.5859 52.7471 68.9214C52.4771 68.7637 52.1494 68.7417 51.8608 68.8613C51.5723 68.981 51.3564 69.228 51.2769 69.5303C49.9268 74.6504 45.2896 78.2266 40 78.2266C34.7104 78.2266 30.0732 74.6504 28.7231 69.5303C28.6436 69.228 28.4277 68.981 28.1392 68.8613C28.0161 68.8105 27.8862 68.7852 27.7563 68.7852C27.5815 68.7852 27.4077 68.8311 27.2529 68.9214C22.6772 71.5864 16.8711 70.8369 13.1299 67.0967C9.38965 63.3564 8.63965 57.5488 11.3052 52.9736C11.4629 52.7036 11.4849 52.376 11.3652 52.0874C11.2456 51.7988 10.998 51.583 10.6963 51.5034C5.57617 50.1533 2 45.5166 2 40.2266C2 34.9365 5.57617 30.2998 10.6963 28.9497C10.998 28.8701 11.2456 28.6543 11.3652 28.3657C11.4849 28.0771 11.4629 27.7495 11.3052 27.4795C8.63965 22.9043 9.38965 17.0967 13.1299 13.3564C16.8706 9.61572 22.6787 8.8667 27.2529 11.5317C27.5225 11.6895 27.8511 11.7104 28.1392 11.5918C28.4277 11.4722 28.6436 11.2246 28.7231 10.9229C30.0732 5.80273 34.71 2.22656 40 2.22656C45.29 2.22656 49.9268 5.80273 51.2769 10.9229C51.3564 11.2246 51.5723 11.4722 51.8608 11.5918C52.1494 11.7104 52.4771 11.6895 52.7471 11.5317C57.3203 8.86523 63.1289 9.61621 66.8701 13.3564C70.6104 17.0967 71.3604 22.9043 68.6948 27.4795C68.5371 27.7495 68.5151 28.0771 68.6348 28.3657C68.7544 28.6543 69.0015 28.8701 69.3037 28.9497C74.4238 30.2998 78 34.937 78 40.2266C78 45.5161 74.4238 50.1533 69.3037 51.5034ZM40 28.1479C33.3398 28.1479 27.9214 33.5664 27.9214 40.2266C27.9214 46.8867 33.3398 52.3052 40 52.3052C46.6602 52.3052 52.0786 46.8867 52.0786 40.2266C52.0786 33.5664 46.6602 28.1479 40 28.1479ZM40 50.3052C34.4429 50.3052 29.9214 45.7837 29.9214 40.2266C29.9214 34.6694 34.4429 30.1479 40 30.1479C45.5571 30.1479 50.0786 34.6694 50.0786 40.2266C50.0786 45.7837 45.5571 50.3052 40 50.3052ZM34.251 14.6196C34.8032 14.6196 35.251 14.1719 35.251 13.6196C35.251 11.0024 37.3799 8.87305 39.9971 8.87305C42.6143 8.87305 44.7437 11.0024 44.7437 13.6196C44.7437 14.1719 45.1914 14.6196 45.7437 14.6196C46.2959 14.6196 46.7437 14.1719 46.7437 13.6196C46.7437 9.89941 43.7173 6.87305 39.9971 6.87305C36.2773 6.87305 33.251 9.89941 33.251 13.6196C33.251 14.1719 33.6987 14.6196 34.251 14.6196ZM34.5103 22.1831C34.5103 19.1572 36.9717 16.6958 39.9971 16.6958C43.0229 16.6958 45.4844 19.1572 45.4844 22.1831C45.4844 22.7354 45.0366 23.1831 44.4844 23.1831C43.9321 23.1831 43.4844 22.7354 43.4844 22.1831C43.4844 20.2603 41.9199 18.6958 39.9971 18.6958C38.0742 18.6958 36.5103 20.2603 36.5103 22.1831C36.5103 22.7354 36.0625 23.1831 35.5103 23.1831C34.958 23.1831 34.5103 22.7354 34.5103 22.1831ZM23.3594 31.3496C23.5547 31.5449 23.8105 31.6426 24.0664 31.6426C24.3223 31.6426 24.5781 31.5449 24.7734 31.3496C25.1641 30.959 25.1641 30.3262 24.7734 29.9355C23.4141 28.5757 23.4141 26.3638 24.7734 25.0039C26.1328 23.6445 28.3457 23.6445 29.7051 25.0039C30.0957 25.3945 30.7285 25.3945 31.1191 25.0039C31.5098 24.6133 31.5098 23.9805 31.1191 23.5898C28.9795 21.4502 25.499 21.4502 23.3594 23.5898C21.2197 25.729 21.2197 29.2104 23.3594 31.3496ZM22.9565 35.7422C22.9565 36.2944 22.5088 36.7422 21.9565 36.7422C20.0337 36.7422 18.4692 38.3066 18.4692 40.2295C18.4692 42.1523 20.0337 43.7163 21.9565 43.7163C22.5088 43.7163 22.9565 44.1641 22.9565 44.7163C22.9565 45.2686 22.5088 45.7163 21.9565 45.7163C18.9307 45.7163 16.4692 43.2549 16.4692 40.2295C16.4692 37.2036 18.9307 34.7422 21.9565 34.7422C22.5088 34.7422 22.9565 35.1899 22.9565 35.7422ZM29.709 55.4531C28.3496 56.8125 26.1367 56.8125 24.7773 55.4531C23.418 54.0933 23.418 51.8813 24.7773 50.5215C25.168 50.1309 25.168 49.498 24.7773 49.1074C24.3867 48.7168 23.7539 48.7168 23.3633 49.1074C21.2236 51.2466 21.2236 54.728 23.3633 56.8672C24.4331 57.937 25.8379 58.4717 27.2432 58.4717C28.6484 58.4717 30.0532 57.937 31.123 56.8672C31.5137 56.4766 31.5137 55.8438 31.123 55.4531C30.7324 55.0625 30.0996 55.0625 29.709 55.4531ZM45.4897 58.27C45.4897 61.2959 43.0283 63.7573 40.0029 63.7573C36.9771 63.7573 34.5156 61.2959 34.5156 58.27C34.5156 57.7178 34.9634 57.27 35.5156 57.27C36.0679 57.27 36.5156 57.7178 36.5156 58.27C36.5156 60.1929 38.0801 61.7573 40.0029 61.7573C41.9258 61.7573 43.4897 60.1929 43.4897 58.27C43.4897 57.7178 43.9375 57.27 44.4897 57.27C45.042 57.27 45.4897 57.7178 45.4897 58.27ZM56.6406 49.1035C56.25 48.7129 55.6172 48.7129 55.2266 49.1035C54.8359 49.4941 54.8359 50.127 55.2266 50.5176C56.5859 51.8774 56.5859 54.0894 55.2266 55.4492C53.8672 56.8086 51.6543 56.8086 50.2949 55.4492C49.9043 55.0586 49.2715 55.0586 48.8809 55.4492C48.4902 55.8398 48.4902 56.4727 48.8809 56.8633C49.9507 57.9331 51.3555 58.4678 52.7607 58.4678C54.166 58.4678 55.5708 57.9331 56.6406 56.8633C58.7803 54.7241 58.7803 51.2427 56.6406 49.1035ZM57.0435 44.7109C57.0435 44.1587 57.4912 43.7109 58.0435 43.7109C59.9663 43.7109 61.5308 42.1465 61.5308 40.2236C61.5308 38.3008 59.9663 36.7368 58.0435 36.7368C57.4912 36.7368 57.0435 36.2891 57.0435 35.7368C57.0435 35.1846 57.4912 34.7368 58.0435 34.7368C61.0693 34.7368 63.5308 37.1982 63.5308 40.2236C63.5308 43.2495 61.0693 45.7109 58.0435 45.7109C57.4912 45.7109 57.0435 45.2632 57.0435 44.7109ZM50.291 25C51.6504 23.6406 53.8633 23.6406 55.2227 25C56.582 26.3599 56.582 28.5718 55.2227 29.9316C54.832 30.3223 54.832 30.9551 55.2227 31.3457C55.418 31.541 55.6738 31.6387 55.9297 31.6387C56.1855 31.6387 56.4414 31.541 56.6367 31.3457C58.7764 29.2065 58.7764 25.7251 56.6367 23.5859C54.4971 21.4463 51.0166 21.4463 48.877 23.5859C48.4863 23.9766 48.4863 24.6094 48.877 25C49.2676 25.3906 49.9004 25.3906 50.291 25ZM17.8276 26.1846C17.6323 26.3799 17.3765 26.4775 17.1206 26.4775C16.8647 26.4775 16.6089 26.3799 16.4136 26.1846C15.1392 24.9106 14.4375 23.2168 14.4375 21.4146C14.4375 19.6123 15.1392 17.918 16.4136 16.644C17.6875 15.3696 19.3818 14.668 21.1841 14.668C22.9863 14.668 24.6807 15.3696 25.9546 16.644C26.3452 17.0347 26.3452 17.6675 25.9546 18.0581C25.564 18.4487 24.9312 18.4487 24.5405 18.0581C22.6899 16.2075 19.6782 16.2075 17.8276 18.0581C16.9312 18.9546 16.4375 20.1465 16.4375 21.4146C16.4375 22.6821 16.9312 23.874 17.8276 24.7705C18.2183 25.1606 18.2183 25.7939 17.8276 26.1846ZM13.3931 35.4829C13.9453 35.4829 14.3931 35.0352 14.3931 34.4829C14.3931 33.9307 13.9453 33.4829 13.3931 33.4829C9.67285 33.4829 6.64648 36.5093 6.64648 40.2295C6.64648 43.9492 9.67285 46.9756 13.3931 46.9756C13.9453 46.9756 14.3931 46.5278 14.3931 45.9756C14.3931 45.4233 13.9453 44.9756 13.3931 44.9756C10.7759 44.9756 8.64648 42.8467 8.64648 40.2295C8.64648 37.6123 10.7759 35.4829 13.3931 35.4829ZM21.188 63.7891C22.4556 63.7891 23.6475 63.2954 24.5439 62.3989C24.9346 62.0083 25.5674 62.0083 25.958 62.3989C26.3486 62.7891 26.3486 63.4224 25.958 63.813C24.6841 65.0874 22.9902 65.7891 21.188 65.7891C19.3857 65.7891 17.6914 65.0874 16.4175 63.813C15.1431 62.5391 14.4414 60.8447 14.4414 59.0425C14.4414 57.2402 15.1431 55.5459 16.4175 54.272C16.8081 53.8813 17.4409 53.8813 17.8315 54.272C18.2222 54.6626 18.2222 55.2954 17.8315 55.686C15.981 57.5366 15.981 60.5483 17.8315 62.3989C18.728 63.2954 19.9199 63.7891 21.188 63.7891ZM45.749 65.8335C45.1968 65.8335 44.749 66.2812 44.749 66.8335C44.749 69.4507 42.6201 71.5801 40.0029 71.5801C37.3857 71.5801 35.2563 69.4507 35.2563 66.8335C35.2563 66.2812 34.8086 65.8335 34.2563 65.8335C33.7041 65.8335 33.2563 66.2812 33.2563 66.8335C33.2563 70.5537 36.2827 73.5801 40.0029 73.5801C43.7227 73.5801 46.749 70.5537 46.749 66.8335C46.749 66.2812 46.3013 65.8335 45.749 65.8335ZM62.1724 55.6826C61.7817 55.2925 61.7817 54.6592 62.1724 54.2686C62.563 53.8779 63.1958 53.8779 63.5864 54.2686C64.8608 55.5425 65.5625 57.2363 65.5625 59.0386C65.5625 60.8408 64.8608 62.5352 63.5864 63.8091C62.3125 65.0835 60.6182 65.7852 58.8159 65.7852C57.0137 65.7852 55.3193 65.0835 54.0454 63.8091C53.6548 63.4185 53.6548 62.7856 54.0454 62.395C54.436 62.0044 55.0688 62.0044 55.4595 62.395C57.3101 64.2456 60.3218 64.2456 62.1724 62.395C63.0688 61.4985 63.5625 60.3066 63.5625 59.0386C63.5625 57.771 63.0688 56.5791 62.1724 55.6826ZM66.6069 33.4775C66.0547 33.4775 65.6069 33.9253 65.6069 34.4775C65.6069 35.0298 66.0547 35.4775 66.6069 35.4775C69.2241 35.4775 71.3535 37.6064 71.3535 40.2236C71.3535 42.8408 69.2241 44.9702 66.6069 44.9702C66.0547 44.9702 65.6069 45.418 65.6069 45.9702C65.6069 46.5225 66.0547 46.9702 66.6069 46.9702C70.3271 46.9702 73.3535 43.9438 73.3535 40.2236C73.3535 36.5039 70.3271 33.4775 66.6069 33.4775ZM58.812 16.6641C57.5444 16.6641 56.3525 17.1577 55.4561 18.0542C55.0654 18.4448 54.4326 18.4448 54.042 18.0542C53.6514 17.6641 53.6514 17.0308 54.042 16.6401C55.3159 15.3657 57.0098 14.6641 58.812 14.6641C60.6143 14.6641 62.3086 15.3657 63.5825 16.6401C64.8569 17.9141 65.5586 19.6084 65.5586 21.4106C65.5586 23.2129 64.8569 24.9072 63.5825 26.1812C63.3872 26.3765 63.1313 26.4741 62.8755 26.4741C62.6196 26.4741 62.3638 26.3765 62.1685 26.1812C61.7778 25.7905 61.7778 25.1577 62.1685 24.7671C64.019 22.9165 64.019 19.9048 62.1685 18.0542C61.272 17.1577 60.0801 16.6641 58.812 16.6641Z" fill="#448000"/>
</svg>
