<svg width="81" height="81" viewBox="0 0 81 81" fill="none" xmlns="http://www.w3.org/2000/svg">
<path fill-rule="evenodd" clip-rule="evenodd" d="M12.3509 53.3362C9.38672 52.5096 6.73767 51.0243 4.70801 48.9946C2.27637 46.563 0.938968 43.4922 0.94141 40.3486C0.945987 34.4523 5.57099 29.4221 12.0317 27.4675C12.367 26.1255 13.2122 21.6259 12.2866 12.9351C12.2544 12.6343 12.3599 12.3354 12.5737 12.1221C12.7871 11.9082 13.083 11.7988 13.3872 11.835C22.236 12.7816 26.7247 11.8795 27.96 11.5588C29.8355 4.909 34.9274 0.11438 40.9121 0.109375H40.9204C44.0444 0.109375 47.0967 1.44189 49.5171 3.86182C51.476 5.82092 52.9189 8.36438 53.7636 11.2083C55.1229 11.5448 59.6105 12.3737 68.2432 11.436C68.5444 11.4004 68.8442 11.5088 69.0581 11.7227C69.272 11.937 69.3779 12.2363 69.3452 12.5376C68.3929 21.3539 69.2674 25.8515 69.5909 27.1232C72.5546 27.95 75.2031 29.4352 77.2324 31.4648C79.6641 33.8965 81.0015 36.9668 80.999 40.1104C80.9941 46.0063 76.3696 51.0363 69.9095 52.9911C69.5741 54.3339 68.7293 58.8336 69.6548 67.5229C69.687 67.8237 69.5815 68.1226 69.3677 68.3359C69.1538 68.5493 68.856 68.6553 68.5542 68.623C59.7032 67.6767 55.215 68.5782 53.9808 68.899C52.1056 75.5494 47.0134 80.3446 41.0283 80.3496H41.0195C37.8955 80.3496 34.8433 79.0171 32.4229 76.5967C30.4637 74.6373 29.0207 72.0934 28.1761 69.2491C26.8148 68.9122 22.3286 68.0847 13.6978 69.022C13.3926 69.0537 13.0967 68.9487 12.8828 68.7354C12.6689 68.521 12.563 68.2217 12.5957 67.9204C13.548 59.1074 12.6747 54.6099 12.3509 53.3362ZM14.5011 53.7975C14.8912 55.8369 15.3559 60.0048 14.708 66.9092C21.4509 66.2745 25.5733 66.7078 27.6533 67.093C27.433 65.8702 27.3182 64.6077 27.3193 63.3232C27.322 59.6907 28.6964 54.6951 30.7009 50.5465C26.4835 52.6656 21.5458 54.0847 17.9297 54.0874H17.9126C16.7518 54.0874 15.6129 53.9802 14.5011 53.7975ZM34.022 33.2603C35.8815 31.3964 38.3513 30.3693 40.978 30.3667H40.978H40.979L40.9794 30.3666L40.9836 30.3664L40.9878 30.3662C43.6118 30.3662 46.0776 31.3901 47.9316 33.248C51.7651 37.0908 51.7598 43.3481 47.9194 47.1978C46.0599 49.0612 43.5902 50.0883 40.9634 50.0913H40.9634H40.9624L40.962 50.0914C40.9592 50.0914 40.9564 50.0918 40.9536 50.0918C38.3296 50.0918 35.8633 49.0684 34.0093 47.21C30.1758 43.3672 30.1816 37.1094 34.022 33.2603ZM41.0195 78.3496H41.0264C47.4902 78.3442 52.7544 71.5942 52.7607 63.3027C52.7643 59.3672 50.9578 53.7294 48.3982 49.4517C46.5552 50.949 44.3301 51.8431 41.9617 52.0424L41.9541 61.7671C41.9536 62.3188 41.5059 62.7661 40.9541 62.7661H40.9531C40.4009 62.7656 39.9536 62.3174 39.9541 61.7651L39.9617 52.0434C37.5973 51.8477 35.3767 50.9588 33.5377 49.4685C31.102 53.6234 29.3225 59.3622 29.3193 63.3252C29.3154 67.9854 30.9624 72.3071 33.8369 75.1826C35.9092 77.2544 38.3926 78.3496 41.0195 78.3496ZM67.5449 66.5127C60.6745 65.8748 56.5197 66.3438 54.4779 66.738C54.6624 65.6286 54.7598 64.4803 54.7607 63.3047C54.7638 59.6829 53.3674 54.7573 51.2737 50.5508C55.3676 52.5665 60.1882 53.8726 63.9771 53.8726H63.9917C65.2844 53.8715 66.5389 53.7427 67.7499 53.5195C67.3615 55.6007 66.9196 59.7377 67.5449 66.5127ZM63.9897 51.8726C72.2607 51.8662 78.9937 46.5889 78.999 40.1084C79.0015 37.4619 77.9014 34.9619 75.8184 32.8789C72.9536 30.0142 68.6567 28.3716 64.0273 28.3716H64.0122C60.0851 28.3752 54.456 30.1965 50.1837 32.7699C51.7094 34.6606 52.5639 36.9161 52.7552 39.2189L62.4565 39.2109H62.4575C63.0093 39.2109 63.457 39.6582 63.4575 40.21C63.458 40.7622 63.0107 41.2104 62.4585 41.2109L52.7538 41.2189C52.5596 43.5231 51.7017 45.781 50.1727 47.6748C54.2908 50.1364 59.8987 51.8726 63.9771 51.8726H63.9897ZM67.2329 13.5488C66.5853 20.4545 67.0503 24.6228 67.4405 26.6617C66.328 26.4789 65.1884 26.3716 64.0269 26.3716H64.0103C60.3993 26.3746 55.487 27.7808 51.2884 29.8837C53.3069 25.774 54.6177 20.935 54.6211 17.1357C54.6221 15.8511 54.5071 14.5884 54.2867 13.3654C56.366 13.7512 60.4881 14.1849 67.2329 13.5488ZM40.9209 2.10938H40.9141C34.4502 2.11475 29.186 8.86475 29.1797 17.1562C29.1761 21.0215 31.019 26.765 33.5449 31.0052C35.3876 29.5086 37.6122 28.6146 39.9797 28.4155L39.9873 18.6909C39.9878 18.1392 40.4356 17.6919 40.9873 17.6919H40.9883C41.5405 17.6924 41.9878 18.1406 41.9873 18.6929L41.9797 28.4146C44.3469 28.6105 46.5701 29.501 48.41 30.9945C50.8751 26.8581 52.6175 21.2255 52.6211 17.1338C52.6245 12.4731 50.978 8.15137 48.1025 5.27588C46.0313 3.20459 43.5474 2.10938 40.9209 2.10938ZM14.3965 13.9453C21.266 14.5831 25.4206 14.1144 27.4627 13.7202C27.2781 14.8298 27.1806 15.9783 27.1797 17.1543C27.1766 20.7736 28.5737 25.6992 30.6682 29.9075C26.5745 27.8922 21.7532 26.5864 17.9629 26.5864H17.9482C16.656 26.5875 15.4019 26.7162 14.1913 26.9392C14.5799 24.8583 15.0219 20.7211 14.3965 13.9453ZM17.9629 28.5864H17.9502C9.6792 28.5928 2.94629 33.8701 2.94141 40.3506C2.93897 42.9971 4.03907 45.4971 6.12207 47.5801C8.98682 50.4448 13.2837 52.0874 17.9126 52.0874H17.9277C21.7761 52.0842 27.512 50.2262 31.7556 47.6858C30.2313 45.7955 29.3774 43.541 29.1862 41.2391L19.4849 41.2471H19.4839C18.9321 41.2471 18.4844 40.7998 18.4839 40.248C18.4834 39.6958 18.9307 39.2476 19.4829 39.2471L29.1875 39.2391C29.3818 36.9349 30.2397 34.6771 31.7687 32.7832C27.651 30.3221 22.043 28.5864 17.9629 28.5864Z" fill="#448000"/>
</svg>
