<svg width="80" height="81" viewBox="0 0 80 81" fill="none" xmlns="http://www.w3.org/2000/svg">
<path fill-rule="evenodd" clip-rule="evenodd" d="M70.999 27.3862C73.4121 22.2231 72.3721 16.0298 68.2842 11.9424C64.1963 7.85547 58.0049 6.81445 52.8398 9.22803C50.8945 3.87061 45.7803 0.226562 40 0.226562C34.2197 0.226562 29.1055 3.87061 27.1602 9.22803C21.9971 6.81543 15.8027 7.85498 11.7158 11.9424C7.62793 16.0298 6.58789 22.2231 9.00098 27.3862C3.64355 29.3315 0 34.4463 0 40.2266C0 46.0068 3.64355 51.1216 9.00098 53.0669C6.58789 58.23 7.62793 64.4233 11.7158 68.5107C15.8027 72.5967 21.9941 73.6377 27.1602 71.2251C29.1055 76.5825 34.2197 80.2266 40 80.2266C45.7803 80.2266 50.8945 76.5825 52.8398 71.2251C58.0029 73.6377 64.1982 72.5977 68.2842 68.5107C72.3721 64.4233 73.4121 58.23 70.999 53.0669C76.3564 51.1216 80 46.0068 80 40.2266C80 34.4463 76.3564 29.3315 70.999 27.3862ZM66.8701 13.3564C70.5345 17.0213 71.3209 22.6672 68.8437 27.1967L61.6043 30.1953C62.4533 26.9929 61.5822 23.4973 59.1553 21.0713C56.7293 18.6453 53.2322 17.775 50.0309 18.6224L53.0295 11.3828C57.5621 8.90723 63.2059 9.69269 66.8701 13.3564ZM59.5091 47.4536L59.5127 47.4521C59.5146 47.4514 59.5165 47.4507 59.5186 47.4502C62.7988 46.5854 65.0898 43.6152 65.0898 40.2266C65.0898 36.8379 62.7988 33.8677 59.5186 33.0029L59.5169 33.0023L59.5152 33.0014L59.5133 33.0002C59.5117 32.9991 59.5101 32.998 59.5082 32.9974C59.3782 32.9614 59.2608 32.8948 59.1546 32.81C59.1306 32.7909 59.1098 32.7718 59.0877 32.7505C58.9905 32.6575 58.9043 32.5511 58.8496 32.4189C58.7922 32.2801 58.7743 32.1369 58.7803 31.996C58.7813 31.9695 58.7878 31.9446 58.7944 31.9195L58.7982 31.905L58.8022 31.8883C58.8035 31.8826 58.8047 31.8768 58.8057 31.8709C58.8226 31.7727 58.8467 31.6793 58.8914 31.5908L58.8937 31.5857L58.8957 31.5797L58.8976 31.5724L58.8995 31.5631C58.9016 31.5526 58.9037 31.5422 58.9092 31.5327C60.6182 28.6016 60.1377 24.8813 57.7412 22.4854C55.3447 20.0894 51.625 19.6094 48.6943 21.3164C48.6894 21.3193 48.6841 21.3208 48.6787 21.322L48.6726 21.3232L48.6653 21.3247C48.6608 21.3258 48.6563 21.3271 48.6522 21.3293C48.5424 21.387 48.4244 21.4228 48.3005 21.4369C48.2912 21.4379 48.2822 21.4396 48.2733 21.4412C48.2611 21.4435 48.249 21.4458 48.2363 21.4464C48.229 21.4467 48.2219 21.4482 48.2148 21.4497C48.2068 21.4514 48.1987 21.4531 48.1904 21.4531C48.0625 21.4531 47.9326 21.4282 47.8076 21.3765C47.6689 21.3189 47.5551 21.2304 47.4597 21.1266C47.4419 21.1074 47.4291 21.0854 47.4162 21.0633L47.4162 21.0633C47.4079 21.0491 47.3996 21.0348 47.3899 21.0211C47.332 20.9391 47.2828 20.8553 47.2516 20.7603C47.2486 20.7512 47.2434 20.7433 47.2381 20.7354L47.2381 20.7354C47.2322 20.7266 47.2264 20.7179 47.2236 20.7075C46.3584 17.4277 43.3877 15.1367 40 15.1367C36.6123 15.1367 33.6416 17.4277 32.7764 20.7075C32.7736 20.7179 32.7678 20.7266 32.762 20.7354C32.7567 20.7433 32.7514 20.7512 32.7484 20.7603C32.7173 20.8555 32.668 20.9393 32.61 21.0214C32.6002 21.0351 32.5919 21.0494 32.5836 21.0636C32.5708 21.0856 32.558 21.1074 32.5404 21.1265C32.4451 21.2303 32.3311 21.3189 32.1924 21.3765C32.0674 21.4282 31.9375 21.4531 31.8096 21.4531L31.8067 21.4531L31.8017 21.4527L31.7951 21.4517L31.7852 21.4497C31.7781 21.4482 31.771 21.4467 31.7637 21.4464C31.751 21.4458 31.7389 21.4435 31.7267 21.4412C31.7178 21.4396 31.7088 21.4379 31.6995 21.4369C31.5756 21.4228 31.4576 21.387 31.3478 21.3293C31.3414 21.3259 31.3344 21.3246 31.3274 21.3232C31.3199 21.3218 31.3124 21.3203 31.3057 21.3164C28.3779 19.6094 24.6553 20.0894 22.2588 22.4854C19.8633 24.8809 19.3828 28.6011 21.0908 31.5327C21.0963 31.5421 21.0984 31.5526 21.1004 31.563C21.1023 31.5725 21.1042 31.5819 21.1086 31.5907C21.1534 31.6796 21.1776 31.7733 21.1945 31.8717C21.1973 31.8883 21.2016 31.9044 21.2058 31.9203C21.2123 31.9452 21.2188 31.9698 21.2198 31.996C21.2258 32.1368 21.2078 32.2801 21.1504 32.4189C21.0957 32.5511 21.0095 32.6575 20.9123 32.7505C20.8902 32.7718 20.8694 32.7909 20.8454 32.81C20.7392 32.8948 20.6218 32.9614 20.4918 32.9974C20.4899 32.998 20.4883 32.9991 20.4867 33.0002L20.4866 33.0002L20.4837 33.0021L20.4814 33.0029C17.2012 33.8677 14.9102 36.8379 14.9102 40.2266C14.9102 43.6152 17.2012 46.5854 20.4814 47.4502C20.4921 47.453 20.501 47.459 20.51 47.4649C20.518 47.4703 20.526 47.4757 20.5353 47.4788C20.6292 47.5096 20.7118 47.5585 20.793 47.6154C20.8069 47.6252 20.8214 47.6336 20.8358 47.642C20.8585 47.6552 20.8809 47.6682 20.9005 47.6863C21.0045 47.7816 21.093 47.8954 21.1504 48.0342C21.2078 48.173 21.2258 48.3163 21.2198 48.4572C21.2188 48.4833 21.2123 48.508 21.2058 48.5328C21.2016 48.5488 21.1973 48.5648 21.1945 48.5814C21.1776 48.6799 21.1534 48.7736 21.1086 48.8624C21.1042 48.8712 21.1023 48.8806 21.1004 48.8901C21.0984 48.9006 21.0963 48.911 21.0908 48.9204C19.3828 51.8521 19.8633 55.5723 22.2588 57.9678C24.6553 60.3628 28.375 60.8433 31.3057 59.1367C31.3214 59.1276 31.3381 59.1216 31.3549 59.1155L31.3549 59.1155L31.3549 59.1155L31.3549 59.1155L31.355 59.1155L31.355 59.1154L31.3551 59.1154L31.3728 59.1089L31.3795 59.1062L31.3901 59.1016C31.4167 59.0892 31.4421 59.0784 31.4697 59.0684C31.5754 59.0298 31.6842 59.0039 31.7957 59.0023L31.7984 59.0021L31.8003 59.0017L31.8021 59.0014L31.8049 59.0011L31.8061 59.001L31.8072 59.0008C31.808 59.0006 31.8088 59.0005 31.8096 59.0005C31.9395 59.0005 32.0693 59.0259 32.1924 59.0767C32.3311 59.1342 32.4451 59.2228 32.5404 59.3266C32.558 59.3457 32.5708 59.3675 32.5836 59.3895C32.5919 59.4037 32.6002 59.418 32.61 59.4318C32.668 59.5139 32.7173 59.5977 32.7484 59.6928C32.7514 59.702 32.7567 59.7099 32.762 59.7178C32.7678 59.7265 32.7736 59.7352 32.7764 59.7456C33.6416 63.0254 36.6123 65.3164 40 65.3164C43.3877 65.3164 46.3584 63.0254 47.2236 59.7456C47.2264 59.7352 47.2322 59.7265 47.2381 59.7178C47.2402 59.7146 47.2422 59.7115 47.2442 59.7083L47.2476 59.7023L47.2498 59.6978L47.2516 59.6928C47.2828 59.5978 47.332 59.514 47.3899 59.432C47.3996 59.4183 47.408 59.404 47.4162 59.3898L47.4163 59.3898L47.4163 59.3898L47.4163 59.3897L47.4163 59.3897C47.4292 59.3676 47.442 59.3457 47.4597 59.3265C47.5551 59.2227 47.6689 59.1342 47.8076 59.0767C47.9456 59.0198 48.0883 59.0018 48.2289 59.0076C48.2571 59.0087 48.2836 59.0156 48.3104 59.0227L48.3105 59.0227C48.3269 59.027 48.3434 59.0313 48.3605 59.0343C48.4565 59.0515 48.5479 59.0748 48.6347 59.1184C48.6437 59.1229 48.6534 59.1248 48.6631 59.1268C48.6738 59.1289 48.6846 59.131 48.6943 59.1367C51.623 60.8433 55.3447 60.3628 57.7412 57.9678C60.1377 55.5718 60.6182 51.8516 58.9092 48.9204C58.9037 48.911 58.9016 48.9005 58.8995 48.89C58.8977 48.8806 58.8958 48.8711 58.8914 48.8624C58.8467 48.7738 58.8226 48.6804 58.8057 48.5822C58.8039 48.5719 58.8016 48.5619 58.7991 48.552L58.7944 48.5337L58.7944 48.5336C58.7878 48.5085 58.7813 48.4836 58.7803 48.4571C58.7743 48.3162 58.7922 48.173 58.8496 48.0342C58.9069 47.8955 58.9955 47.7816 59.0994 47.6863C59.1192 47.6681 59.1417 47.655 59.1644 47.6418L59.1645 47.6418C59.1788 47.6334 59.1933 47.625 59.2072 47.6152C59.2885 47.5583 59.3711 47.5095 59.465 47.4786C59.4723 47.4762 59.4787 47.4724 59.4851 47.4683L59.4903 47.4649L59.4903 47.4648C59.4964 47.4608 59.5025 47.4567 59.5091 47.4536ZM40 2.22656C45.1826 2.22656 49.73 5.66321 51.1819 10.6171L48.1833 17.8566C46.5186 14.9923 43.4312 13.1367 40 13.1367C36.5688 13.1367 33.4814 14.9923 31.8167 17.8566L28.8181 10.6171C30.27 5.66321 34.8174 2.22656 40 2.22656ZM26.9705 11.3826C22.4386 8.90521 16.7922 9.6922 13.1299 13.3564C9.46552 17.0213 8.67908 22.6672 11.1563 27.1967L18.3961 30.1955C17.5475 26.9927 18.4186 23.4969 20.8447 21.0713C23.2714 18.6455 26.7683 17.7735 29.9688 18.6216L26.9705 11.3826ZM2 40.2266C2 35.0444 5.43658 30.4966 10.3905 29.0443L17.6304 32.0432C14.766 33.7076 12.9102 36.7953 12.9102 40.2266C12.9102 43.6578 14.766 46.7455 17.6304 48.41L10.3905 51.4089C5.43658 49.9565 2 45.4088 2 40.2266ZM11.1563 53.2565C8.67908 57.7859 9.46552 63.4318 13.1299 67.0967C16.7941 70.7609 22.4379 71.546 26.9705 69.0704L29.9689 61.8312C26.7676 62.6795 23.2706 61.8086 20.8447 59.3818C18.4186 56.9562 17.5475 53.4604 18.3961 50.2576L11.1563 53.2565ZM40 78.2266C34.8183 78.2266 30.2701 74.7899 28.8181 69.8361L31.8167 62.5965C33.4814 65.4608 36.5688 67.3164 40 67.3164C43.4312 67.3164 46.5186 65.4608 48.1833 62.5965L51.1819 69.8361C49.7299 74.7899 45.1817 78.2266 40 78.2266ZM53.0295 69.0705C57.5604 71.5464 63.2068 70.7595 66.8701 67.0967C70.5345 63.4318 71.3209 57.7859 68.8437 53.2565L61.6043 50.2578C62.4533 53.4602 61.5822 56.9558 59.1553 59.3818C56.7285 61.8082 53.2321 62.679 50.031 61.8311L53.0295 69.0705ZM69.6095 51.4089L62.3696 48.41C65.234 46.7455 67.0898 43.6578 67.0898 40.2266C67.0898 36.7953 65.234 33.7076 62.3696 32.0432L69.6095 29.0443C74.5634 30.4966 78 35.0444 78 40.2266C78 45.4088 74.5634 49.9565 69.6095 51.4089ZM21.6953 40.2266C21.6953 30.1328 29.9072 21.9214 40 21.9214C50.0928 21.9214 58.3047 30.1328 58.3047 40.2266C58.3047 50.3203 50.0928 58.5317 40 58.5317C29.9072 58.5317 21.6953 50.3203 21.6953 40.2266ZM23.6953 40.2266C23.6953 49.2173 31.0098 56.5317 40 56.5317C48.9902 56.5317 56.3047 49.2173 56.3047 40.2266C56.3047 31.2358 48.9902 23.9214 40 23.9214C31.0098 23.9214 23.6953 31.2358 23.6953 40.2266ZM28.332 40.2266C28.332 33.793 33.5664 28.5591 40 28.5591C46.4336 28.5591 51.668 33.793 51.668 40.2266C51.668 46.6602 46.4336 51.894 40 51.894C33.5664 51.894 28.332 46.6602 28.332 40.2266ZM30.332 40.2266C30.332 45.5571 34.6689 49.894 40 49.894C45.3311 49.894 49.668 45.5571 49.668 40.2266C49.668 34.896 45.3311 30.5591 40 30.5591C34.6689 30.5591 30.332 34.896 30.332 40.2266ZM40 10.3516C40.5527 10.3516 41 9.90381 41 9.35156V6.10156C41 5.54932 40.5527 5.10156 40 5.10156C39.4473 5.10156 39 5.54932 39 6.10156V9.35156C39 9.90381 39.4473 10.3516 40 10.3516ZM18.2559 19.3584C18 19.3584 17.7441 19.2607 17.5488 19.0654L15.251 16.7671C14.8604 16.3765 14.8604 15.7432 15.251 15.353C15.6416 14.9624 16.2744 14.9624 16.665 15.353L18.9629 17.6514C19.3535 18.042 19.3535 18.6753 18.9629 19.0654C18.7676 19.2607 18.5117 19.3584 18.2559 19.3584ZM9.24902 39.1025H5.99902C5.44629 39.1025 4.99902 39.5503 4.99902 40.1025C4.99902 40.6548 5.44629 41.1025 5.99902 41.1025H9.24902C9.80176 41.1025 10.249 40.6548 10.249 40.1025C10.249 39.5503 9.80176 39.1025 9.24902 39.1025ZM15.251 63.438L17.5488 61.1401C17.9395 60.7495 18.5723 60.7495 18.9629 61.1401C19.3535 61.5308 19.3535 62.1636 18.9629 62.5542L16.665 64.8521C16.4697 65.0474 16.2139 65.145 15.958 65.145C15.7021 65.145 15.4463 65.0474 15.251 64.8521C14.8604 64.4614 14.8604 63.8286 15.251 63.438ZM40 69.854C39.4473 69.854 39 70.3018 39 70.854V74.104C39 74.6562 39.4473 75.104 40 75.104C40.5527 75.104 41 74.6562 41 74.104V70.854C41 70.3018 40.5527 69.854 40 69.854ZM61.0371 62.5542C60.6465 62.1636 60.6465 61.5308 61.0371 61.1401C61.4277 60.7495 62.0605 60.7495 62.4512 61.1401L64.749 63.438C65.1396 63.8286 65.1396 64.4614 64.749 64.8521C64.5537 65.0474 64.2979 65.145 64.042 65.145C63.7861 65.145 63.5303 65.0474 63.335 64.8521L61.0371 62.5542ZM70.751 39.1025C70.1982 39.1025 69.751 39.5503 69.751 40.1025C69.751 40.6548 70.1982 41.1025 70.751 41.1025H74.001C74.5537 41.1025 75.001 40.6548 75.001 40.1025C75.001 39.5503 74.5537 39.1025 74.001 39.1025H70.751ZM62.4512 19.0654C62.2559 19.2607 62 19.3584 61.7441 19.3584C61.4883 19.3584 61.2324 19.2607 61.0371 19.0654C60.6465 18.6753 60.6465 18.042 61.0371 17.6514L63.335 15.353C63.7256 14.9624 64.3584 14.9624 64.749 15.353C65.1396 15.7432 65.1396 16.3765 64.749 16.7671L62.4512 19.0654Z" fill="#448000"/>
</svg>
