<svg width="28" height="28" viewBox="0 0 28 28" fill="none" xmlns="http://www.w3.org/2000/svg">
<path fill-rule="evenodd" clip-rule="evenodd" d="M0.250022 13.75C0.250022 6.15609 6.40611 0 14 0C21.5939 0 27.75 6.15609 27.75 13.75C27.75 21.3439 21.5939 27.5 14 27.5C11.0863 27.5 8.38244 26.5929 6.15803 25.0459L6.59628 24.8268L6.23456 24.1034L6.72036 23.4566C8.74811 24.98 11.2675 25.8824 14 25.8824C20.7005 25.8824 26.1324 20.4505 26.1324 13.75C26.1324 7.04949 20.7005 1.61765 14 1.61765C7.29951 1.61765 1.86767 7.04949 1.86767 13.75C1.86767 16.4825 2.77004 19.0019 4.29337 21.0296L4.59389 21.4297L4.37014 21.8772L2.86742 24.8826L0.697129 25.9678L1.05885 26.6912L1.78228 27.0529L2.86742 24.8826L5.87284 23.3799L6.32035 23.1562L6.72036 23.4566L6.23454 24.1033L5.74875 24.75C5.88328 24.8511 6.01973 24.9497 6.15803 25.0459L1.42056 27.4146C1.10918 27.5703 0.733095 27.5093 0.486921 27.2631C0.240748 27.017 0.179718 26.6408 0.335412 26.3295L2.70414 21.592C2.80032 21.7303 2.89897 21.8668 3.00003 22.0013L3.6467 21.5155L2.92327 21.1538L2.70414 21.592C1.15716 19.3675 0.250022 16.6637 0.250022 13.75ZM8.90246 8.87676L8.4538 8.20378L9.02303 8.20378H9.26262V8.56317V8.63666L8.90246 8.87676ZM9.65256 12.595C9.39924 11.7927 9.26262 10.9386 9.26262 10.0525V8.63666L9.29654 8.61405C9.92442 8.19545 10.7751 8.56398 10.8991 9.30834L11.157 10.8552C11.2242 11.2588 11.0485 11.6643 10.708 11.8913L9.65256 12.595ZM10.2996 14.1078L9.82683 14.4229L8.92952 13.0771L9.65256 12.595C9.81947 13.1237 10.0371 13.6298 10.2996 14.1078ZM13.6422 17.4504C12.2352 16.6775 11.0725 15.5148 10.2996 14.1078L11.6054 13.2373C12.4754 12.6572 12.9245 11.6207 12.7526 10.5892L12.4947 9.0424C12.1778 7.14016 10.0038 6.19835 8.39923 7.26808L8.00515 7.5308C7.78014 7.6808 7.64498 7.93335 7.64498 8.20378L7.64498 10.0525C7.64498 15.6044 12.1457 20.1051 17.6975 20.1051H19.5463C19.8166 20.1051 20.0692 19.9699 20.2192 19.7449L20.4819 19.3508C21.5516 17.7462 20.6098 15.5722 18.7076 15.2553L17.1608 14.9974C16.1293 14.8255 15.0928 15.2746 14.5127 16.1447L13.6422 17.4504ZM15.155 18.0975L14.673 18.8205L13.3271 17.9232L13.6422 17.4504C14.1202 17.713 14.6263 17.9306 15.155 18.0975ZM18.4416 16.8509L16.8949 16.5931C16.4912 16.5258 16.0857 16.7016 15.8587 17.042L15.155 18.0975C15.9573 18.3508 16.8115 18.4874 17.6975 18.4874H19.1133L18.8732 18.8475L19.5463 19.2963V18.727V18.4874H19.1869H19.1133L19.1359 18.4535C19.5546 17.8256 19.186 16.9749 18.4416 16.8509Z" fill="black"/>
</svg>
