<svg width="30" height="19" viewBox="0 0 30 19" fill="none" xmlns="http://www.w3.org/2000/svg">
<path fill-rule="evenodd" clip-rule="evenodd" d="M12.2842 0.5L12.5128 0.508299L15.9757 0.507931C17.2339 0.507931 18.2457 1.54816 18.2457 2.82162V7.89796C18.2457 8.06771 18.2614 8.20601 18.2782 8.31237L18.3178 8.5351C18.3209 8.56307 18.3182 8.57661 18.3052 8.57558C18.3615 8.58006 18.4985 8.47282 18.6905 8.23426L18.868 7.99717C18.9313 7.90711 18.9984 7.80588 19.0688 7.69302L19.2894 7.31906C19.3658 7.18247 19.4449 7.03379 19.5261 6.87256L19.6949 6.54076L21.9739 2.18312C22.2786 1.59958 22.8759 1.23219 23.5293 1.2322H28.1656C29.6516 1.2322 30.2095 2.23113 29.8217 3.52989C29.5995 4.27425 29.1002 5.12728 28.4624 5.99961L25.4705 10.0582C25.2471 10.3606 25.2719 10.7902 25.5313 11.0665L28.0564 13.7825L28.7293 14.4943L29.0628 14.8392C30.689 16.4858 30.2044 18.5946 27.6421 18.5946H23.4816C22.9054 18.5946 22.3519 18.3692 21.9347 17.9662L18.7664 14.9059C18.6765 14.8191 18.5507 14.7965 18.4413 14.8451C18.325 14.8968 18.2457 15.0209 18.2457 15.1621V16.8053C18.2457 17.7891 17.4622 18.5946 16.4857 18.5946H13.8387C8.77254 18.5946 3.56254 11.7599 0.723696 4.84L0.394577 4.00964C0.288772 3.733 0.186922 3.45666 0.0891876 3.18105C-0.0704032 2.73916 -0.00874487 2.24572 0.255466 1.85794C0.523691 1.46427 0.967277 1.2289 1.43686 1.2322L5.64811 1.2322C6.31347 1.2312 6.91478 1.6262 7.20268 2.26993C8.09333 4.54878 9.24839 6.7085 10.5963 8.64279C10.6838 8.74336 10.8162 8.77553 10.9327 8.72809C11.0562 8.67777 11.1405 8.54671 11.1369 8.39449L11.0726 4.32302C11.0372 3.65969 10.847 3.33371 10.575 3.19055C10.4304 3.11439 10.2637 3.093 10.1347 3.10487L8.45337 3.38405L9.43915 1.98728C10.0499 1.12184 11.0006 0.586306 12.0264 0.509555L12.2842 0.5ZM12.4669 1.93608L12.2224 1.92945C12.0105 1.93583 11.8027 1.97579 11.6057 2.04628L11.4987 2.08995L11.5638 2.13602C12.117 2.57169 12.4486 3.28992 12.5 4.28007L12.507 4.55684L12.5083 4.81615L12.565 8.36369C12.5829 9.10084 12.1491 9.77513 11.4715 10.0511C10.7869 10.3299 10.0052 10.14 9.47203 9.52084C8.0127 7.4342 6.80402 5.1742 5.88575 2.82233C5.84044 2.72134 5.74793 2.66057 5.64918 2.66072L1.43612 2.6606L1.4309 2.67815L1.43417 2.69971C2.00812 4.31826 2.74418 5.97605 3.59417 7.565L4.02844 8.35324L4.48036 9.12701C7.16545 13.5926 10.6832 17.1661 13.8387 17.1661H16.4857C16.6643 17.1661 16.8172 17.0089 16.8172 16.8053V15.1621C16.8172 14.4606 17.2249 13.8227 17.8608 13.5399C18.5037 13.254 19.2515 13.3883 19.7589 13.8784L22.9271 16.9388C23.079 17.0855 23.277 17.1661 23.4816 17.1661H27.6421C28.764 17.1661 28.8752 16.6822 28.0465 15.8431L27.2132 14.9711L24.4857 12.0398C23.7577 11.2644 23.6886 10.0662 24.3216 9.20929L26.9569 5.63701L27.5091 4.87616C27.9613 4.22505 28.3099 3.60012 28.4529 3.12121L28.5126 2.91274C28.5765 2.66072 28.5137 2.66072 28.1671 2.66072H28.1656H23.5293C23.4117 2.66072 23.3003 2.72919 23.2387 2.84723L21.7439 5.6925L20.6515 7.80537C19.8496 9.30685 19.0524 10.0681 18.1919 9.9996C17.2662 9.92595 16.8172 9.00261 16.8172 7.89796V2.82162C16.8172 2.3284 16.4359 1.93645 15.9757 1.93645L12.4669 1.93608Z" fill="black"/>
</svg>
