<svg width="29" height="25" viewBox="0 0 29 25" fill="none" xmlns="http://www.w3.org/2000/svg">
<path fill-rule="evenodd" clip-rule="evenodd" d="M28.4962 6.43007C28.3884 3.05755 25.9768 0.5 22.5373 0.5H11.6667L11.4193 0.505181L11.1889 0.519725C7.97956 0.780848 5.5 3.44277 5.5 6.66667V15.499L0.5 15.5V18.2L0.504954 18.4462L0.518893 18.6761C0.775517 21.9555 3.46168 24.5 6.72727 24.5L14.833 24.499L14.8333 24.5341L16.367 24.4996L16.5 24.496L16.5806 24.4948L16.8111 24.4803C20.0207 24.2193 22.5 21.558 22.5 18.3333L22.499 10.5H28.5V6.66667L28.4962 6.43007ZM16.3333 15.5702H7V6.66667L7.00509 6.44682C7.11661 4.04249 9.04791 2.11318 11.4531 2.0048L11.6667 2H21V18.3333L20.9949 18.5533C20.8834 20.9586 18.9521 22.8869 16.5469 22.9952L16.3333 23V15.5702ZM2 17V18.2L2.00461 18.4139C2.11163 20.8936 4.07037 22.8834 6.51073 22.9951L6.72727 23H15V17H2ZM22.5373 9V2L22.7714 2.00508C25.3172 2.11642 26.9047 4.04461 26.9958 6.447L27 6.66667V9H22.5373ZM18 10V12H11V10H18ZM18 7V5H11V7H18Z" fill="black"/>
</svg>
