<svg width="17" height="26" viewBox="0 0 17 26" fill="none" xmlns="http://www.w3.org/2000/svg">
<path fill-rule="evenodd" clip-rule="evenodd" d="M5.39714 0.777344C6.30992 0.777344 7.12165 1.12381 7.72882 1.7879C8.30985 2.4234 8.59968 3.2295 8.59968 4.12923C8.59968 5.04148 8.22342 5.85342 7.53236 6.47173C6.87154 7.06299 6.04585 7.36165 5.12831 7.36165C4.2023 7.36165 3.36997 7.05173 2.70825 6.44225C2.02098 5.80924 1.65695 4.9758 1.65695 4.03963C1.65695 3.08485 2.12 2.25941 2.91948 1.63373C3.64086 1.06917 4.48391 0.777344 5.39714 0.777344ZM6.17374 7.67712C7.32836 7.67712 8.08089 8.50843 8.14691 9.58869L8.15164 9.74464L8.15239 20.2984L8.15799 20.5777L8.16136 20.6683L8.38406 20.6702C8.83957 20.6702 9.26473 20.7765 9.64249 21.0598C9.72571 21.1222 9.79988 21.1871 9.866 21.2546C9.95063 20.5001 10.2795 19.8259 10.8331 19.2876C11.4805 18.6582 12.3159 18.3404 13.2527 18.3404C14.1896 18.3404 15.0249 18.6582 15.6723 19.2876C16.3242 19.9214 16.6644 20.7435 16.6644 21.6624C16.6644 22.6299 16.3338 23.4837 15.6723 24.1269C15.0219 24.7592 14.1763 25.0741 13.2229 25.0741C12.3024 25.0741 11.4775 24.7533 10.8331 24.1269C10.6117 23.9115 10.4273 23.6726 10.28 23.4138C10.2221 23.604 10.1345 23.787 10.0204 23.9581C9.65348 24.5085 9.06 24.8052 8.33644 24.8032L7.39465 24.7603C7.2422 24.7543 7.09201 24.749 6.94408 24.7442L6.08367 24.7228C5.80593 24.718 5.53725 24.7156 5.27766 24.7156L4.94509 24.717L4.23656 24.7281L3.46434 24.7503L2.62143 24.784C2.47466 24.7906 2.32465 24.7977 2.17127 24.8052C1.54984 24.8052 0.995119 24.5158 0.627771 24.026C0.375908 23.6902 0.232209 23.2991 0.200219 22.8861L0.193359 22.7079L0.197778 22.5928C0.254755 21.8521 0.48293 21.2627 1.20175 20.9032C1.51319 20.7475 1.82937 20.6876 2.21268 20.6736L2.42636 20.6693L2.43355 20.1391L2.43296 13.1328L2.42636 12.7673L2.41022 12.768C2.06681 12.768 1.75197 12.7258 1.45873 12.6193L1.28533 12.5475L1.11677 12.4591C0.430357 12.0587 0.193359 11.4069 0.193359 10.6706C0.193359 10.2228 0.339485 9.80267 0.599732 9.44483C0.935915 8.98258 1.43246 8.71361 1.95913 8.64801C3.11137 8.48341 4.08172 8.2498 4.89263 7.94373C5.19598 7.83539 5.47098 7.75781 5.72847 7.71337L5.91848 7.6863L6.08413 7.67712H6.17374ZM13.2527 19.8404C12.6952 19.8404 12.2372 20.0147 11.8787 20.3631C11.5203 20.7116 11.3411 21.1447 11.3411 21.6624C11.3411 22.2399 11.5203 22.7029 11.8787 23.0514C12.1924 23.3563 12.5746 23.5278 13.0254 23.5659L13.2229 23.5741L13.4113 23.5676C13.903 23.5332 14.3081 23.3611 14.6267 23.0514C14.9851 22.7029 15.1644 22.2399 15.1644 21.6624C15.1644 21.1447 14.9851 20.7116 14.6267 20.3631C14.2683 20.0147 13.8103 19.8404 13.2527 19.8404ZM5.39714 9.35634C5.67592 9.25677 5.90491 9.19704 6.08413 9.17712H6.17374L6.27404 9.18413C6.52577 9.2215 6.65164 9.40833 6.65164 9.74464L6.65286 20.3525C6.65368 20.4207 6.65489 20.4862 6.65652 20.5487L6.67115 20.8901C6.6809 21.0437 6.69431 21.1717 6.71138 21.2741C6.75121 21.5131 6.88064 21.7222 7.09968 21.9014C7.31872 22.0806 7.68711 22.1702 8.20484 22.1702H8.38406L8.49607 22.1758C8.60061 22.187 8.68275 22.215 8.74249 22.2598C8.82214 22.3196 8.87192 22.4689 8.89183 22.7079C8.89183 22.8672 8.85201 23.0066 8.77236 23.126C8.70863 23.2216 8.61942 23.279 8.50473 23.2981L8.41393 23.3052L7.84558 23.2779C6.91355 23.2364 6.05758 23.2156 5.27766 23.2156C4.5096 23.2156 3.63912 23.2376 2.66624 23.2815L2.17127 23.3052L2.09062 23.2981C1.98707 23.279 1.89946 23.2216 1.82777 23.126C1.73816 23.0066 1.69336 22.8672 1.69336 22.7079C1.71327 22.449 1.77301 22.2947 1.87257 22.2449C1.97214 22.1951 2.15135 22.1702 2.41022 22.1702L2.59737 22.166C3.01772 22.1464 3.32372 22.0582 3.51538 21.9014C3.73442 21.7222 3.85888 21.5131 3.88874 21.2741C3.89728 21.2059 3.90459 21.1262 3.91069 21.0352L3.92532 20.728L3.93263 20.3525V13.0857L3.92532 12.7102L3.91069 12.403C3.90459 12.312 3.89728 12.2323 3.88874 12.164C3.85888 11.9251 3.73442 11.716 3.51538 11.5368C3.29634 11.3576 2.92795 11.268 2.41022 11.268L2.27402 11.2638C2.10197 11.2526 1.96816 11.2192 1.87257 11.1634C1.7531 11.0937 1.69336 10.9294 1.69336 10.6706C1.69336 10.5511 1.73318 10.4366 1.81284 10.3271C1.89249 10.2176 2.01196 10.1529 2.17127 10.1329C3.42577 9.95372 4.50106 9.69486 5.39714 9.35634ZM13.2527 8.90176C14.1952 8.90176 15.0324 9.22372 15.6724 9.86381C16.3125 10.5039 16.6345 11.341 16.6345 12.2835C16.6345 13.2319 16.3082 14.0709 15.657 14.7036C15.014 15.3282 14.1736 15.6354 13.2229 15.6354C12.2889 15.6354 11.4585 15.3252 10.8186 14.7036C10.1674 14.0709 9.8411 13.2319 9.8411 12.2835C9.8411 11.3326 10.1748 10.489 10.8331 9.84898C11.4805 9.21956 12.3159 8.90176 13.2527 8.90176ZM11.8787 10.9245C12.2372 10.576 12.6952 10.4018 13.2527 10.4018C13.8103 10.4018 14.2633 10.576 14.6118 10.9245C14.9603 11.2729 15.1345 11.726 15.1345 12.2835C15.1345 12.8411 14.9603 13.2891 14.6118 13.6276C14.302 13.9285 13.9018 14.0957 13.4111 14.1291L13.2229 14.1354L13.0409 14.1291C12.5659 14.0957 12.1736 13.9285 11.8638 13.6276C11.5153 13.2891 11.3411 12.8411 11.3411 12.2835C11.3411 11.726 11.5203 11.2729 11.8787 10.9245ZM3.84394 2.81499C4.30193 2.45656 4.81967 2.27734 5.39714 2.27734C5.89496 2.27734 6.30317 2.45158 6.62177 2.80005C6.94038 3.14853 7.09968 3.59159 7.09968 4.12923C7.09968 4.60714 6.91051 5.01535 6.53217 5.35387C6.20112 5.65007 5.80146 5.81669 5.3332 5.85371L5.12831 5.86165L4.92343 5.85348C4.45517 5.81536 4.05551 5.64385 3.72446 5.33893C3.34612 4.99046 3.15695 4.55736 3.15695 4.03963C3.15695 3.58163 3.38595 3.17342 3.84394 2.81499Z" fill="black"/>
</svg>
