<svg width="30" height="27" viewBox="0 0 30 27" fill="none" xmlns="http://www.w3.org/2000/svg">
<path fill-rule="evenodd" clip-rule="evenodd" d="M0.741853 10.3136L28.7419 0.0468593C29.2804 -0.150611 29.8323 0.304991 29.7404 0.871195L25.7404 25.5112C25.6523 26.0537 25.03 26.3203 24.5765 26.0099L12.5765 17.7966C12.2196 17.5524 12.1427 17.0578 12.4085 16.7167L17.446 10.252L9.42366 15.7432C9.22895 15.8765 8.98508 15.9092 8.76517 15.8366L8.65754 15.7915L0.657541 11.6849C0.0759838 11.3864 0.128107 10.5386 0.741853 10.3136ZM24.448 24.105L28.053 1.89702L2.86504 11.132L8.94405 14.253L20.5764 6.2921C21.256 5.82696 22.054 6.63013 21.6464 7.2932L21.5916 7.372L14.081 17.009L24.448 24.105Z" fill="black"/>
</svg>
