<svg width="33" height="32" viewBox="0 0 33 32" fill="none" xmlns="http://www.w3.org/2000/svg">
<path fill-rule="evenodd" clip-rule="evenodd" d="M14.2396 0.165198C19.2731 -0.554207 24.2267 1.09799 27.8206 4.69273C34.0598 10.9319 34.0598 21.0851 27.8206 27.3243C24.6999 30.4442 20.6014 32.0042 16.5037 32.0042C12.4052 32.0042 8.30753 30.4442 5.18756 27.325C2.16515 24.3034 0.5 20.2842 0.5 16.0096C0.5 11.7328 2.16515 7.71438 5.1868 4.69349C5.49011 4.39018 5.8079 4.09983 6.13407 3.82167L1.41755 3.83767H1.41526C0.995353 3.83767 0.654703 3.49854 0.653178 3.07787C0.651654 2.65721 0.992305 2.31503 1.41297 2.31351L8.11853 2.29141C8.30829 2.28607 8.51558 2.37066 8.65885 2.51393C8.80288 2.65644 8.8829 2.85077 8.8829 3.05349V9.91222C8.8829 10.3337 8.54149 10.6743 8.12082 10.6743C7.70015 10.6743 7.35874 10.3337 7.35874 9.91222V4.79332C6.98074 5.10196 6.61189 5.42432 6.26515 5.77031C3.5308 8.50466 2.02416 12.1413 2.02416 16.0081C2.02416 19.8764 3.5308 23.5123 6.26439 26.2482C11.9099 31.8937 21.096 31.8922 26.7423 26.2482C32.387 20.6019 32.387 11.4166 26.7423 5.77107C23.4905 2.51851 19.0117 1.02406 14.4537 1.67488C14.0407 1.73813 13.6512 1.44321 13.5918 1.02711C13.5331 0.610254 13.8227 0.22464 14.2396 0.165198ZM15.7416 4.57155C15.7416 4.15012 16.0823 3.80947 16.5037 3.80947C16.9251 3.80947 17.2658 4.15089 17.2658 4.57155V15.688L23.1392 21.5614C23.4371 21.8594 23.4371 22.341 23.1392 22.639C22.9906 22.7876 22.7955 22.8623 22.6004 22.8623C22.4053 22.8623 22.2102 22.7876 22.0616 22.639L15.7416 16.319V4.57155Z" fill="black"/>
</svg>
