<svg width="39" height="32" viewBox="0 0 39 32" fill="none" xmlns="http://www.w3.org/2000/svg">
<path fill-rule="evenodd" clip-rule="evenodd" d="M0.25 2.50782C0.25 1.26139 1.26139 0.25 2.50782 0.25L19.9058 0.252338C19.9057 0.252338 19.9058 0.252338 19.9058 0.252338C21.1522 0.252392 22.1636 1.26376 22.1636 2.51016V6.15273H27.2182C27.9664 6.15273 28.6687 6.51908 29.0906 7.14733C29.091 7.1479 29.0914 7.14846 29.0918 7.14903L32.6536 12.408L37.2803 14.5758C37.2992 14.5835 37.3409 14.6007 37.391 14.6267C37.4731 14.6631 37.535 14.7034 37.5647 14.7236C37.6558 14.7749 37.7288 14.8307 37.7838 14.8765C37.7844 14.877 37.785 14.8775 37.7856 14.878L37.8005 14.8902L37.8024 14.8918C37.822 14.9078 37.8622 14.9406 37.9062 14.9829L37.9151 14.9907L37.9168 14.9922C37.9314 15.0049 37.9634 15.0328 37.9971 15.0664C38.0762 15.1456 38.1435 15.2276 38.2008 15.3052L38.2031 15.3075L38.235 15.3501C38.3091 15.4489 38.3628 15.5481 38.4017 15.626C38.459 15.7406 38.5042 15.8607 38.5375 15.9707C38.5698 16.0772 38.5972 16.192 38.615 16.3096L38.6304 16.4111L38.6274 16.4356C38.6351 16.5047 38.64 16.5779 38.64 16.6554V24.8962C38.64 26.1426 37.6286 27.154 36.3821 27.154H32.3341C31.9239 29.7558 29.6638 31.75 26.9506 31.75C24.235 31.75 21.9769 29.7556 21.567 27.154H15.0062C14.596 29.7558 12.3358 31.75 9.62266 31.75C6.9071 31.75 4.64894 29.7556 4.2391 27.154H2.50782C1.26139 27.154 0.25 26.1426 0.25 24.8962V2.50782ZM38.1654 15.2698C38.163 15.2674 38.164 15.2683 38.1674 15.2718L38.1654 15.2698ZM2.50772 1.75C2.08976 1.75005 1.75 2.08985 1.75 2.50782V24.8962C1.75 25.3142 2.08982 25.654 2.50782 25.654H5.6581L5.67362 26.3882C5.71878 28.5241 7.4736 30.25 9.62266 30.25C11.7696 30.25 13.5265 28.5239 13.5717 26.3881L13.5872 25.654H22.986L23.0016 26.3882C23.0467 28.5241 24.8015 30.25 26.9506 30.25C29.0975 30.25 30.8545 28.5239 30.8996 26.3881L30.9152 25.654H36.3821C36.8001 25.654 37.14 25.3142 37.14 24.8962V16.6554C37.14 16.6323 37.1378 16.6032 37.1308 16.5597L37.1139 16.4548L37.1145 16.4502C37.1108 16.4358 37.1066 16.4209 37.102 16.4057C37.0886 16.3614 37.0729 16.3225 37.0601 16.2968C37.051 16.2787 37.0445 16.2666 37.0398 16.2584C37.0265 16.2418 37.0123 16.2228 36.9979 16.2013C36.9731 16.1674 36.954 16.1451 36.9396 16.1303L36.9374 16.1284L36.9283 16.1204L36.9274 16.1196L36.9158 16.1094C36.9101 16.1045 36.9032 16.0984 36.8958 16.0917C36.8939 16.0899 36.8919 16.0882 36.8899 16.0863L36.8766 16.0743L36.8674 16.0651L36.8619 16.0604L36.847 16.0482L36.8287 16.0331L36.8253 16.0303C36.8241 16.0293 36.8229 16.0283 36.8219 16.0275L36.7952 16.0141L36.767 15.9951L36.7477 15.9886L36.6985 15.9584L36.6755 15.9489L31.6432 13.5911L27.8478 7.98724L27.8459 7.98429C27.7067 7.77667 27.4744 7.65273 27.2182 7.65273H20.6636V2.51016C20.6636 2.09215 20.3238 1.75234 19.9058 1.75234L2.50772 1.75C2.50775 1.75 2.50768 1.75 2.50772 1.75ZM20.6518 9.15411L26.805 9.15412L30.4917 14.5996L31.7709 15.879H20.6518V9.15411ZM22.1518 10.6541V14.379H28.5309L26.0091 10.6541L22.1518 10.6541ZM7.18936 26.2895C7.18936 24.9555 8.27887 23.8586 9.62019 23.8586C10.9632 23.8586 12.051 24.9502 12.051 26.2895C12.051 26.2901 12.051 26.2912 12.0511 26.2928C12.0513 26.3107 12.0524 26.3881 12.0398 26.4789C11.9422 27.7266 10.8965 28.7156 9.61785 28.7156C8.3452 28.7156 7.30733 27.7197 7.20121 26.4834C7.18814 26.3924 7.18907 26.3148 7.18932 26.2938C7.18934 26.2919 7.18936 26.2904 7.18936 26.2895ZM8.68945 26.2769L8.69045 26.2812L8.69456 26.3402C8.7287 26.8298 9.14114 27.2156 9.61785 27.2156C10.1115 27.2156 10.5158 26.8281 10.5454 26.3463L10.5492 26.2843L10.5509 26.2769C10.5442 25.7704 10.1292 25.3586 9.62019 25.3586C9.11422 25.3586 8.69631 25.7743 8.68945 26.2769ZM26.0197 26.2769L26.0207 26.2812L26.0248 26.3402C26.0589 26.8298 26.4714 27.2156 26.9481 27.2156C27.4417 27.2156 27.846 26.8281 27.8756 26.3463L27.8795 26.2843L27.8812 26.2769C27.8744 25.7704 27.4594 25.3586 26.9504 25.3586C26.4444 25.3586 26.0265 25.7743 26.0197 26.2769ZM24.5196 26.2895C24.5196 24.9555 25.6091 23.8586 26.9504 23.8586C28.2934 23.8586 29.3812 24.9502 29.3812 26.2895C29.3812 26.2901 29.3813 26.2912 29.3813 26.2928C29.3815 26.3107 29.3826 26.3881 29.37 26.4789C29.2724 27.7267 28.2267 28.7156 26.9481 28.7156C25.6754 28.7156 24.6375 27.7197 24.5314 26.4834C24.5184 26.3924 24.5193 26.3148 24.5195 26.2938C24.5196 26.2919 24.5196 26.2904 24.5196 26.2895Z" fill="black"/>
</svg>
