<svg width="33" height="32" viewBox="0 0 33 32" fill="none" xmlns="http://www.w3.org/2000/svg">
<path d="M30.8679 17.2635C30.3942 16.9477 29.7626 16.9477 29.2569 17.2635C27.615 18.3367 25.7204 18.8745 23.7628 18.8745C18.1738 18.8745 13.6255 14.3278 13.6255 8.73718C13.6255 6.77956 14.1942 4.85271 15.2673 3.24315C15.5831 2.73739 15.5831 2.10582 15.2673 1.63215C14.9515 1.15847 14.3521 0.905588 13.7834 1.03266C6.64729 2.38956 1.5 8.64244 1.5 15.8745C1.5 24.2106 8.28937 31 16.6255 31C23.8563 31 30.1092 25.8524 31.4673 18.7472C31.5944 18.1786 31.3415 17.6111 30.8679 17.2633V17.2635Z" stroke="black" stroke-width="1.5"/>
</svg>
