<svg width="37" height="54" viewBox="0 0 37 54" fill="none" xmlns="http://www.w3.org/2000/svg">
<path fill-rule="evenodd" clip-rule="evenodd" d="M34.4592 10.6122C34.6875 9.83186 35.0326 9.09417 35.4844 8.41988L36.2543 7.27137C36.4054 7.04666 36.4394 6.76274 36.3472 6.5082C36.2545 6.25362 36.0468 6.05784 35.7865 5.98213C34.9745 5.74431 34.1531 5.67871 33.3585 5.75662C33.0128 4.65964 32.3202 3.87727 31.4038 3.60925C30.4831 3.33971 29.4776 3.62801 28.5955 4.36767C27.9602 3.86752 27.2319 3.47992 26.4327 3.24606C26.1729 3.16982 25.8923 3.22212 25.6764 3.38708C25.461 3.5521 25.3372 3.80937 25.3431 4.08027L25.3724 5.46264C25.3896 6.27472 25.2825 7.0822 25.0543 7.862L24.5346 9.63862C23.9006 11.8037 25.1078 14.1151 27.2286 14.8516L26.2637 18.1513C23.4377 19.6646 20.3361 22.24 17.8973 26.6151L18.3704 21.2068L21.3583 19.9831C21.7935 19.8048 22.0014 19.3079 21.8232 18.8733C21.6454 18.4388 21.1463 18.2301 20.7134 18.4085L18.5373 19.2997L19.1224 12.6118C21.3741 12.6978 23.3282 11.0011 23.5267 8.73189L23.688 6.88805C23.7589 6.07798 23.9522 5.28716 24.2631 4.5368L24.7922 3.25907C24.8955 3.00854 24.8737 2.72373 24.7334 2.4923C24.5926 2.26083 24.3502 2.10984 24.0802 2.08622C23.2374 2.01248 22.4194 2.10998 21.6557 2.342C21.1018 1.33383 20.2691 0.701998 19.3172 0.618721C18.3637 0.535295 17.4327 1.01396 16.7109 1.91167C15.9904 1.54637 15.1994 1.30868 14.3702 1.23613C14.1001 1.21251 13.8353 1.31855 13.6563 1.52261C13.4774 1.72611 13.4065 2.00282 13.4654 2.26753L13.7645 3.61772C13.9399 4.41063 13.9935 5.22305 13.9226 6.03312L13.7613 7.87696C13.5646 10.1247 15.2011 12.1549 17.4256 12.4611L17.1984 15.0585L15.6008 13.5594C15.2589 13.2386 14.7212 13.2553 14.3987 13.5977C14.0772 13.9401 14.095 14.4784 14.4375 14.7999L17.0104 17.2136L16.3702 24.5314C14.4178 20.3987 11.7354 17.8775 9.55642 16.3998C9.42826 16.313 9.30218 16.2325 9.17603 16.1519L9.12448 16.119L8.80661 13.2393C11.0231 12.8823 12.6128 10.8156 12.3649 8.57334L12.1616 6.73346C12.0723 5.92532 12.1077 5.11157 12.2651 4.31476L12.534 2.95849C12.5863 2.69268 12.5096 2.41786 12.3261 2.21795C12.1427 2.01804 11.8754 1.91725 11.6058 1.94773C10.7787 2.0393 9.99356 2.29451 9.28103 2.67674C8.54024 1.79452 7.59953 1.33652 6.64708 1.44218C5.69812 1.547 4.88018 2.19722 4.34919 3.21749C3.58012 3.00335 2.76048 2.92481 1.91898 3.01797C1.65001 3.04738 1.41089 3.20405 1.27538 3.43867C1.14043 3.67334 1.12517 3.95833 1.23439 4.20639L1.79254 5.47166C2.12091 6.2142 2.33217 7.00056 2.42142 7.8087L2.62476 9.64859C2.85124 11.6988 4.50559 13.2518 6.48614 13.4251C6.69289 13.4432 6.90368 13.4411 7.11659 13.4279L7.30018 15.0902C7.22238 15.052 7.14528 15.015 7.06894 14.9789L6.62025 14.7743L6.40333 14.6806L5.9857 14.5099L5.59146 14.3603L5.04866 14.1725L4.72228 14.0701L4.42681 13.9844L4.04624 13.8846L3.74728 13.8156L3.42314 13.753L3.28956 13.7416C3.05342 13.74 2.82215 13.8364 2.65794 14.0123C2.46637 14.2176 2.38885 14.5051 2.45082 14.7792L7.34128 36.4164C7.35228 36.4663 7.36842 36.5161 7.38875 36.5634L7.47255 36.7415L7.6397 37.0578L7.82789 37.3795L8.02815 37.6941L8.26965 38.0444C8.33969 38.1421 8.41431 38.2428 8.49364 38.3461L8.74593 38.6634C9.146 39.1494 9.6444 39.677 10.2539 40.1976L10.0997 41.9606C10.0287 42.7724 10.4607 43.5138 11.1357 43.8791L10.2471 51.9083C10.1461 52.159 10.1691 52.4422 10.3095 52.6725C10.4504 52.9028 10.6918 53.0526 10.9612 53.0762L20.4304 53.6541C20.6999 53.6777 20.9635 53.5721 21.1423 53.3698C21.3211 53.1674 21.3931 52.8919 21.3365 52.628L19.6138 44.6208C20.3426 44.3783 20.8962 43.7238 20.9673 42.9114L21.0809 41.6127C23.0046 40.8083 24.3395 39.6884 25.1384 38.8637L25.3729 38.6138L25.5722 38.3878L25.7366 38.19L25.9186 37.9555L26.0241 37.8083L26.0918 37.6995L26.1243 37.6299L34.6977 17.1706C34.8064 16.9115 34.7799 16.6154 34.6275 16.3795C34.4745 16.1436 34.2141 15.9967 33.9345 15.9916L33.8104 15.9925L33.3904 16.0122L33.0102 16.044L32.5427 16.0979L32.0916 16.1638L31.5892 16.2522C31.519 16.2656 31.4475 16.2798 31.3748 16.2946L30.9244 16.3927L30.4471 16.51L30.199 16.5763L29.6853 16.7254C29.248 16.8591 28.7882 17.0172 28.3115 17.2039L28.8597 15.3302C29.0671 15.3796 29.2743 15.4188 29.481 15.4369C31.4616 15.6102 33.3599 14.368 33.9395 12.3888L34.4592 10.6122ZM3.35026 4.78484L3.32703 4.73158C3.71921 4.79036 4.09748 4.89746 4.45547 5.04775L4.485 5.06798C5.28933 5.41271 5.97884 5.96371 6.48224 6.66407C6.59433 6.82074 6.69551 6.98499 6.78778 7.15358L6.94004 7.45842C7.05711 7.71542 7.15071 7.98254 7.22072 8.25591L7.28443 8.53781C7.30846 8.65832 7.3282 8.77971 7.34176 8.90233L7.64738 11.6682L7.14274 11.7236L6.96705 11.7364C5.63628 11.7916 4.46544 10.8055 4.31637 9.46131L4.11299 7.62199C4.00524 6.64147 3.74838 5.6866 3.35026 4.78484ZM6.83559 3.13277C6.49585 3.17078 6.1678 3.44605 5.91281 3.88823L6.18724 4.0623L6.51007 4.28998L6.73173 4.4662L7.00885 4.70476L7.15008 4.52187C7.21785 4.43046 7.28613 4.33967 7.35807 4.25261L7.49663 4.09453L7.76363 3.80795L7.89978 3.6693C7.55694 3.29378 7.17903 3.09792 6.83559 3.13277ZM10.4723 6.91981L10.6757 8.75969C10.7932 9.82417 10.2218 10.8244 9.31821 11.3021L9.03225 8.71495C9.00688 8.48447 8.96797 8.25907 8.91962 8.0374L8.82203 7.65886L8.73647 7.37872L8.59565 7.00465L8.48796 6.75132L8.30139 6.38051L8.1514 6.10882L8.22005 5.97479L8.27738 5.87906C8.49167 5.53122 8.74923 5.20937 9.04788 4.92527L9.21231 4.77578C9.321 4.68144 9.43436 4.59156 9.55185 4.50658L9.5606 4.49767L9.80838 4.33156C10.0611 4.17293 10.3286 4.03719 10.6088 3.92851L10.5328 4.34812C10.3979 5.19861 10.3776 6.0618 10.4723 6.91981ZM19.2737 42.7627L19.373 41.6278L11.8943 40.9735L11.795 42.1084C11.7814 42.2643 11.8974 42.402 12.0533 42.4156L18.966 43.0204C19.1219 43.034 19.2601 42.918 19.2737 42.7627ZM16.9744 44.5544L17.8771 44.6334L19.4308 51.859L11.9937 51.4048L12.845 44.1931L15.2656 44.4049L15.4752 49.3476C15.4932 49.7795 15.8304 50.1221 16.2496 50.1588C16.2857 50.1619 16.3232 50.1629 16.3609 50.1611C16.83 50.1412 17.1943 49.7445 17.1744 49.2754L16.9744 44.5544ZM8.03739 17.4122C7.92265 17.3703 7.81618 17.312 7.73026 17.2271C6.92681 16.7533 6.17219 16.3988 5.51619 16.1361L5.04345 15.9559L4.8224 15.8779L4.41388 15.7444L8.98114 35.9554L9.10086 36.1883L9.19823 36.3612L9.39404 36.6806L9.55924 36.9279C9.67889 37.1009 9.81782 37.2894 9.97737 37.4881L10.2324 37.7934C10.6385 38.261 11.1526 38.7682 11.79 39.2573L12.5306 39.3221L11.5679 34.3266C11.4785 33.8651 11.7804 33.4196 12.2419 33.3302C12.7029 33.2407 13.1495 33.5428 13.2383 34.0042L14.1062 38.5087C14.2196 37.7447 14.3473 37.0065 14.4888 36.2934L14.67 35.4279L14.7757 34.9607L14.9705 34.1541C15.0217 33.9525 15.0753 33.7558 15.1289 33.559L15.129 33.5589C15.4947 32.2019 15.9177 30.9132 16.4041 29.7063C14.714 22.8951 11.0764 19.2936 8.03739 17.4122ZM15.6189 6.1821C15.7049 5.19917 15.6398 4.2127 15.4269 3.25029L15.4131 3.1933C15.7894 3.32982 16.1449 3.51461 16.4737 3.73862L16.6597 3.87553C16.7753 3.96298 16.8865 4.05518 16.9931 4.15178L17.1739 4.32523C17.4062 4.55998 17.6122 4.81798 17.7907 5.09362L17.8467 5.1822L17.9202 5.31784L17.776 5.59376L17.5993 5.96658C17.527 6.13614 17.4628 6.3104 17.4046 6.48746L17.3645 6.60121C17.3074 6.78577 17.2607 6.97465 17.22 7.16634L17.196 7.26499C17.1527 7.48718 17.1192 7.71365 17.099 7.94413L16.8722 10.537C15.9587 10.0797 15.3643 9.09304 15.4576 8.02594L15.6189 6.1821ZM20.1077 3.04732C19.8436 2.61153 19.5096 2.34323 19.169 2.31343C18.8283 2.28363 18.4523 2.4898 18.1159 2.87306L18.2573 3.0108L18.387 3.14439C18.4832 3.24161 18.5789 3.33878 18.6684 3.44167C18.7449 3.52976 18.8172 3.62147 18.8887 3.71425L19.03 3.88884L19.1144 3.8154C19.2428 3.69513 19.3747 3.57917 19.5124 3.4694L19.6051 3.39896L19.8373 3.2288L20.1077 3.04732ZM21.9922 6.73912L21.8309 8.58296C21.7086 9.98109 20.4771 11.0186 19.0807 10.9084L18.5506 10.8643L18.7932 8.09178C18.8093 7.90819 18.8394 7.72696 18.8767 7.54694L18.8878 7.49362L18.9713 7.16842C19.0509 6.89828 19.1542 6.63526 19.2808 6.38294L19.3993 6.16095C19.4633 6.04794 19.5324 5.93647 19.6085 5.82587C19.7279 5.65189 19.8585 5.48628 20.004 5.32597C20.4366 4.85094 20.9662 4.46467 21.5621 4.19291L21.5894 4.17366C21.9443 4.01459 22.321 3.89841 22.7129 3.83081L22.5558 4.22901C22.2571 5.03641 22.0675 5.87906 21.9922 6.73912ZM18.0913 30.0572L18.0815 30.0979C17.1083 32.4494 16.3775 35.1324 15.896 38.0944L15.7378 39.1313L15.6783 39.5969L17.9757 39.7979L21.5504 31.5944C21.7378 31.1634 22.2383 30.967 22.6698 31.1545C23.1003 31.3418 23.2972 31.8435 23.1092 32.2739L19.7625 39.9542L20.4912 40.018C22.0299 39.3622 23.1249 38.4685 23.8001 37.7951L24.1184 37.4617L24.2874 37.2698L24.4767 37.0386L24.5896 36.8889L32.6001 17.7761L32.1875 17.8328C31.0249 18.0105 29.3763 18.4095 27.5588 19.2949C27.4438 19.3987 27.3083 19.471 27.1554 19.5004C24.0374 21.1248 20.5052 24.2112 18.0913 30.0572ZM26.1664 10.115L26.6862 8.33833C26.9625 7.39198 27.0932 6.41182 27.0725 5.42525L27.0712 5.36821C27.414 5.57523 27.7262 5.82625 28.0047 6.11075L28.1593 6.28019C28.2551 6.38824 28.3458 6.50015 28.4313 6.61541L28.5766 6.8236C28.7573 7.09829 28.908 7.39017 29.0286 7.69398L29.0684 7.79822L29.1127 7.94212L28.9166 8.18496L28.6704 8.51534C28.5653 8.66838 28.4677 8.82776 28.3755 8.99103L28.3161 9.09057C28.2224 9.26339 28.1378 9.4427 28.0592 9.62594L28.0207 9.70852C27.9367 9.9135 27.8613 10.1243 27.7974 10.3413L27.0612 12.8544C26.2549 12.2271 25.8659 11.1429 26.1664 10.115ZM31.7029 6.14456C31.5285 5.66539 31.2533 5.33677 30.9253 5.24034C30.5989 5.14519 30.1882 5.27262 29.7831 5.5827L29.8931 5.74324L29.9919 5.89583C30.0688 6.01242 30.1456 6.12957 30.2147 6.2506L30.2975 6.40321L30.4806 6.7577L30.5615 6.71127C30.7181 6.61284 30.8781 6.52096 31.0432 6.43692L31.4029 6.26789L31.7029 6.14456ZM32.9042 7.55376L32.9361 7.53948C33.3148 7.45364 33.7065 7.41335 34.1041 7.42309L33.8718 7.78265C33.4204 8.51558 33.07 9.30462 32.8276 10.1336L32.3078 11.9102C31.9134 13.2567 30.5074 14.0313 29.1562 13.6519L29.1328 13.6465L28.6437 13.5046L29.425 10.8332C29.4769 10.6567 29.5421 10.4843 29.6138 10.3152L29.6571 10.2166C29.8117 9.87489 30.0062 9.55151 30.237 9.25522L30.3974 9.05929C30.4809 8.96266 30.569 8.86853 30.6632 8.77621C30.8163 8.62681 30.9792 8.48851 31.1533 8.35973C31.6705 7.97862 32.2654 7.70394 32.9042 7.55376Z" fill="#295E21"/>
<path d="M35.4844 8.41988L35.2767 8.28068L35.2767 8.28073L35.4844 8.41988ZM34.4592 10.6122L34.6992 10.6824L34.6992 10.6824L34.4592 10.6122ZM36.2543 7.27137L36.0468 7.13184L36.0466 7.13217L36.2543 7.27137ZM36.3472 6.5082L36.5823 6.4231L36.5821 6.42266L36.3472 6.5082ZM35.7865 5.98213L35.7162 6.22205L35.7167 6.22218L35.7865 5.98213ZM33.3585 5.75662L33.1201 5.83177L33.1811 6.02522L33.3829 6.00543L33.3585 5.75662ZM31.4038 3.60925L31.3336 3.84918L31.3336 3.8492L31.4038 3.60925ZM28.5955 4.36767L28.4409 4.56411L28.6005 4.68976L28.7561 4.55924L28.5955 4.36767ZM26.4327 3.24606L26.3623 3.48594L26.3625 3.48599L26.4327 3.24606ZM25.6764 3.38708L25.5246 3.18842L25.5243 3.18864L25.6764 3.38708ZM25.3431 4.08027L25.593 4.07497L25.593 4.07483L25.3431 4.08027ZM25.3724 5.46264L25.6223 5.45735L25.6223 5.45734L25.3724 5.46264ZM25.0543 7.862L24.8144 7.79179L24.8144 7.7918L25.0543 7.862ZM24.5346 9.63862L24.7745 9.70887L24.7745 9.70881L24.5346 9.63862ZM27.2286 14.8516L27.4685 14.9218L27.5353 14.6935L27.3106 14.6155L27.2286 14.8516ZM26.2637 18.1513L26.3817 18.3716L26.4742 18.3221L26.5036 18.2214L26.2637 18.1513ZM17.8973 26.6151L17.6482 26.5934L18.1156 26.7369L17.8973 26.6151ZM18.3704 21.2068L18.2757 20.9754L18.1347 21.0332L18.1214 21.185L18.3704 21.2068ZM21.3583 19.9831L21.4531 20.2144L21.4531 20.2144L21.3583 19.9831ZM21.8232 18.8733L21.5918 18.968L21.5919 18.9682L21.8232 18.8733ZM20.7134 18.4085L20.8082 18.6399L20.8087 18.6396L20.7134 18.4085ZM18.5373 19.2997L18.2882 19.2779L18.2525 19.6864L18.632 19.531L18.5373 19.2997ZM19.1224 12.6118L19.1319 12.362L18.8941 12.3529L18.8733 12.59L19.1224 12.6118ZM23.5267 8.73189L23.2776 8.7101L23.5267 8.73189ZM23.688 6.88805L23.937 6.90984V6.90984L23.688 6.88805ZM24.2631 4.5368L24.4941 4.63252L24.4941 4.63244L24.2631 4.5368ZM24.7922 3.25907L25.0231 3.3547L25.0233 3.35438L24.7922 3.25907ZM24.7334 2.4923L24.9472 2.36272L24.947 2.36236L24.7334 2.4923ZM24.0802 2.08622L24.0584 2.33527L24.0802 2.08622ZM21.6557 2.342L21.4366 2.46238L21.5343 2.64018L21.7284 2.58121L21.6557 2.342ZM19.3172 0.618721L19.339 0.369672L19.3172 0.618721ZM16.7109 1.91167L16.5979 2.13465L16.7787 2.22633L16.9057 2.06832L16.7109 1.91167ZM14.3702 1.23613L14.3484 1.48518L14.3702 1.23613ZM13.6563 1.52261L13.8441 1.68767L13.8443 1.68744L13.6563 1.52261ZM13.4654 2.26753L13.7094 2.21346L13.7094 2.21331L13.4654 2.26753ZM13.7645 3.61772L14.0086 3.56372L14.0086 3.56365L13.7645 3.61772ZM13.9226 6.03312L13.6735 6.01133L13.9226 6.03312ZM13.7613 7.87696L14.0103 7.89875L13.7613 7.87696ZM17.4256 12.4611L17.6747 12.4828L17.6954 12.2458L17.4597 12.2134L17.4256 12.4611ZM17.1984 15.0585L17.0273 15.2408L17.4026 15.5929L17.4474 15.0803L17.1984 15.0585ZM15.6008 13.5594L15.7719 13.3771L15.7718 13.3771L15.6008 13.5594ZM14.3987 13.5977L14.2167 13.4262L14.2164 13.4266L14.3987 13.5977ZM14.4375 14.7999L14.2664 14.9821L14.2664 14.9822L14.4375 14.7999ZM17.0104 17.2136L17.2594 17.2354L17.27 17.1144L17.1814 17.0313L17.0104 17.2136ZM16.3702 24.5314L16.1441 24.6382L16.5387 25.4734L16.6192 24.5532L16.3702 24.5314ZM9.55642 16.3998L9.69674 16.1929L9.69668 16.1929L9.55642 16.3998ZM9.17603 16.1519L9.04145 16.3626L9.04149 16.3626L9.17603 16.1519ZM9.12448 16.119L8.87598 16.1464L8.88911 16.2653L8.98989 16.3297L9.12448 16.119ZM8.80661 13.2393L8.76685 12.9925L8.53203 13.0304L8.55812 13.2668L8.80661 13.2393ZM12.3649 8.57334L12.1164 8.6008L12.1164 8.60081L12.3649 8.57334ZM12.1616 6.73346L11.9131 6.7609L11.9131 6.76092L12.1616 6.73346ZM12.2651 4.31476L12.0198 4.26614L12.0198 4.26632L12.2651 4.31476ZM12.534 2.95849L12.7792 3.00711L12.7793 3.00674L12.534 2.95849ZM11.6058 1.94773L11.6333 2.19621L11.6339 2.19615L11.6058 1.94773ZM9.28103 2.67674L9.08958 2.8375L9.22021 2.99307L9.39921 2.89704L9.28103 2.67674ZM6.64708 1.44218L6.67453 1.69067L6.67464 1.69066L6.64708 1.44218ZM4.34919 3.21749L4.28213 3.45833L4.47739 3.5127L4.57096 3.33291L4.34919 3.21749ZM1.91898 3.01797L1.94615 3.26649L1.94649 3.26645L1.91898 3.01797ZM1.27538 3.43867L1.05889 3.31364L1.05865 3.31405L1.27538 3.43867ZM1.23439 4.20639L1.00559 4.30713L1.00566 4.30729L1.23439 4.20639ZM1.79254 5.47166L1.5638 5.57256L1.5639 5.57277L1.79254 5.47166ZM2.42142 7.8087L2.17293 7.83615L2.17293 7.83617L2.42142 7.8087ZM2.62476 9.64859L2.87324 9.62114L2.87324 9.62113L2.62476 9.64859ZM6.48614 13.4251L6.46435 13.6742H6.46435L6.48614 13.4251ZM7.11659 13.4279L7.36508 13.4005L7.33892 13.1636L7.10107 13.1784L7.11659 13.4279ZM7.30018 15.0902L7.19019 15.3147L7.59859 15.5147L7.54867 15.0627L7.30018 15.0902ZM7.06894 14.9789L7.17576 14.7528L7.17267 14.7514L7.06894 14.9789ZM6.62025 14.7743L6.724 14.5468L6.71933 14.5448L6.62025 14.7743ZM6.40333 14.6806L6.50243 14.4511L6.49793 14.4492L6.40333 14.6806ZM5.9857 14.5099L6.08033 14.2784L6.07443 14.2762L5.9857 14.5099ZM5.59146 14.3603L5.68023 14.1264L5.67317 14.124L5.59146 14.3603ZM5.04866 14.1725L5.1304 13.9362L5.12351 13.934L5.04866 14.1725ZM4.72228 14.0701L4.79716 13.8315L4.79191 13.83L4.72228 14.0701ZM4.42681 13.9844L4.49646 13.7443L4.49024 13.7426L4.42681 13.9844ZM4.04624 13.8846L4.1097 13.6427L4.10252 13.641L4.04624 13.8846ZM3.74728 13.8156L3.80359 13.5718L3.79462 13.5701L3.74728 13.8156ZM3.42314 13.753L3.47049 13.5076L3.4576 13.5051L3.44453 13.504L3.42314 13.753ZM3.28956 13.7416L3.31094 13.4925L3.30111 13.4916L3.29125 13.4916L3.28956 13.7416ZM2.65794 14.0123L2.8407 14.1829L2.65794 14.0123ZM2.45082 14.7792L2.69467 14.7241L2.69467 14.724L2.45082 14.7792ZM7.34128 36.4164L7.58542 36.3626L7.58513 36.3613L7.34128 36.4164ZM7.38875 36.5634L7.15894 36.6622L7.16255 36.6699L7.38875 36.5634ZM7.47255 36.7415L7.24609 36.8481L7.25152 36.8583L7.47255 36.7415ZM7.6397 37.0578L7.41846 37.1747L7.42391 37.184L7.6397 37.0578ZM7.82789 37.3795L7.61195 37.5058L7.61698 37.5137L7.82789 37.3795ZM8.02815 37.6941L7.81709 37.8285L7.82232 37.836L8.02815 37.6941ZM8.26965 38.0444L8.06378 38.1864L8.06653 38.1902L8.26965 38.0444ZM8.49364 38.3461L8.29531 38.4984L8.29797 38.5017L8.49364 38.3461ZM8.74593 38.6634L8.55023 38.819L8.55292 38.8223L8.74593 38.6634ZM10.2539 40.1976L10.503 40.2194L10.5142 40.0911L10.4163 40.0075L10.2539 40.1976ZM10.0997 41.9606L9.85063 41.9389L10.0997 41.9606ZM11.1357 43.8791L11.3842 43.9066L11.4027 43.7393L11.2547 43.6592L11.1357 43.8791ZM10.2471 51.9083L10.479 52.0017L10.4918 51.9699L10.4956 51.9358L10.2471 51.9083ZM10.3095 52.6725L10.096 52.8026L10.0962 52.803L10.3095 52.6725ZM10.9612 53.0762L10.9394 53.3253L10.946 53.3257L10.9612 53.0762ZM20.4304 53.6541L20.4522 53.405L20.4456 53.4046L20.4304 53.6541ZM21.3365 52.628L21.5809 52.5756L21.5809 52.5754L21.3365 52.628ZM19.6138 44.6208L19.5349 44.3836L19.3223 44.4543L19.3694 44.6734L19.6138 44.6208ZM20.9673 42.9114L21.2163 42.9332L20.9673 42.9114ZM21.0809 41.6127L20.9844 41.3821L20.845 41.4404L20.8318 41.5909L21.0809 41.6127ZM25.1384 38.8637L25.318 39.0377L25.3207 39.0348L25.1384 38.8637ZM25.3729 38.6138L25.5553 38.785L25.5604 38.7792L25.3729 38.6138ZM25.5722 38.3878L25.7598 38.5532L25.7645 38.5476L25.5722 38.3878ZM25.7366 38.19L25.929 38.3499L25.9341 38.3432L25.7366 38.19ZM25.9186 37.9555L26.1162 38.1088L26.1217 38.1012L25.9186 37.9555ZM26.0241 37.8083L26.2272 37.9541L26.2321 37.9474L26.2364 37.9403L26.0241 37.8083ZM26.0918 37.6995L26.3041 37.8315L26.3119 37.8189L26.3182 37.8055L26.0918 37.6995ZM26.1243 37.6299L26.3509 37.736L26.3549 37.7266L26.1243 37.6299ZM34.6977 17.1706L34.4672 17.074L34.4672 17.074L34.6977 17.1706ZM34.6275 16.3795L34.8375 16.2439L34.8373 16.2435L34.6275 16.3795ZM33.9345 15.9916L33.9391 15.7416L33.9327 15.7416L33.9345 15.9916ZM33.8104 15.9925L33.8086 15.7423L33.7987 15.7428L33.8104 15.9925ZM33.3904 16.0122L33.3787 15.7623L33.3696 15.763L33.3904 16.0122ZM33.0102 16.044L32.9893 15.7948L32.9816 15.7957L33.0102 16.044ZM32.5427 16.0979L32.514 15.8494L32.5065 15.8505L32.5427 16.0979ZM32.0916 16.1638L32.0555 15.9163L32.0483 15.9175L32.0916 16.1638ZM31.5892 16.2522L31.5458 16.0059L31.5422 16.0066L31.5892 16.2522ZM31.3748 16.2946L31.3247 16.0497L31.3215 16.0503L31.3748 16.2946ZM30.9244 16.3927L30.8712 16.1484L30.8648 16.15L30.9244 16.3927ZM30.4471 16.51L30.3874 16.2672L30.3825 16.2685L30.4471 16.51ZM30.199 16.5763L30.1344 16.3347L30.1293 16.3362L30.199 16.5763ZM29.6853 16.7254L29.6156 16.4853L29.6122 16.4863L29.6853 16.7254ZM28.3115 17.2039L28.0716 17.1337L27.9286 17.6225L28.4027 17.4367L28.3115 17.2039ZM28.8597 15.3302L28.9177 15.087L28.6865 15.0319L28.6197 15.26L28.8597 15.3302ZM29.481 15.4369L29.5028 15.1879L29.5028 15.1879L29.481 15.4369ZM33.9395 12.3888L34.1794 12.4591L34.1794 12.459L33.9395 12.3888ZM3.32703 4.73158L3.36409 4.48434L2.91722 4.41735L3.09788 4.83153L3.32703 4.73158ZM3.35026 4.78484L3.12111 4.88479L3.12156 4.88581L3.35026 4.78484ZM4.45547 5.04775L4.59673 4.84149L4.57572 4.82709L4.55224 4.81723L4.45547 5.04775ZM4.485 5.06798L4.34374 5.27424L4.36397 5.2881L4.38652 5.29776L4.485 5.06798ZM6.48224 6.66407L6.68556 6.5186L6.68524 6.51816L6.48224 6.66407ZM6.78778 7.15358L7.01159 7.04179L7.00709 7.03356L6.78778 7.15358ZM6.94004 7.45842L7.1677 7.35472L7.16369 7.34671L6.94004 7.45842ZM7.22072 8.25591L7.46467 8.20078L7.4629 8.19389L7.22072 8.25591ZM7.28443 8.53781L7.52968 8.4889L7.52828 8.4827L7.28443 8.53781ZM7.34176 8.90233L7.59025 8.87487L7.59025 8.87485L7.34176 8.90233ZM7.64738 11.6682L7.67469 11.9167L7.92334 11.8894L7.89586 11.6407L7.64738 11.6682ZM7.14274 11.7236L7.16087 11.9732L7.17006 11.9722L7.14274 11.7236ZM6.96705 11.7364L6.97743 11.9863L6.98517 11.9858L6.96705 11.7364ZM4.31637 9.46131L4.06789 9.48879L4.0679 9.48887L4.31637 9.46131ZM4.11299 7.62199L3.86448 7.6493L3.8645 7.64947L4.11299 7.62199ZM5.91281 3.88823L5.69624 3.76334L5.57651 3.97096L5.7789 4.09934L5.91281 3.88823ZM6.83559 3.13277L6.81035 2.88403L6.80779 2.88432L6.83559 3.13277ZM6.18724 4.0623L6.33151 3.85775L6.32115 3.85119L6.18724 4.0623ZM6.51007 4.28998L6.66564 4.09429L6.66002 4.08982L6.65416 4.08569L6.51007 4.28998ZM6.73173 4.4662L6.89496 4.27659L6.88731 4.2705L6.73173 4.4662ZM7.00885 4.70476L6.84575 4.89423L7.04557 5.06624L7.20672 4.85756L7.00885 4.70476ZM7.15008 4.52187L7.34799 4.6747L7.35091 4.67076L7.15008 4.52187ZM7.35807 4.25261L7.16999 4.08775L7.16535 4.09336L7.35807 4.25261ZM7.49663 4.09453L7.31363 3.92404L7.30863 3.92974L7.49663 4.09453ZM7.76363 3.80795L7.58519 3.63272L7.58071 3.63753L7.76363 3.80795ZM7.89978 3.6693L8.07815 3.84446L8.24401 3.67556L8.0844 3.50074L7.89978 3.6693ZM10.6757 8.75969L10.9242 8.73226L10.9242 8.73223L10.6757 8.75969ZM10.4723 6.91981L10.2239 6.94725L10.2239 6.94727L10.4723 6.91981ZM9.31821 11.3021L9.06972 11.3295L9.1101 11.6948L9.43504 11.5231L9.31821 11.3021ZM9.03225 8.71495L8.78375 8.74231L8.78376 8.74242L9.03225 8.71495ZM8.91962 8.0374L9.16405 7.98409L9.16171 7.97498L8.91962 8.0374ZM8.82203 7.65886L9.06435 7.59639L9.06113 7.58583L8.82203 7.65886ZM8.73647 7.37872L8.97556 7.30569L8.97324 7.29808L8.97044 7.29064L8.73647 7.37872ZM8.59565 7.00465L8.82983 6.9165L8.82572 6.90685L8.59565 7.00465ZM8.48796 6.75132L8.71803 6.65351L8.71489 6.64613L8.71128 6.63895L8.48796 6.75132ZM8.30139 6.38051L8.52488 6.26806L8.52026 6.25969L8.30139 6.38051ZM8.1514 6.10882L7.92889 5.99484L7.86827 6.11321L7.93254 6.22964L8.1514 6.10882ZM8.22005 5.97479L8.00557 5.84636L8.00132 5.85346L7.99754 5.86082L8.22005 5.97479ZM8.27738 5.87906L8.06452 5.74791L8.0629 5.75062L8.27738 5.87906ZM9.04788 4.92527L8.87967 4.74024L8.87557 4.74414L9.04788 4.92527ZM9.21231 4.77578L9.04839 4.58694L9.04414 4.5908L9.21231 4.77578ZM9.55185 4.50658L9.69836 4.70915L9.71546 4.69679L9.73024 4.68173L9.55185 4.50658ZM9.5606 4.49767L9.42139 4.29002L9.40013 4.30427L9.3822 4.32253L9.5606 4.49767ZM9.80838 4.33156L9.67543 4.11971L9.66917 4.1239L9.80838 4.33156ZM10.6088 3.92851L10.8548 3.97307L10.9343 3.53408L10.5184 3.69543L10.6088 3.92851ZM10.5328 4.34812L10.2868 4.30355L10.2859 4.30894L10.5328 4.34812ZM19.373 41.6278L19.6221 41.6496L19.6439 41.4006L19.3948 41.3788L19.373 41.6278ZM19.2737 42.7627L19.5228 42.7845L19.2737 42.7627ZM11.8943 40.9735L11.9161 40.7245L11.667 40.7027L11.6452 40.9517L11.8943 40.9735ZM11.795 42.1084L12.044 42.1302L11.795 42.1084ZM12.0533 42.4156L12.0315 42.6647H12.0315L12.0533 42.4156ZM18.966 43.0204L18.9878 42.7713L18.966 43.0204ZM17.8771 44.6334L18.1215 44.5808L18.0828 44.4004L17.8989 44.3843L17.8771 44.6334ZM16.9744 44.5544L16.9962 44.3053L16.7126 44.2805L16.7246 44.565L16.9744 44.5544ZM19.4308 51.859L19.4156 52.1086L19.7445 52.1286L19.6752 51.8065L19.4308 51.859ZM11.9937 51.4048L11.7454 51.3755L11.7144 51.6382L11.9785 51.6543L11.9937 51.4048ZM12.845 44.1931L12.8668 43.9441L12.6251 43.9229L12.5967 44.1638L12.845 44.1931ZM15.2656 44.4049L15.5154 44.3943L15.5061 44.175L15.2874 44.1558L15.2656 44.4049ZM15.4752 49.3476L15.725 49.3372L15.725 49.337L15.4752 49.3476ZM16.2496 50.1588L16.2278 50.4078H16.2278L16.2496 50.1588ZM16.3609 50.1611L16.3504 49.9113L16.3489 49.9114L16.3609 50.1611ZM17.1744 49.2754L17.4242 49.2648V49.2648L17.1744 49.2754ZM7.73026 17.2271L7.90601 17.0493L7.88396 17.0275L7.85726 17.0118L7.73026 17.2271ZM8.03739 17.4122L8.16898 17.1996L8.14721 17.1862L8.12317 17.1774L8.03739 17.4122ZM5.51619 16.1361L5.60913 15.904L5.60525 15.9025L5.51619 16.1361ZM5.04345 15.9559L5.13253 15.7222L5.12666 15.7202L5.04345 15.9559ZM4.8224 15.8779L4.90564 15.6421L4.90004 15.6403L4.8224 15.8779ZM4.41388 15.7444L4.49152 15.5068L4.07298 15.37L4.17003 15.7995L4.41388 15.7444ZM8.98114 35.9554L8.73729 36.0105L8.74429 36.0414L8.7588 36.0696L8.98114 35.9554ZM9.10086 36.1883L8.87835 36.3026L8.88301 36.3109L9.10086 36.1883ZM9.19823 36.3612L8.98023 36.4839L8.9851 36.4919L9.19823 36.3612ZM9.39404 36.6806L9.18075 36.8114L9.18615 36.8194L9.39404 36.6806ZM9.55924 36.9279L9.35132 37.0668L9.35362 37.0701L9.55924 36.9279ZM9.97737 37.4881L9.78238 37.6447L9.7855 37.6484L9.97737 37.4881ZM10.2324 37.7934L10.0404 37.9537L10.0436 37.9573L10.2324 37.7934ZM11.79 39.2573L11.6378 39.4556L11.6956 39.5L11.7682 39.5063L11.79 39.2573ZM12.5306 39.3221L12.5088 39.5711L12.8387 39.6L12.7761 39.2748L12.5306 39.3221ZM11.5679 34.3266L11.8134 34.2793L11.8133 34.279L11.5679 34.3266ZM12.2419 33.3302L12.2895 33.5756L12.2896 33.5756L12.2419 33.3302ZM13.2383 34.0042L12.9928 34.0515L12.9928 34.0515L13.2383 34.0042ZM14.1062 38.5087L13.8607 38.556L14.3535 38.5454L14.1062 38.5087ZM14.4888 36.2934L14.2441 36.2422L14.2436 36.2448L14.4888 36.2934ZM14.67 35.4279L14.4262 35.3727L14.4253 35.3767L14.67 35.4279ZM14.7757 34.9607L14.5327 34.902L14.5319 34.9055L14.7757 34.9607ZM14.9705 34.1541L14.7281 34.0925L14.7274 34.0954L14.9705 34.1541ZM15.1289 33.559L15.3701 33.6248L15.3703 33.624L15.1289 33.559ZM15.129 33.5589L14.8876 33.4938L14.8876 33.4939L15.129 33.5589ZM16.4041 29.7063L16.636 29.7998L16.6663 29.7247L16.6468 29.6461L16.4041 29.7063ZM15.4269 3.25029L15.671 3.19627L15.6699 3.19146L15.4269 3.25029ZM15.6189 6.1821L15.868 6.20389V6.20389L15.6189 6.1821ZM15.4131 3.1933L15.4984 2.95829L15.0605 2.79942L15.1701 3.25213L15.4131 3.1933ZM16.4737 3.73862L16.6219 3.53713L16.6144 3.53202L16.4737 3.73862ZM16.6597 3.87553L16.8106 3.67613L16.8079 3.67417L16.6597 3.87553ZM16.9931 4.15178L17.1662 3.97132L17.161 3.96659L16.9931 4.15178ZM17.1739 4.32523L17.3516 4.1493L17.3469 4.14484L17.1739 4.32523ZM17.7907 5.09362L18.002 4.96001L18.0005 4.95772L17.7907 5.09362ZM17.8467 5.1822L18.0665 5.06307L18.0625 5.05569L18.058 5.0486L17.8467 5.1822ZM17.9202 5.31784L18.1418 5.43362L18.2034 5.3157L18.14 5.19872L17.9202 5.31784ZM17.776 5.59376L17.5543 5.47789L17.5501 5.48668L17.776 5.59376ZM17.5993 5.96658L17.3733 5.85942L17.3694 5.86849L17.5993 5.96658ZM17.4046 6.48746L17.6405 6.57064L17.6421 6.56551L17.4046 6.48746ZM17.3645 6.60121L17.1286 6.518L17.1257 6.52729L17.3645 6.60121ZM17.22 7.16634L17.463 7.22546L17.4646 7.21823L17.22 7.16634ZM17.196 7.26499L16.9528 7.20583L16.9506 7.21712L17.196 7.26499ZM17.099 7.94413L16.85 7.92234L17.099 7.94413ZM16.8722 10.537L16.7603 10.7606L17.0892 10.9252L17.1212 10.5588L16.8722 10.537ZM15.4576 8.02594L15.7067 8.04773L15.4576 8.02594ZM19.169 2.31343L19.1472 2.56248L19.169 2.31343ZM20.1077 3.04732L20.2471 3.2549L20.4453 3.12188L20.3215 2.91774L20.1077 3.04732ZM18.1159 2.87306L17.928 2.70815L17.7715 2.88651L17.9414 3.05211L18.1159 2.87306ZM18.2573 3.0108L18.4366 2.83655L18.4317 2.83175L18.2573 3.0108ZM18.387 3.14439L18.2077 3.31859L18.2093 3.32027L18.387 3.14439ZM18.6684 3.44167L18.8571 3.27771L18.857 3.27762L18.6684 3.44167ZM18.8887 3.71425L18.6907 3.86699L18.6944 3.8715L18.8887 3.71425ZM19.03 3.88884L18.8357 4.04609L18.9986 4.24752L19.1941 4.07744L19.03 3.88884ZM19.1144 3.8154L19.2786 4.00413L19.2853 3.99783L19.1144 3.8154ZM19.5124 3.4694L19.3611 3.27031L19.3566 3.27393L19.5124 3.4694ZM19.6051 3.39896L19.4573 3.19726L19.4538 3.19992L19.6051 3.39896ZM19.8373 3.2288L19.6979 3.02105L19.6896 3.02713L19.8373 3.2288ZM21.8309 8.58296L21.5818 8.56117V8.56117L21.8309 8.58296ZM21.9922 6.73912L21.7432 6.71733L21.9922 6.73912ZM19.0807 10.9084L19.06 11.1576L19.0611 11.1576L19.0807 10.9084ZM18.5506 10.8643L18.3016 10.8425L18.2797 11.0926L18.5299 11.1135L18.5506 10.8643ZM18.7932 8.09178L18.5442 8.06999V8.06999L18.7932 8.09178ZM18.8767 7.54694L19.1215 7.59777V7.59776L18.8767 7.54694ZM18.8878 7.49362L18.6454 7.43136L18.643 7.4428L18.8878 7.49362ZM18.9713 7.16842L18.7314 7.09775L18.7292 7.10623L18.9713 7.16842ZM19.2808 6.38294L19.0602 6.26516L19.0574 6.27077L19.2808 6.38294ZM19.3993 6.16095L19.1817 6.03774L19.1788 6.04322L19.3993 6.16095ZM19.6085 5.82587L19.8145 5.96756L19.8146 5.96732L19.6085 5.82587ZM20.004 5.32597L19.8192 5.15763L19.8189 5.15794L20.004 5.32597ZM21.5621 4.19291L21.6658 4.42037L21.687 4.41068L21.7061 4.39724L21.5621 4.19291ZM21.5894 4.17366L21.4871 3.94553L21.4651 3.95541L21.4453 3.96933L21.5894 4.17366ZM22.7129 3.83081L22.9454 3.92254L23.1086 3.50883L22.6703 3.58445L22.7129 3.83081ZM22.5558 4.22901L22.3232 4.13726L22.3213 4.14228L22.5558 4.22901ZM18.0815 30.0979L18.3125 30.1935L18.32 30.1755L18.3245 30.1565L18.0815 30.0979ZM18.0913 30.0572L17.8603 29.9617L17.8529 29.9797L17.8483 29.9985L18.0913 30.0572ZM15.896 38.0944L15.6492 38.0543L15.6489 38.0567L15.896 38.0944ZM15.7378 39.1313L15.4906 39.0936L15.4898 39.0996L15.7378 39.1313ZM15.6783 39.5969L15.4303 39.5652L15.3973 39.8233L15.6565 39.8459L15.6783 39.5969ZM17.9757 39.7979L17.9539 40.0469L18.1331 40.0626L18.2049 39.8978L17.9757 39.7979ZM21.5504 31.5944L21.7796 31.6943L21.7796 31.6941L21.5504 31.5944ZM22.6698 31.1545L22.7696 30.9252L22.7694 30.9252L22.6698 31.1545ZM23.1092 32.2739L22.8801 32.1738L22.8801 32.174L23.1092 32.2739ZM19.7625 39.9542L19.5333 39.8543L19.3945 40.173L19.7407 40.2033L19.7625 39.9542ZM20.4912 40.018L20.4694 40.267L20.5317 40.2725L20.5893 40.2479L20.4912 40.018ZM23.8001 37.7951L23.9767 37.9722L23.9809 37.9678L23.8001 37.7951ZM24.1184 37.4617L24.2994 37.6345L24.306 37.6269L24.1184 37.4617ZM24.2874 37.2698L24.4752 37.4351L24.4809 37.4282L24.2874 37.2698ZM24.4767 37.0386L24.6703 37.1971L24.6763 37.1891L24.4767 37.0386ZM24.5896 36.8889L24.7892 37.0394L24.8081 37.0144L24.8202 36.9855L24.5896 36.8889ZM32.6001 17.7761L32.8307 17.8727L33 17.4687L32.566 17.5284L32.6001 17.7761ZM32.1875 17.8328L32.1535 17.5851L32.1498 17.5857L32.1875 17.8328ZM27.5588 19.2949L27.4493 19.0701L27.4175 19.0856L27.3913 19.1093L27.5588 19.2949ZM27.1554 19.5004L27.1084 19.2548L27.0724 19.2617L27.0399 19.2786L27.1554 19.5004ZM26.6862 8.33833L26.9261 8.40852L26.9261 8.4084L26.6862 8.33833ZM26.1664 10.115L25.9265 10.0448L25.9265 10.0448L26.1664 10.115ZM27.0725 5.42525L27.3225 5.42L27.3225 5.41967L27.0725 5.42525ZM27.0712 5.36821L27.2005 5.15421L26.8112 4.91909L26.8213 5.37379L27.0712 5.36821ZM28.0047 6.11075L28.1895 5.94213L28.1834 5.93587L28.0047 6.11075ZM28.1593 6.28019L28.3464 6.11433L28.344 6.11167L28.1593 6.28019ZM28.4313 6.61541L28.6364 6.47228L28.6321 6.46641L28.4313 6.61541ZM28.5766 6.8236L28.7855 6.68612L28.7816 6.68054L28.5766 6.8236ZM29.0286 7.69398L29.2621 7.60473L29.2609 7.6018L29.0286 7.69398ZM29.0684 7.79822L29.3073 7.72461L29.3049 7.71671L29.3019 7.70898L29.0684 7.79822ZM29.1127 7.94212L29.3072 8.09917L29.3908 7.99566L29.3516 7.86852L29.1127 7.94212ZM28.9166 8.18496L28.722 8.0278L28.7162 8.03555L28.9166 8.18496ZM28.6704 8.51534L28.4698 8.36581L28.4642 8.37388L28.6704 8.51534ZM28.3755 8.99103L28.5902 9.11912L28.5931 9.11403L28.3755 8.99103ZM28.3161 9.09057L28.1012 8.9624L28.0963 8.97144L28.3161 9.09057ZM28.0592 9.62594L28.2859 9.7317L28.2889 9.72454L28.0592 9.62594ZM28.0207 9.70852L27.7939 9.60269L27.7893 9.61376L28.0207 9.70852ZM27.7974 10.3413L27.5576 10.2706L27.5575 10.271L27.7974 10.3413ZM27.0612 12.8544L26.9077 13.0517L27.1978 13.2774L27.3011 12.9246L27.0612 12.8544ZM30.9253 5.24034L30.9958 5.00049L30.9953 5.00033L30.9253 5.24034ZM31.7029 6.14456L31.7979 6.37578L32.0198 6.28455L31.9378 6.05907L31.7029 6.14456ZM29.7831 5.5827L29.6311 5.38418L29.4427 5.52837L29.5769 5.72404L29.7831 5.5827ZM29.8931 5.74324L30.103 5.60733L30.0993 5.6019L29.8931 5.74324ZM29.9919 5.89583L29.782 6.0317L29.7832 6.03347L29.9919 5.89583ZM30.2147 6.2506L30.4345 6.13137L30.4318 6.12664L30.2147 6.2506ZM30.2975 6.40321L30.5197 6.28846L30.5173 6.28401L30.2975 6.40321ZM30.4806 6.7577L30.2585 6.87242L30.3784 7.10459L30.605 6.97453L30.4806 6.7577ZM30.5615 6.71127L30.686 6.92828L30.6945 6.92293L30.5615 6.71127ZM31.0432 6.43692L30.9368 6.21054L30.9297 6.21414L31.0432 6.43692ZM31.4029 6.26789L31.3077 6.03638L31.2966 6.04162L31.4029 6.26789ZM32.9361 7.53948L32.8809 7.29567L32.8568 7.30113L32.8342 7.31119L32.9361 7.53948ZM32.9042 7.55376L32.9614 7.79712L32.9844 7.7917L33.0061 7.78205L32.9042 7.55376ZM34.1041 7.42309L34.3141 7.55877L34.5562 7.18409L34.1103 7.17316L34.1041 7.42309ZM33.8718 7.78265L33.6618 7.64693L33.6589 7.65155L33.8718 7.78265ZM32.8276 10.1336L33.0675 10.2038L33.0675 10.2038L32.8276 10.1336ZM32.3078 11.9102L32.5478 11.9805L32.5478 11.9804L32.3078 11.9102ZM29.1562 13.6519L29.2239 13.4109L29.2116 13.4081L29.1562 13.6519ZM29.1328 13.6465L29.0631 13.8866L29.0702 13.8887L29.0774 13.8903L29.1328 13.6465ZM28.6437 13.5046L28.4038 13.4344L28.3334 13.6748L28.574 13.7446L28.6437 13.5046ZM29.425 10.8332L29.1852 10.7627L29.1851 10.763L29.425 10.8332ZM29.6138 10.3152L29.3849 10.2147L29.3836 10.2176L29.6138 10.3152ZM29.6571 10.2166L29.4293 10.1135L29.4283 10.116L29.6571 10.2166ZM30.237 9.25522L30.0435 9.09681L30.0398 9.10157L30.237 9.25522ZM30.3974 9.05929L30.2082 8.89582L30.204 8.90093L30.3974 9.05929ZM30.6632 8.77621L30.4886 8.59729L30.4882 8.59764L30.6632 8.77621ZM31.1533 8.35973L31.005 8.15847L31.0046 8.15875L31.1533 8.35973ZM35.2767 8.28073C34.8107 8.97621 34.4547 9.73716 34.2193 10.542L34.6992 10.6824C34.9202 9.92655 35.2545 9.21212 35.6921 8.55903L35.2767 8.28073ZM36.0466 7.13217L35.2767 8.28068L35.6921 8.55908L36.4619 7.41057L36.0466 7.13217ZM36.1122 6.5933C36.1774 6.77347 36.1531 6.97386 36.0468 7.13184L36.4617 7.4109C36.6578 7.11945 36.7014 6.75201 36.5823 6.4231L36.1122 6.5933ZM35.7167 6.22218C35.8998 6.27546 36.0466 6.41339 36.1123 6.59375L36.5821 6.42266C36.4624 6.09384 36.1938 5.84023 35.8563 5.74208L35.7167 6.22218ZM33.3829 6.00543C34.1472 5.9305 34.9363 5.99362 35.7162 6.22205L35.8567 5.74221C35.0127 5.495 34.1591 5.42692 33.3341 5.50781L33.3829 6.00543ZM31.3336 3.8492C32.1491 4.0877 32.7921 4.79113 33.1201 5.83177L33.597 5.68147C33.2335 4.52815 32.4913 3.66683 31.474 3.36931L31.3336 3.8492ZM28.7561 4.55924C29.593 3.85752 30.514 3.60926 31.3336 3.84918L31.4741 3.36932C30.4521 3.07016 29.3623 3.3985 28.4349 4.1761L28.7561 4.55924ZM26.3625 3.48599C27.1293 3.71038 27.8292 4.08259 28.4409 4.56411L28.7501 4.17124C28.0912 3.65246 27.3345 3.24945 26.5029 3.00612L26.3625 3.48599ZM25.8281 3.58575C25.9811 3.46892 26.1792 3.43222 26.3623 3.48594L26.5031 3.00617C26.1666 2.90743 25.8035 2.97532 25.5246 3.18842L25.8281 3.58575ZM25.593 4.07483C25.5888 3.88387 25.6761 3.70223 25.8284 3.58553L25.5243 3.18864C25.2459 3.40197 25.0855 3.73488 25.0931 4.08572L25.593 4.07483ZM25.6223 5.45734L25.593 4.07497L25.0931 4.08558L25.1224 5.46795L25.6223 5.45734ZM25.2943 7.9322C25.5296 7.12791 25.6401 6.29498 25.6223 5.45735L25.1224 5.46793C25.1391 6.25447 25.0354 7.03648 24.8144 7.79179L25.2943 7.9322ZM24.7745 9.70881L25.2943 7.93219L24.8144 7.7918L24.2946 9.56842L24.7745 9.70881ZM27.3106 14.6155C25.3146 13.9223 24.1783 11.745 24.7745 9.70887L24.2947 9.56836C23.6229 11.8624 24.9009 14.3079 27.1466 15.0878L27.3106 14.6155ZM26.5036 18.2214L27.4685 14.9218L26.9886 14.7815L26.0237 18.0811L26.5036 18.2214ZM18.1156 26.7369C20.5294 22.4067 23.5946 19.8642 26.3817 18.3716L26.1457 17.9309C23.2808 19.4651 20.1428 22.0733 17.6789 26.4934L18.1156 26.7369ZM18.1214 21.185L17.6482 26.5934L18.1463 26.6369L18.6195 21.2286L18.1214 21.185ZM21.2636 19.7517L18.2757 20.9754L18.4652 21.4381L21.4531 20.2144L21.2636 19.7517ZM21.5919 18.9682C21.7177 19.2749 21.571 19.6258 21.2636 19.7517L21.4531 20.2144C22.0159 19.9839 22.2852 19.3409 22.0544 18.7784L21.5919 18.9682ZM20.8087 18.6396C21.1133 18.5141 21.4663 18.6612 21.5918 18.968L22.0545 18.7787C21.8246 18.2164 21.1792 17.9461 20.6181 18.1774L20.8087 18.6396ZM18.632 19.531L20.8082 18.6399L20.6187 18.1772L18.4425 19.0683L18.632 19.531ZM18.8733 12.59L18.2882 19.2779L18.7863 19.3214L19.3714 12.6336L18.8733 12.59ZM23.2776 8.7101C23.0908 10.8453 21.2517 12.4429 19.1319 12.362L19.1129 12.8616C21.4966 12.9526 23.5655 11.1569 23.7757 8.75368L23.2776 8.7101ZM23.4389 6.86626L23.2776 8.7101L23.7757 8.75368L23.937 6.90984L23.4389 6.86626ZM24.0322 4.44109C23.7114 5.21509 23.512 6.03085 23.4389 6.86626L23.937 6.90984C24.0057 6.12511 24.1929 5.35923 24.4941 4.63252L24.0322 4.44109ZM24.5612 3.16343L24.0322 4.44117L24.4941 4.63244L25.0231 3.3547L24.5612 3.16343ZM24.5197 2.62189C24.6186 2.7852 24.6341 2.98651 24.561 3.16375L25.0233 3.35438C25.1568 3.03057 25.1288 2.66226 24.9472 2.36272L24.5197 2.62189ZM24.0584 2.33527C24.2489 2.35194 24.4202 2.4585 24.5199 2.62225L24.947 2.36236C24.765 2.06316 24.4515 1.86775 24.102 1.83717L24.0584 2.33527ZM21.7284 2.58121C22.4631 2.358 23.249 2.26445 24.0584 2.33527L24.102 1.83717C23.2258 1.76051 22.3758 1.86195 21.583 2.1028L21.7284 2.58121ZM19.2955 0.867769C20.1426 0.941882 20.9112 1.50602 21.4366 2.46238L21.8748 2.22163C21.2925 1.16165 20.3956 0.462113 19.339 0.369672L19.2955 0.867769ZM16.9057 2.06832C17.5905 1.2166 18.4467 0.793512 19.2955 0.867769L19.339 0.369672C18.2807 0.277079 17.2748 0.811324 16.5161 1.75502L16.9057 2.06832ZM14.3484 1.48518C15.144 1.55479 15.9041 1.78293 16.5979 2.13465L16.824 1.68869C16.0766 1.30981 15.2549 1.06258 14.3919 0.987081L14.3484 1.48518ZM13.8443 1.68744C13.9706 1.54337 14.1575 1.46848 14.3484 1.48518L14.3919 0.987081C14.0427 0.956527 13.6999 1.09373 13.4684 1.35779L13.8443 1.68744ZM13.7094 2.21331C13.6679 2.02636 13.718 1.83115 13.8441 1.68767L13.4686 1.35755C13.2369 1.62108 13.1452 1.97928 13.2213 2.32175L13.7094 2.21331ZM14.0086 3.56365L13.7094 2.21346L13.2213 2.3216L13.5204 3.67179L14.0086 3.56365ZM14.1716 6.05491C14.2447 5.21938 14.1894 4.3814 14.0086 3.56372L13.5204 3.67172C13.6903 4.43985 13.7422 5.22672 13.6735 6.01133L14.1716 6.05491ZM14.0103 7.89875L14.1716 6.05491L13.6735 6.01133L13.5122 7.85517L14.0103 7.89875ZM17.4597 12.2134C15.3662 11.9252 13.8254 10.0127 14.0103 7.89875L13.5122 7.85517C13.3039 10.2367 15.036 12.3845 17.3915 12.7087L17.4597 12.2134ZM17.4474 15.0803L17.6747 12.4828L17.1766 12.4393L16.9493 15.0367L17.4474 15.0803ZM15.4297 13.7417L17.0273 15.2408L17.3694 14.8762L15.7719 13.3771L15.4297 13.7417ZM14.5806 13.7691C14.8089 13.5268 15.1886 13.5155 15.4297 13.7417L15.7718 13.3771C15.3291 12.9617 14.6335 12.9838 14.2167 13.4262L14.5806 13.7691ZM14.6086 14.6176C14.3665 14.3904 14.3543 14.0102 14.5809 13.7687L14.2164 13.4266C13.8002 13.87 13.8236 14.5665 14.2664 14.9821L14.6086 14.6176ZM17.1814 17.0313L14.6085 14.6175L14.2664 14.9822L16.8393 17.396L17.1814 17.0313ZM16.6192 24.5532L17.2594 17.2354L16.7613 17.1918L16.1211 24.5096L16.6192 24.5532ZM9.41611 16.6067C11.5639 18.0633 14.2137 20.552 16.1441 24.6382L16.5962 24.4246C14.6219 20.2455 11.9068 17.6917 9.69674 16.1929L9.41611 16.6067ZM9.04149 16.3626C9.16804 16.4434 9.29128 16.5221 9.41617 16.6068L9.69668 16.1929C9.56523 16.1038 9.43632 16.0215 9.31058 15.9412L9.04149 16.3626ZM8.98989 16.3297L9.04145 16.3626L9.31062 15.9412L9.25906 15.9083L8.98989 16.3297ZM8.55812 13.2668L8.87598 16.1464L9.37297 16.0915L9.05511 13.2119L8.55812 13.2668ZM12.1164 8.60081C12.3495 10.7095 10.8528 12.6565 8.76685 12.9925L8.84638 13.4862C11.1934 13.108 12.876 10.9216 12.6134 8.54588L12.1164 8.60081ZM11.9131 6.76092L12.1164 8.6008L12.6134 8.54588L12.4101 6.706L11.9131 6.76092ZM12.0198 4.26632C11.8575 5.08798 11.821 5.92731 11.9131 6.7609L12.4101 6.70602C12.3236 5.92333 12.3579 5.13516 12.5103 4.3632L12.0198 4.26632ZM12.2888 2.90986L12.0198 4.26614L12.5103 4.36339L12.7792 3.00711L12.2888 2.90986ZM12.1419 2.38698C12.2714 2.52807 12.3257 2.72213 12.2887 2.91023L12.7793 3.00674C12.8469 2.66322 12.7477 2.30766 12.5103 2.04892L12.1419 2.38698ZM11.6339 2.19615C11.8236 2.1747 12.0121 2.24552 12.1419 2.38698L12.5103 2.04892C12.2732 1.79057 11.9273 1.65979 11.5777 1.69931L11.6339 2.19615ZM9.39921 2.89704C10.0852 2.52907 10.8396 2.28408 11.6333 2.19621L11.5783 1.69925C10.7177 1.79453 9.90195 2.05995 9.16286 2.45643L9.39921 2.89704ZM6.67464 1.69066C7.52232 1.59662 8.38679 2.00054 9.08958 2.8375L9.47249 2.51597C8.69369 1.58849 7.67675 1.07643 6.61952 1.1937L6.67464 1.69066ZM4.57096 3.33291C5.07467 2.36503 5.83007 1.78395 6.67453 1.69067L6.61963 1.19369C5.56617 1.31006 4.68568 2.0294 4.12743 3.10208L4.57096 3.33291ZM1.94649 3.26645C2.7547 3.17698 3.54225 3.25231 4.28213 3.45833L4.41625 2.97666C3.61799 2.75438 2.76626 2.67264 1.89147 2.76949L1.94649 3.26645ZM1.49186 3.56371C1.58778 3.39764 1.75683 3.28719 1.94615 3.26649L1.89181 2.76945C1.54319 2.80756 1.23399 3.01047 1.05889 3.31364L1.49186 3.56371ZM1.4632 4.10565C1.38599 3.93029 1.39682 3.72898 1.4921 3.5633L1.05865 3.31405C0.884037 3.6177 0.864358 3.98636 1.00559 4.30713L1.4632 4.10565ZM2.02127 5.37076L1.46313 4.10549L1.00566 4.30729L1.5638 5.57256L2.02127 5.37076ZM2.66991 7.78126C2.57787 6.94784 2.35995 6.13661 2.02118 5.37055L1.5639 5.57277C1.88187 6.29178 2.08647 7.05329 2.17293 7.83615L2.66991 7.78126ZM2.87324 9.62113L2.66991 7.78124L2.17293 7.83617L2.37627 9.67605L2.87324 9.62113ZM6.50792 13.1761C4.64361 13.013 3.08637 11.5505 2.87324 9.62114L2.37627 9.67604C2.61611 11.8472 4.36757 13.4907 6.46435 13.6742L6.50792 13.1761ZM7.10107 13.1784C6.89639 13.1911 6.69868 13.1928 6.50792 13.1761L6.46435 13.6742C6.6871 13.6936 6.91098 13.6912 7.13212 13.6774L7.10107 13.1784ZM7.54867 15.0627L7.36508 13.4005L6.8681 13.4553L7.05169 15.1176L7.54867 15.0627ZM6.96212 15.2049C7.03742 15.2405 7.11345 15.2771 7.19019 15.3147L7.41016 14.8657C7.3313 14.827 7.25315 14.7894 7.17575 14.7529L6.96212 15.2049ZM6.51652 15.0017L6.96521 15.2064L7.17267 14.7514L6.72398 14.5468L6.51652 15.0017ZM6.30425 14.9102L6.52117 15.0038L6.71933 14.5448L6.50242 14.4511L6.30425 14.9102ZM5.89111 14.7413L6.30874 14.9121L6.49793 14.4492L6.0803 14.2785L5.89111 14.7413ZM5.50274 14.594L5.89698 14.7436L6.07443 14.2762L5.68019 14.1265L5.50274 14.594ZM4.96695 14.4088L5.50976 14.5965L5.67317 14.124L5.13037 13.9363L4.96695 14.4088ZM4.64743 14.3086L4.9738 14.4111L5.12351 13.934L4.79714 13.8316L4.64743 14.3086ZM4.35719 14.2245L4.65266 14.3102L4.79191 13.83L4.49644 13.7443L4.35719 14.2245ZM3.98282 14.1264L4.36339 14.2263L4.49024 13.7426L4.10967 13.6428L3.98282 14.1264ZM3.691 14.0591L3.98997 14.1282L4.10252 13.641L3.80355 13.572L3.691 14.0591ZM3.3758 13.9985L3.69993 14.061L3.79462 13.5701L3.47049 13.5076L3.3758 13.9985ZM3.26817 13.9907L3.40176 14.0021L3.44453 13.504L3.31094 13.4925L3.26817 13.9907ZM2.8407 14.1829C2.95619 14.0592 3.12008 13.9904 3.28786 13.9916L3.29125 13.4916C2.98676 13.4895 2.68811 13.6136 2.47519 13.8417L2.8407 14.1829ZM2.69467 14.724C2.65089 14.5304 2.70575 14.3275 2.8407 14.1829L2.47519 13.8417C2.22699 14.1076 2.12681 14.4797 2.20698 14.8343L2.69467 14.724ZM7.58513 36.3613L2.69467 14.7241L2.20697 14.8343L7.09743 36.4715L7.58513 36.3613ZM7.61844 36.4647C7.60417 36.4315 7.59295 36.3967 7.58542 36.3626L7.09714 36.4702C7.11162 36.5359 7.13266 36.6007 7.15907 36.6622L7.61844 36.4647ZM7.69875 36.6351L7.61496 36.457L7.16255 36.6699L7.24634 36.8479L7.69875 36.6351ZM7.86073 36.941L7.69357 36.6247L7.25152 36.8583L7.41867 37.1746L7.86073 36.941ZM8.04368 37.2532L7.85549 36.9315L7.42391 37.184L7.6121 37.5057L8.04368 37.2532ZM8.23906 37.5599L8.0388 37.2452L7.61698 37.5137L7.81724 37.8284L8.23906 37.5599ZM8.47547 37.9025L8.23398 37.5522L7.82232 37.836L8.06382 38.1863L8.47547 37.9025ZM8.69194 38.1939C8.61429 38.0927 8.54127 37.9942 8.47276 37.8987L8.06653 38.1902C8.1381 38.2899 8.21433 38.3928 8.29534 38.4984L8.69194 38.1939ZM8.94161 38.5078L8.68932 38.1905L8.29797 38.5017L8.55026 38.819L8.94161 38.5078ZM10.4163 40.0075C9.81901 39.4974 9.33073 38.9804 8.93894 38.5045L8.55292 38.8223C8.96127 39.3183 9.46979 39.8567 10.0916 40.3877L10.4163 40.0075ZM10.3487 41.9824L10.503 40.2194L10.0049 40.1758L9.85063 41.9389L10.3487 41.9824ZM11.2547 43.6592C10.6636 43.3393 10.2868 42.6907 10.3487 41.9824L9.85063 41.9389C9.77055 42.8541 10.2578 43.6882 11.0168 44.0989L11.2547 43.6592ZM10.4956 51.9358L11.3842 43.9066L10.8873 43.8516L9.99864 51.8808L10.4956 51.9358ZM10.5229 52.5424C10.4238 52.3798 10.4074 52.1795 10.479 52.0017L10.0153 51.8148C9.88478 52.1385 9.91438 52.5046 10.096 52.8026L10.5229 52.5424ZM10.983 52.8271C10.7927 52.8105 10.6223 52.7048 10.5227 52.542L10.0962 52.803C10.2785 53.1009 10.5908 53.2947 10.9394 53.3252L10.983 52.8271ZM20.4456 53.4046L10.9764 52.8266L10.946 53.3257L20.4152 53.9037L20.4456 53.4046ZM20.955 53.2043C20.8286 53.3473 20.6425 53.4218 20.4522 53.4051L20.4086 53.9032C20.7572 53.9337 21.0985 53.797 21.3297 53.5353L20.955 53.2043ZM21.092 52.6804C21.132 52.8669 21.0811 53.0615 20.955 53.2043L21.3297 53.5353C21.5611 53.2733 21.6541 52.917 21.5809 52.5756L21.092 52.6804ZM19.3694 44.6734L21.0921 52.6806L21.5809 52.5754L19.8582 44.5682L19.3694 44.6734ZM20.7182 42.8896C20.6562 43.5986 20.173 44.1713 19.5349 44.3836L19.6927 44.858C20.5121 44.5854 21.1362 43.849 21.2163 42.9332L20.7182 42.8896ZM20.8318 41.5909L20.7182 42.8896L21.2163 42.9332L21.3299 41.6345L20.8318 41.5909ZM24.9588 38.6898C24.1776 39.4962 22.8699 40.5937 20.9844 41.3821L21.1773 41.8434C23.1393 41.023 24.5014 39.8805 25.3179 39.0377L24.9588 38.6898ZM25.1906 38.4427L24.9561 38.6926L25.3207 39.0348L25.5552 38.7849L25.1906 38.4427ZM25.3847 38.2225L25.1854 38.4485L25.5604 38.7792L25.7597 38.5532L25.3847 38.2225ZM25.5443 38.0302L25.3799 38.228L25.7645 38.5476L25.9289 38.3498L25.5443 38.0302ZM25.721 37.8022L25.5391 38.0368L25.9341 38.3432L26.1161 38.1087L25.721 37.8022ZM25.821 37.6626L25.7154 37.8097L26.1217 38.1012L26.2272 37.9541L25.821 37.6626ZM25.8794 37.5675L25.8118 37.6764L26.2364 37.9403L26.3041 37.8315L25.8794 37.5675ZM25.8979 37.524L25.8653 37.5936L26.3182 37.8055L26.3508 37.7359L25.8979 37.524ZM34.4672 17.074L25.8937 37.5333L26.3549 37.7266L34.9283 17.2673L34.4672 17.074ZM34.4175 16.5152C34.5252 16.6819 34.5439 16.8911 34.4672 17.074L34.9283 17.2673C35.0689 16.9319 35.0346 16.549 34.8375 16.2439L34.4175 16.5152ZM33.93 16.2416C34.1249 16.2451 34.3091 16.348 34.4177 16.5155L34.8373 16.2435C34.64 15.9392 34.3034 15.7483 33.9391 15.7417L33.93 16.2416ZM33.8122 16.2425L33.9363 16.2416L33.9327 15.7416L33.8086 15.7425L33.8122 16.2425ZM33.4021 16.2619L33.8221 16.2422L33.7987 15.7428L33.3787 15.7624L33.4021 16.2619ZM33.0311 16.2932L33.4113 16.2613L33.3696 15.763L32.9893 15.7949L33.0311 16.2932ZM32.5713 16.3463L33.0388 16.2924L32.9816 15.7957L32.514 15.8495L32.5713 16.3463ZM32.1277 16.4111L32.5788 16.3453L32.5065 15.8505L32.0555 15.9164L32.1277 16.4111ZM31.6325 16.4984L32.1349 16.41L32.0483 15.9175L31.5458 16.006L31.6325 16.4984ZM31.4248 16.5395C31.4965 16.5249 31.567 16.511 31.6362 16.4977L31.5422 16.0066C31.4709 16.0203 31.3984 16.0346 31.3247 16.0497L31.4248 16.5395ZM30.9776 16.637L31.428 16.5389L31.3215 16.0503L30.8712 16.1485L30.9776 16.637ZM30.5067 16.7528L30.984 16.6355L30.8648 16.15L30.3875 16.2672L30.5067 16.7528ZM30.2636 16.8178L30.5116 16.7515L30.3825 16.2685L30.1344 16.3348L30.2636 16.8178ZM29.755 16.9655L30.2687 16.8164L30.1293 16.3362L29.6156 16.4853L29.755 16.9655ZM28.4027 17.4367C28.8731 17.2524 29.3269 17.0964 29.7584 16.9645L29.6122 16.4863C29.1691 16.6218 28.7032 16.7819 28.2203 16.9712L28.4027 17.4367ZM28.6197 15.26L28.0716 17.1337L28.5515 17.2741L29.0996 15.4004L28.6197 15.26ZM29.5028 15.1879C29.3124 15.1712 29.118 15.1348 28.9177 15.087L28.8017 15.5734C29.0162 15.6245 29.2362 15.6664 29.4593 15.686L29.5028 15.1879ZM33.6996 12.3186C33.1542 14.1811 31.3671 15.351 29.5028 15.1879L29.4593 15.686C31.5561 15.8694 33.5657 14.5549 34.1794 12.4591L33.6996 12.3186ZM34.2193 10.542L33.6996 12.3186L34.1794 12.459L34.6992 10.6824L34.2193 10.542ZM3.09788 4.83153L3.12111 4.88479L3.57941 4.68489L3.55618 4.63162L3.09788 4.83153ZM4.55224 4.81723C4.17534 4.65901 3.77703 4.54624 3.36409 4.48434L3.28997 4.97881C3.66138 5.03449 4.01961 5.13591 4.35869 5.27826L4.55224 4.81723ZM4.62627 4.86172L4.59673 4.84149L4.3142 5.25401L4.34374 5.27424L4.62627 4.86172ZM6.68524 6.51816C6.15488 5.78028 5.42899 5.20058 4.58349 4.83819L4.38652 5.29776C5.14967 5.62485 5.8028 6.14714 6.27924 6.80998L6.68524 6.51816ZM7.00709 7.03356C6.91073 6.8575 6.8043 6.68456 6.68556 6.5186L6.27892 6.80954C6.38436 6.95691 6.4803 7.11248 6.56847 7.2736L7.00709 7.03356ZM7.16369 7.34671L7.01143 7.04187L6.56413 7.26529L6.71639 7.57013L7.16369 7.34671ZM7.4629 8.19389C7.38932 7.90656 7.29086 7.6255 7.16755 7.35479L6.71253 7.56205C6.82335 7.80534 6.9121 8.05851 6.97853 8.31793L7.4629 8.19389ZM7.52828 8.4827L7.46457 8.2008L6.97687 8.31103L7.04058 8.59293L7.52828 8.4827ZM7.59025 8.87485C7.57576 8.74384 7.55479 8.61521 7.5296 8.48892L7.03926 8.58671C7.06214 8.70142 7.08065 8.81557 7.09328 8.9298L7.59025 8.87485ZM7.89586 11.6407L7.59025 8.87487L7.09327 8.92978L7.39889 11.6956L7.89586 11.6407ZM7.17006 11.9722L7.67469 11.9167L7.62006 11.4197L7.11543 11.4751L7.17006 11.9722ZM6.98517 11.9858L7.16086 11.973L7.12463 11.4743L6.94894 11.4871L6.98517 11.9858ZM4.0679 9.48887C4.2316 10.965 5.51674 12.0468 6.97742 11.9862L6.95669 11.4866C5.75583 11.5365 4.69929 10.646 4.56485 9.43376L4.0679 9.48887ZM3.8645 7.64947L4.06789 9.48879L4.56486 9.43384L4.36147 7.59452L3.8645 7.64947ZM3.12156 4.88581C3.50935 5.76419 3.75953 6.69422 3.86448 7.6493L4.36149 7.59468C4.25094 6.58871 3.9874 5.60901 3.57896 4.68387L3.12156 4.88581ZM6.12938 4.01312C6.3673 3.60053 6.63885 3.40634 6.86339 3.38122L6.80779 2.88432C6.35285 2.93522 5.9683 3.29156 5.69624 3.76334L6.12938 4.01312ZM6.32115 3.85119L6.04671 3.67711L5.7789 4.09934L6.05334 4.27341L6.32115 3.85119ZM6.65416 4.08569L6.33133 3.858L6.04315 4.2666L6.36598 4.49428L6.65416 4.08569ZM6.88731 4.2705L6.66564 4.09429L6.3545 4.48568L6.57616 4.6619L6.88731 4.2705ZM7.17196 4.51529L6.89484 4.27673L6.56863 4.65567L6.84575 4.89423L7.17196 4.51529ZM6.95221 4.36907L6.81098 4.55196L7.20672 4.85756L7.34795 4.67467L6.95221 4.36907ZM7.16535 4.09336C7.08893 4.18585 7.01733 4.28116 6.94925 4.37298L7.35091 4.67076C7.41837 4.57976 7.48334 4.49348 7.55079 4.41185L7.16535 4.09336ZM7.30863 3.92974L7.17007 4.08782L7.54607 4.4174L7.68463 4.25932L7.30863 3.92974ZM7.58071 3.63753L7.31371 3.92412L7.67955 4.26495L7.94654 3.97836L7.58071 3.63753ZM7.7214 3.49414L7.58525 3.63278L7.942 3.98311L8.07815 3.84446L7.7214 3.49414ZM6.86082 3.38149C7.09072 3.35817 7.39651 3.48885 7.71515 3.83786L8.0844 3.50074C7.71737 3.09872 7.26735 2.83768 6.81035 2.88404L6.86082 3.38149ZM10.9242 8.73223L10.7208 6.89234L10.2239 6.94727L10.4272 8.78715L10.9242 8.73223ZM9.43504 11.5231C10.4253 10.9996 11.0534 9.90322 10.9242 8.73226L10.4272 8.78711C10.5329 9.74513 10.0183 10.6492 9.20138 11.081L9.43504 11.5231ZM8.78376 8.74242L9.06972 11.3295L9.5667 11.2746L9.28074 8.68749L8.78376 8.74242ZM8.67536 8.09067C8.72214 8.30517 8.75948 8.52184 8.78375 8.74231L9.28075 8.68759C9.25427 8.44711 9.21379 8.21297 9.16388 7.98413L8.67536 8.09067ZM8.57995 7.72127L8.67754 8.09981L9.16171 7.97498L9.06411 7.59645L8.57995 7.72127ZM8.49737 7.45174L8.58293 7.73189L9.06113 7.58583L8.97556 7.30569L8.49737 7.45174ZM8.36168 7.09273L8.5025 7.46679L8.97044 7.29064L8.82962 6.91657L8.36168 7.09273ZM8.25788 6.84912L8.36557 7.10246L8.82572 6.90685L8.71803 6.65351L8.25788 6.84912ZM8.07806 6.49287L8.26463 6.86368L8.71128 6.63895L8.52472 6.26815L8.07806 6.49287ZM7.93254 6.22964L8.08253 6.50133L8.52026 6.25969L8.37027 5.98799L7.93254 6.22964ZM7.99754 5.86082L7.92889 5.99484L8.37391 6.22279L8.44256 6.08876L7.99754 5.86082ZM8.0629 5.75062L8.00557 5.84636L8.43454 6.10323L8.49187 6.00749L8.0629 5.75062ZM8.87557 4.74414C8.56061 5.04376 8.28961 5.38259 8.06453 5.74792L8.49023 6.01019C8.69374 5.67985 8.93785 5.37499 9.22019 5.10641L8.87557 4.74414ZM9.04414 4.5908L8.87971 4.74029L9.21605 5.11025L9.38048 4.96077L9.04414 4.5908ZM9.40534 4.30401C9.2819 4.39329 9.16274 4.48777 9.04844 4.58699L9.37619 4.96458C9.47926 4.87511 9.58683 4.78982 9.69836 4.70915L9.40534 4.30401ZM9.3822 4.32253L9.37345 4.33144L9.73024 4.68173L9.73899 4.67282L9.3822 4.32253ZM9.66917 4.1239L9.42139 4.29002L9.69981 4.70533L9.94759 4.53921L9.66917 4.1239ZM10.5184 3.69543C10.2228 3.8101 9.94113 3.95309 9.67549 4.11981L9.94127 4.54331C10.1812 4.39276 10.4345 4.26429 10.6992 4.16158L10.5184 3.69543ZM10.7788 4.39268L10.8548 3.97307L10.3628 3.88395L10.2868 4.30356L10.7788 4.39268ZM10.7208 6.89236C10.6285 6.05648 10.6483 5.21569 10.7797 4.3873L10.2859 4.30894C10.1474 5.18153 10.1266 6.06712 10.2239 6.94725L10.7208 6.89236ZM19.124 41.606L19.0247 42.7409L19.5228 42.7845L19.6221 41.6496L19.124 41.606ZM11.8725 41.2226L19.3512 41.8769L19.3948 41.3788L11.9161 40.7245L11.8725 41.2226ZM12.044 42.1302L12.1433 40.9953L11.6452 40.9517L11.5459 42.0866L12.044 42.1302ZM12.0751 42.1666C12.0561 42.1649 12.0425 42.1479 12.044 42.1302L11.5459 42.0866C11.5202 42.3807 11.7387 42.639 12.0315 42.6647L12.0751 42.1666ZM18.9878 42.7713L12.0751 42.1666L12.0315 42.6647L18.9442 43.2694L18.9878 42.7713ZM19.0247 42.7409C19.0232 42.7584 19.0065 42.773 18.9878 42.7713L18.9442 43.2694C19.2374 43.2951 19.4971 43.0777 19.5228 42.7845L19.0247 42.7409ZM17.8989 44.3843L16.9962 44.3053L16.9526 44.8034L17.8553 44.8824L17.8989 44.3843ZM19.6752 51.8065L18.1215 44.5808L17.6327 44.6859L19.1864 51.9116L19.6752 51.8065ZM11.9785 51.6543L19.4156 52.1086L19.446 51.6095L12.009 51.1552L11.9785 51.6543ZM12.5967 44.1638L11.7454 51.3755L12.242 51.4341L13.0933 44.2224L12.5967 44.1638ZM15.2874 44.1558L12.8668 43.9441L12.8232 44.4422L15.2438 44.6539L15.2874 44.1558ZM15.725 49.337L15.5154 44.3943L15.0158 44.4155L15.2255 49.3582L15.725 49.337ZM16.2714 49.9097C15.9755 49.8838 15.7377 49.6417 15.725 49.3372L15.2255 49.358C15.2488 49.9173 15.6853 50.3604 16.2278 50.4078L16.2714 49.9097ZM16.3489 49.9114C16.3234 49.9126 16.2973 49.912 16.2714 49.9097L16.2278 50.4078C16.2742 50.4119 16.323 50.4132 16.373 50.4108L16.3489 49.9114ZM16.9247 49.286C16.9387 49.6172 16.6814 49.8973 16.3504 49.9113L16.3715 50.4109C16.9786 50.3852 17.4499 49.8718 17.4242 49.2648L16.9247 49.286ZM16.7246 44.565L16.9247 49.286L17.4242 49.2648L17.2242 44.5438L16.7246 44.565ZM7.55451 17.4049C7.67338 17.5224 7.81452 17.597 7.9516 17.647L8.12317 17.1774C8.03079 17.1436 7.95898 17.1017 7.90601 17.0493L7.55451 17.4049ZM5.42325 16.3682C6.06869 16.6267 6.81178 16.9757 7.60326 17.4424L7.85726 17.0118C7.04183 16.5309 6.27569 16.171 5.60912 15.9041L5.42325 16.3682ZM4.95439 16.1895L5.42713 16.3697L5.60525 15.9025L5.13251 15.7223L4.95439 16.1895ZM4.73919 16.1136L4.96024 16.1917L5.12666 15.7202L4.90561 15.6421L4.73919 16.1136ZM4.33624 15.9821L4.74476 16.1155L4.90004 15.6403L4.49152 15.5068L4.33624 15.9821ZM9.22499 35.9002L4.65773 15.6893L4.17003 15.7995L8.73729 36.0105L9.22499 35.9002ZM9.32321 36.074L9.20349 35.8411L8.7588 36.0696L8.87851 36.3026L9.32321 36.074ZM9.41608 36.2386L9.31871 36.0656L8.88301 36.3109L8.98039 36.4839L9.41608 36.2386ZM9.60717 36.5499L9.41136 36.2305L8.9851 36.4919L9.18091 36.8113L9.60717 36.5499ZM9.76713 36.7891L9.60194 36.5417L9.18615 36.8194L9.35134 37.0668L9.76713 36.7891ZM10.1723 37.3316C10.0167 37.1378 9.88132 36.9541 9.76486 36.7857L9.35362 37.0701C9.47646 37.2477 9.61893 37.441 9.78242 37.6446L10.1723 37.3316ZM10.4242 37.6331L10.1692 37.3279L9.7855 37.6484L10.0405 37.9537L10.4242 37.6331ZM11.9422 39.0589C11.3195 38.5812 10.8175 38.0858 10.4211 37.6295L10.0436 37.9573C10.4596 38.4362 10.9857 38.9553 11.6378 39.4556L11.9422 39.0589ZM12.5524 39.073L11.8118 39.0082L11.7682 39.5063L12.5088 39.5711L12.5524 39.073ZM11.3224 34.3739L12.2851 39.3694L12.7761 39.2748L11.8134 34.2793L11.3224 34.3739ZM12.1944 33.0847C11.5978 33.2003 11.2067 33.7766 11.3225 34.3741L11.8133 34.279C11.7503 33.9535 11.9631 33.6389 12.2895 33.5756L12.1944 33.0847ZM13.4838 33.957C13.3689 33.3599 12.7911 32.9689 12.1943 33.0848L12.2896 33.5756C12.6147 33.5125 12.9301 33.7256 12.9928 34.0515L13.4838 33.957ZM14.3517 38.4614L13.4838 33.9569L12.9928 34.0515L13.8607 38.556L14.3517 38.4614ZM14.2436 36.2448C14.1013 36.9619 13.9729 37.7041 13.8589 38.472L14.3535 38.5454C14.4663 37.7852 14.5934 37.051 14.7341 36.3421L14.2436 36.2448ZM14.4253 35.3767L14.2441 36.2422L14.7335 36.3447L14.9147 35.4791L14.4253 35.3767ZM14.5319 34.9055L14.4262 35.3727L14.9139 35.4831L15.0196 35.0159L14.5319 34.9055ZM14.7274 34.0954L14.5327 34.902L15.0187 35.0194L15.2135 34.2127L14.7274 34.0954ZM14.8877 33.4933C14.8342 33.6897 14.78 33.8885 14.7282 34.0925L15.2128 34.2156C15.2633 34.0165 15.3164 33.8218 15.3701 33.6248L14.8877 33.4933ZM14.8876 33.4939L14.8875 33.494L15.3703 33.624L15.3704 33.6239L14.8876 33.4939ZM16.1722 29.6129C15.6816 30.8303 15.2556 32.1286 14.8876 33.4938L15.3704 33.6239C15.7339 32.2753 16.1538 30.9962 16.636 29.7998L16.1722 29.6129ZM7.90579 17.6248C10.8946 19.4751 14.4885 23.0244 16.1615 29.7665L16.6468 29.6461C14.9395 22.7658 11.2582 19.1121 8.16898 17.1996L7.90579 17.6248ZM15.1828 3.3043C15.3902 4.24193 15.4537 5.20285 15.3699 6.16031L15.868 6.20389C15.9562 5.19549 15.8894 4.18346 15.671 3.19628L15.1828 3.3043ZM15.1701 3.25213L15.1839 3.30912L15.6699 3.19146L15.6561 3.13447L15.1701 3.25213ZM16.6144 3.53202C16.2692 3.29683 15.8952 3.10226 15.4984 2.95829L15.3278 3.42831C15.6835 3.55737 16.0205 3.7324 16.3329 3.94522L16.6144 3.53202ZM16.8079 3.67417L16.6218 3.53726L16.3255 3.93998L16.5116 4.0769L16.8079 3.67417ZM17.161 3.96659C17.049 3.865 16.9321 3.76806 16.8106 3.67615L16.5089 4.07491C16.6186 4.15789 16.7241 4.24536 16.8251 4.33698L17.161 3.96659ZM17.3469 4.14484L17.1662 3.97139L16.82 4.33218L17.0008 4.50563L17.3469 4.14484ZM18.0005 4.95772C17.813 4.66819 17.5964 4.39671 17.3515 4.14935L16.9962 4.50111C17.2161 4.72324 17.4113 4.96776 17.5809 5.22953L18.0005 4.95772ZM18.058 5.0486L18.002 4.96002L17.5794 5.22722L17.6354 5.3158L18.058 5.0486ZM18.14 5.19872L18.0665 5.06307L17.6269 5.30132L17.7004 5.43697L18.14 5.19872ZM17.9976 5.70954L18.1418 5.43362L17.6986 5.20206L17.5545 5.47798L17.9976 5.70954ZM17.8253 6.07365L18.002 5.70083L17.5501 5.48668L17.3734 5.85951L17.8253 6.07365ZM17.6421 6.56551C17.6985 6.39398 17.7602 6.22655 17.8293 6.06467L17.3694 5.86849C17.2938 6.04574 17.2271 6.22683 17.1671 6.40942L17.6421 6.56551ZM17.6003 6.68437L17.6404 6.57062L17.1689 6.40431L17.1287 6.51806L17.6003 6.68437ZM17.4646 7.21823C17.5041 7.03177 17.549 6.85057 17.6033 6.67514L17.1257 6.52729C17.0657 6.72097 17.0172 6.91753 16.9755 7.11444L17.4646 7.21823ZM17.4389 7.32409L17.4629 7.22543L16.9771 7.10724L16.9531 7.20589L17.4389 7.32409ZM17.3481 7.96592C17.3674 7.74519 17.3995 7.52748 17.4414 7.31286L16.9506 7.21712C16.9058 7.44689 16.871 7.68211 16.85 7.92234L17.3481 7.96592ZM17.1212 10.5588L17.3481 7.96592L16.85 7.92234L16.6231 10.5152L17.1212 10.5588ZM15.2086 8.00415C15.1059 9.17807 15.7594 10.2595 16.7603 10.7606L16.9841 10.3135C16.1581 9.89996 15.6227 9.00801 15.7067 8.04773L15.2086 8.00415ZM15.3699 6.16031L15.2086 8.00415L15.7067 8.04773L15.868 6.20389L15.3699 6.16031ZM19.1472 2.56248C19.3719 2.58213 19.6474 2.77019 19.8939 3.1769L20.3215 2.91774C20.0398 2.45286 19.6473 2.10432 19.1908 2.06438L19.1472 2.56248ZM18.3038 3.03796C18.6177 2.68025 18.9224 2.54281 19.1472 2.56248L19.1908 2.06438C18.7343 2.02444 18.2868 2.29934 17.928 2.70815L18.3038 3.03796ZM18.4317 2.83175L18.2904 2.69401L17.9414 3.05211L18.0828 3.18985L18.4317 2.83175ZM18.5663 2.97021L18.4366 2.83661L18.0779 3.18499L18.2077 3.31858L18.5663 2.97021ZM18.857 3.27762C18.7615 3.1678 18.6604 3.06525 18.5647 2.96852L18.2093 3.32027C18.3061 3.41798 18.3963 3.50976 18.4797 3.60572L18.857 3.27762ZM19.0867 3.56156C19.0144 3.46785 18.9386 3.37147 18.8571 3.27771L18.4797 3.60563C18.5513 3.68806 18.6199 3.77509 18.6908 3.86695L19.0867 3.56156ZM19.2244 3.73159L19.0831 3.557L18.6944 3.8715L18.8357 4.04609L19.2244 3.73159ZM18.9503 3.6268L18.8659 3.70024L19.1941 4.07744L19.2785 4.004L18.9503 3.6268ZM19.3566 3.27393C19.2127 3.38863 19.0757 3.50911 18.9435 3.63296L19.2853 3.99783C19.4099 3.88116 19.5368 3.76972 19.6683 3.66488L19.3566 3.27393ZM19.4538 3.19992L19.3611 3.27037L19.6637 3.66844L19.7564 3.598L19.4538 3.19992ZM19.6896 3.02713L19.4573 3.19729L19.7528 3.60063L19.9851 3.43047L19.6896 3.02713ZM19.9684 2.83974L19.698 3.02122L19.9767 3.43638L20.2471 3.2549L19.9684 2.83974ZM22.0799 8.60475L22.2413 6.76091L21.7432 6.71733L21.5818 8.56117L22.0799 8.60475ZM19.0611 11.1576C20.5937 11.2786 21.9456 10.1401 22.0799 8.60475L21.5818 8.56117C21.4715 9.82211 20.3604 10.7586 19.1004 10.6592L19.0611 11.1576ZM18.5299 11.1135L19.06 11.1576L19.1015 10.6593L18.5714 10.6152L18.5299 11.1135ZM18.5442 8.06999L18.3016 10.8425L18.7997 10.8861L19.0423 8.11357L18.5442 8.06999ZM18.632 7.49612C18.5933 7.68247 18.5613 7.87382 18.5442 8.06999L19.0423 8.11357C19.0572 7.94256 19.0855 7.77145 19.1215 7.59777L18.632 7.49612ZM18.643 7.4428L18.632 7.49612L19.1215 7.59776L19.1326 7.54444L18.643 7.4428ZM18.7292 7.10623L18.6457 7.43143L19.13 7.55581L19.2135 7.23061L18.7292 7.10623ZM19.0574 6.27077C18.9239 6.53666 18.8152 6.8136 18.7315 7.09779L19.2112 7.23905C19.2866 6.98296 19.3844 6.73386 19.5043 6.4951L19.0574 6.27077ZM19.1788 6.04322L19.0603 6.2652L19.5014 6.50068L19.6199 6.27869L19.1788 6.04322ZM19.4025 5.68418C19.322 5.80124 19.2491 5.91893 19.1818 6.03778L19.6169 6.28413C19.6776 6.17696 19.7428 6.07171 19.8145 5.96756L19.4025 5.68418ZM19.8189 5.15794C19.6657 5.32669 19.5281 5.50118 19.4024 5.68442L19.8146 5.96732C19.9277 5.80259 20.0513 5.64587 20.1891 5.494L19.8189 5.15794ZM21.4583 3.96545C20.832 4.25111 20.2748 4.65741 19.8192 5.15764L20.1889 5.4943C20.5985 5.04448 21.1004 4.67822 21.6658 4.42037L21.4583 3.96545ZM21.4453 3.96933L21.418 3.98857L21.7061 4.39724L21.7334 4.378L21.4453 3.96933ZM22.6703 3.58445C22.2576 3.65566 21.8608 3.77802 21.4871 3.94553L21.6916 4.40179C22.0277 4.25116 22.3844 4.14117 22.7554 4.07717L22.6703 3.58445ZM22.7883 4.32075L22.9454 3.92254L22.4803 3.73907L22.3232 4.13728L22.7883 4.32075ZM22.2413 6.76091C22.3146 5.92311 22.4993 5.10231 22.7903 4.31575L22.3213 4.14228C22.0149 4.97051 21.8204 5.835 21.7432 6.71733L22.2413 6.76091ZM18.3245 30.1565L18.3344 30.1158L17.8483 29.9985L17.8385 30.0392L18.3245 30.1565ZM16.1428 38.1346C16.6218 35.188 17.3479 32.5242 18.3125 30.1935L17.8505 30.0022C16.8687 32.3746 16.1333 35.0767 15.6493 38.0543L16.1428 38.1346ZM15.9849 39.1691L16.1432 38.1322L15.6489 38.0567L15.4906 39.0936L15.9849 39.1691ZM15.9262 39.6286L15.9858 39.163L15.4898 39.0996L15.4303 39.5652L15.9262 39.6286ZM17.9975 39.5488L15.7001 39.3478L15.6565 39.8459L17.9539 40.0469L17.9975 39.5488ZM21.3212 31.4946L17.7465 39.698L18.2049 39.8978L21.7796 31.6943L21.3212 31.4946ZM22.7694 30.9252C22.2117 30.6829 21.5638 30.9367 21.3211 31.4947L21.7796 31.6941C21.9118 31.3902 22.2648 31.2511 22.5702 31.3838L22.7694 30.9252ZM23.3384 32.3739C23.5815 31.817 23.3269 31.1678 22.7696 30.9252L22.5701 31.3837C22.8737 31.5159 23.0128 31.87 22.8801 32.1738L23.3384 32.3739ZM19.9917 40.0541L23.3384 32.3737L22.8801 32.174L19.5333 39.8543L19.9917 40.0541ZM20.513 39.7689L19.7843 39.7052L19.7407 40.2033L20.4694 40.267L20.513 39.7689ZM23.6236 37.6181C22.9653 38.2746 21.8959 39.1475 20.3932 39.788L20.5893 40.2479C22.1638 39.5769 23.2846 38.6623 23.9766 37.9721L23.6236 37.6181ZM23.9376 37.2891L23.6193 37.6225L23.9809 37.9678L24.2992 37.6344L23.9376 37.2891ZM24.0998 37.1046L23.9308 37.2965L24.306 37.6269L24.4751 37.435L24.0998 37.1046ZM24.2833 36.8802L24.094 37.1114L24.4809 37.4282L24.6702 37.197L24.2833 36.8802ZM24.39 36.7384L24.2771 36.8881L24.6763 37.1891L24.7892 37.0394L24.39 36.7384ZM32.3695 17.6794L24.3591 36.7922L24.8202 36.9855L32.8307 17.8727L32.3695 17.6794ZM32.2216 18.0805L32.6342 18.0237L32.566 17.5284L32.1535 17.5852L32.2216 18.0805ZM27.6683 19.5196C29.459 18.6473 31.0826 18.2545 32.2253 18.08L32.1498 17.5857C30.9672 17.7664 29.2936 18.1718 27.4493 19.0701L27.6683 19.5196ZM27.2025 19.7459C27.4049 19.7071 27.5812 19.6115 27.7263 19.4804L27.3913 19.1093C27.3065 19.1858 27.2116 19.235 27.1084 19.2548L27.2025 19.7459ZM18.3224 30.1526C20.7132 24.3625 24.2037 21.3201 27.271 19.7221L27.0399 19.2786C23.8711 20.9295 20.2971 24.0599 17.8603 29.9617L18.3224 30.1526ZM26.4462 8.26814L25.9265 10.0448L26.4064 10.1851L26.9261 8.40852L26.4462 8.26814ZM26.8226 5.43049C26.8427 6.39144 26.7154 7.3462 26.4462 8.26826L26.9261 8.4084C27.2096 7.43775 27.3437 6.43221 27.3225 5.42L26.8226 5.43049ZM26.8213 5.37379L26.8226 5.43082L27.3225 5.41967L27.3212 5.36264L26.8213 5.37379ZM28.1834 5.93587C27.891 5.63718 27.5623 5.37275 27.2005 5.15421L26.942 5.58221C27.2657 5.77771 27.5614 6.01533 27.8261 6.28564L28.1834 5.93587ZM28.344 6.11167L28.1894 5.94224L27.82 6.27927L27.9747 6.4487L28.344 6.11167ZM28.6321 6.46641C28.5423 6.34548 28.4471 6.22794 28.3464 6.11435L27.9722 6.44602C28.0631 6.54855 28.1492 6.65483 28.2306 6.76441L28.6321 6.46641ZM28.7816 6.68054L28.6363 6.47234L28.2263 6.75848L28.3716 6.96667L28.7816 6.68054ZM29.2609 7.6018C29.1343 7.2826 28.9758 6.97551 28.7854 6.68617L28.3677 6.96103C28.5389 7.22107 28.6818 7.49774 28.7962 7.78616L29.2609 7.6018ZM29.3019 7.70898L29.2621 7.60474L28.795 7.78322L28.8349 7.88746L29.3019 7.70898ZM29.3516 7.86852L29.3073 7.72461L28.8295 7.87182L28.8738 8.01573L29.3516 7.86852ZM29.1112 8.34201L29.3072 8.09917L28.9182 7.78507L28.7221 8.02791L29.1112 8.34201ZM28.8708 8.66476L29.1171 8.33438L28.7162 8.03555L28.4699 8.36593L28.8708 8.66476ZM28.5931 9.11403C28.6825 8.95577 28.7763 8.80274 28.8765 8.65681L28.4642 8.37388C28.3543 8.53403 28.2529 8.69976 28.1578 8.86803L28.5931 9.11403ZM28.5308 9.21863L28.5902 9.11909L28.1607 8.86297L28.1014 8.96251L28.5308 9.21863ZM28.2889 9.72454C28.3653 9.54655 28.4466 9.37435 28.5359 9.2097L28.0963 8.97144C27.9982 9.15243 27.9104 9.33884 27.8295 9.52734L28.2889 9.72454ZM28.2472 9.81423L28.2857 9.73165L27.8326 9.52023L27.7941 9.60281L28.2472 9.81423ZM28.0372 10.412C28.0985 10.204 28.1709 10.0012 28.252 9.80329L27.7893 9.61376C27.7025 9.82581 27.6242 10.0447 27.5576 10.2706L28.0372 10.412ZM27.3011 12.9246L28.0373 10.4116L27.5575 10.271L26.8213 12.7841L27.3011 12.9246ZM25.9265 10.0448C25.5959 11.1755 26.024 12.3643 26.9077 13.0517L27.2147 12.657C26.4857 12.09 26.1359 11.1102 26.4064 10.1851L25.9265 10.0448ZM30.8548 5.48019C31.0714 5.5439 31.3051 5.78275 31.4679 6.23006L31.9378 6.05907C31.7518 5.54803 31.4351 5.12965 30.9958 5.00049L30.8548 5.48019ZM29.935 5.78122C30.3127 5.49214 30.6401 5.4176 30.8553 5.48035L30.9953 5.00033C30.5577 4.87277 30.0636 5.0531 29.6311 5.38418L29.935 5.78122ZM30.0993 5.6019L29.9893 5.44135L29.5769 5.72404L29.6869 5.88459L30.0993 5.6019ZM30.2018 5.75996L30.103 5.60738L29.6833 5.87911L29.782 6.03169L30.2018 5.75996ZM30.4318 6.12664C30.3582 5.99765 30.2771 5.87415 30.2006 5.75819L29.7832 6.03347C29.8605 6.15068 29.9331 6.26148 29.9976 6.37455L30.4318 6.12664ZM30.5173 6.28401L30.4345 6.1314L29.995 6.3698L30.0778 6.5224L30.5173 6.28401ZM30.7027 6.64298L30.5196 6.28849L30.0754 6.51793L30.2585 6.87242L30.7027 6.64298ZM30.4371 6.49444L30.3562 6.54087L30.605 6.97453L30.6859 6.92811L30.4371 6.49444ZM30.9297 6.21414C30.7573 6.30197 30.5907 6.39764 30.4285 6.49961L30.6945 6.92293C30.8455 6.82803 30.999 6.73995 31.1566 6.6597L30.9297 6.21414ZM31.2966 6.04162L30.9368 6.21066L31.1495 6.66319L31.5092 6.49415L31.2966 6.04162ZM31.6078 5.91334L31.3078 6.03666L31.498 6.49911L31.7979 6.37578L31.6078 5.91334ZM32.8342 7.31119L32.8023 7.32547L33.0061 7.78205L33.038 7.76777L32.8342 7.31119ZM34.1103 7.17316C33.6917 7.16291 33.2794 7.20533 32.8809 7.29567L32.9914 7.7833C33.3502 7.70195 33.7213 7.66378 34.098 7.67301L34.1103 7.17316ZM34.0818 7.91833L34.3141 7.55877L33.8942 7.2874L33.6618 7.64696L34.0818 7.91833ZM33.0675 10.2038C33.3037 9.39613 33.645 8.62759 34.0847 7.91375L33.6589 7.65155C33.1958 8.40356 32.8362 9.21311 32.5876 10.0635L33.0675 10.2038ZM32.5478 11.9804L33.0675 10.2038L32.5876 10.0634L32.0679 11.8401L32.5478 11.9804ZM29.0886 13.8925C30.571 14.3089 32.1146 13.4591 32.5478 11.9805L32.0679 11.84C31.7122 13.0542 30.4438 13.7538 29.2238 13.4112L29.0886 13.8925ZM29.0774 13.8903L29.1009 13.8956L29.2116 13.4081L29.1881 13.4027L29.0774 13.8903ZM28.574 13.7446L29.0631 13.8866L29.2025 13.4064L28.7134 13.2645L28.574 13.7446ZM29.1851 10.763L28.4038 13.4344L28.8837 13.5747L29.665 10.9034L29.1851 10.763ZM29.3836 10.2176C29.3094 10.3926 29.2405 10.5744 29.1852 10.7627L29.6649 10.9037C29.7133 10.7391 29.7747 10.576 29.8439 10.4129L29.3836 10.2176ZM29.4283 10.116L29.3849 10.2147L29.8427 10.4158L29.886 10.3171L29.4283 10.116ZM30.0398 9.10157C29.7967 9.4137 29.5919 9.7541 29.4294 10.1135L29.8849 10.3196C30.0314 9.99568 30.2157 9.68933 30.4343 9.40887L30.0398 9.10157ZM30.204 8.90093L30.0436 9.09685L30.4305 9.41358L30.5909 9.21766L30.204 8.90093ZM30.4882 8.59764C30.3889 8.69496 30.2961 8.79415 30.2082 8.89588L30.5866 9.22271C30.6657 9.13116 30.749 9.04211 30.8381 8.95478L30.4882 8.59764ZM31.0046 8.15875C30.8216 8.29412 30.65 8.43975 30.4886 8.59729L30.8378 8.95514C30.9825 8.81386 31.1368 8.68291 31.302 8.5607L31.0046 8.15875ZM32.8469 7.3104C32.1758 7.46821 31.5497 7.75706 31.005 8.15847L31.3016 8.56099C31.7912 8.20019 32.3551 7.93967 32.9614 7.79712L32.8469 7.3104Z" fill="#FDFBF5"/>
</svg>
