<svg width="16" height="22" viewBox="0 0 16 22" fill="none" xmlns="http://www.w3.org/2000/svg">
<path d="M8 21L7.62788 21.334L8 21.7486L8.37212 21.334L8 21ZM0.5 8C0.5 9.40174 0.968739 10.9392 1.63757 12.4297C2.30948 13.9271 3.20093 15.4154 4.08521 16.7292C4.97045 18.0444 5.85471 19.1938 6.51728 20.0142C6.84878 20.4246 7.12534 20.7533 7.3195 20.98C7.41659 21.0933 7.49311 21.1812 7.54564 21.241C7.57191 21.2709 7.59218 21.2938 7.60603 21.3094C7.61295 21.3172 7.61827 21.3232 7.62193 21.3273C7.62376 21.3294 7.62518 21.3309 7.62617 21.332C7.62667 21.3326 7.62706 21.333 7.62734 21.3334C7.62749 21.3335 7.62762 21.3337 7.62769 21.3337C7.6278 21.3339 7.62788 21.334 8 21C8.37212 20.666 8.37215 20.6661 8.37215 20.6661C8.37211 20.666 8.37209 20.666 8.37202 20.6659C8.37188 20.6658 8.37163 20.6655 8.37128 20.6651C8.37058 20.6643 8.36946 20.6631 8.36792 20.6613C8.36485 20.6579 8.36013 20.6526 8.35381 20.6455C8.34117 20.6313 8.32213 20.6097 8.29713 20.5813C8.24712 20.5243 8.17326 20.4395 8.07894 20.3294C7.89029 20.1092 7.61997 19.7879 7.29522 19.3858C6.64529 18.5812 5.77955 17.4556 4.91479 16.1708C4.04907 14.8846 3.19052 13.4479 2.54993 12.0203C1.90626 10.5858 1.5 9.19826 1.5 8H0.5ZM8 0.5C3.82386 0.5 0.5 3.82386 0.5 8H1.5C1.5 4.37614 4.37614 1.5 8 1.5V0.5ZM15.5 8C15.5 3.82386 12.1761 0.5 8 0.5V1.5C11.6239 1.5 14.5 4.37614 14.5 8H15.5ZM8 21C8.37212 21.334 8.3722 21.3339 8.37231 21.3337C8.37238 21.3337 8.37251 21.3335 8.37266 21.3334C8.37294 21.333 8.37333 21.3326 8.37383 21.332C8.37482 21.3309 8.37624 21.3294 8.37807 21.3273C8.38173 21.3232 8.38705 21.3172 8.39397 21.3094C8.40782 21.2938 8.42809 21.2709 8.45436 21.241C8.50689 21.1812 8.58341 21.0933 8.6805 20.98C8.87466 20.7533 9.15122 20.4246 9.48272 20.0142C10.1453 19.1938 11.0295 18.0444 11.9148 16.7292C12.7991 15.4154 13.6905 13.9271 14.3624 12.4297C15.0313 10.9392 15.5 9.40174 15.5 8H14.5C14.5 9.19826 14.0937 10.5858 13.4501 12.0203C12.8095 13.4479 11.9509 14.8846 11.0852 16.1708C10.2205 17.4556 9.35471 18.5812 8.70478 19.3858C8.38003 19.7879 8.10971 20.1092 7.92106 20.3294C7.82674 20.4395 7.75288 20.5243 7.70287 20.5813C7.67787 20.6097 7.65883 20.6313 7.64619 20.6455C7.63987 20.6526 7.63515 20.6579 7.63208 20.6613C7.63054 20.6631 7.62942 20.6643 7.62872 20.6651C7.62837 20.6655 7.62812 20.6658 7.62798 20.6659C7.62791 20.666 7.62789 20.666 7.62785 20.6661C7.62785 20.6661 7.62788 20.666 8 21ZM6 8C6 6.87614 6.87614 6 8 6V5C6.32386 5 5 6.32386 5 8H6ZM8 10C6.87614 10 6 9.12386 6 8H5C5 9.67614 6.32386 11 8 11V10ZM10 8C10 9.12386 9.12386 10 8 10V11C9.67614 11 11 9.67614 11 8H10ZM8 6C9.12386 6 10 6.87614 10 8H11C11 6.32386 9.67614 5 8 5V6Z" fill="black"/>
</svg>
