<svg width="22" height="18" viewBox="0 0 22 18" fill="none" xmlns="http://www.w3.org/2000/svg">
<path d="M21 3L21.3536 3.35355L21.7071 3L21.3536 2.64645L21 3ZM19 1L19.3536 0.646447L19 0.292893L18.6464 0.646447L19 1ZM19 5L18.6464 4.64645L18.2929 5L18.6464 5.35355L19 5ZM21 7L21.3536 7.35355L21.7071 7L21.3536 6.64645L21 7ZM19 9L18.6464 8.64645L18.2929 9L18.6464 9.35355L19 9ZM21 11L21.3536 11.3536L21.7071 11L21.3536 10.6464L21 11ZM19 13L18.6464 12.6464L18.2929 13L18.6464 13.3536L19 13ZM21 15L21.3536 15.3536L21.7071 15L21.3536 14.6464L21 15ZM19 17L18.6464 17.3536L19 17.7071L19.3536 17.3536L19 17ZM17 15L17.3536 14.6464L17 14.2929L16.6464 14.6464L17 15ZM15 17L14.6464 17.3536L15 17.7071L15.3536 17.3536L15 17ZM13 15L13.3536 14.6464L13 14.2929L12.6464 14.6464L13 15ZM11 17L10.6464 17.3536L11 17.7071L11.3536 17.3536L11 17ZM9 15L9.35355 14.6464L9 14.2929L8.64645 14.6464L9 15ZM7 17L6.64645 17.3536L7 17.7071L7.35355 17.3536L7 17ZM5 15L5.35355 14.6464L5 14.2929L4.64645 14.6464L5 15ZM3 17L2.64645 17.3536L3 17.7071L3.35355 17.3536L3 17ZM1 15L0.646447 14.6464L0.292893 15L0.646447 15.3536L1 15ZM3 13L3.35355 13.3536L3.70711 13L3.35355 12.6464L3 13ZM1 11L0.646447 10.6464L0.292893 11L0.646447 11.3536L1 11ZM3 9L3.35355 9.35355L3.70711 9L3.35355 8.64645L3 9ZM1 7L0.646447 6.64645L0.292893 7L0.646447 7.35355L1 7ZM3 5L3.35355 5.35355L3.70711 5L3.35355 4.64645L3 5ZM1 3L0.646447 2.64645L0.292893 3L0.646447 3.35355L1 3ZM3 1L3.35355 0.646447L3 0.292893L2.64645 0.646447L3 1ZM5 3L4.64645 3.35355L5 3.70711L5.35355 3.35355L5 3ZM7 1L7.35355 0.646447L7 0.292893L6.64645 0.646447L7 1ZM9 3L8.64645 3.35355L9 3.70711L9.35355 3.35355L9 3ZM11 1L11.3536 0.646447L11 0.292893L10.6464 0.646447L11 1ZM13 3L12.6464 3.35355L13 3.70711L13.3536 3.35355L13 3ZM15 1L15.3536 0.646447L15 0.292893L14.6464 0.646447L15 1ZM17 3L16.6464 3.35355L17 3.70711L17.3536 3.35355L17 3ZM11 12L10.6799 12.3841L11 12.6509L11.3201 12.3841L11 12ZM5 7H4.5V7.23419L4.67991 7.38411L5 7ZM17 7L17.3201 7.38411L17.5 7.23419V7H17ZM17 5H17.5V4.06574L16.7226 4.58397L17 5ZM11 9L10.7226 9.41603L11 9.60093L11.2774 9.41603L11 9ZM5 5L5.27735 4.58397L4.5 4.06574V5H5ZM21.3536 2.64645L19.3536 0.646447L18.6464 1.35355L20.6464 3.35355L21.3536 2.64645ZM19.3536 5.35355L21.3536 3.35355L20.6464 2.64645L18.6464 4.64645L19.3536 5.35355ZM21.3536 6.64645L19.3536 4.64645L18.6464 5.35355L20.6464 7.35355L21.3536 6.64645ZM19.3536 9.35355L21.3536 7.35355L20.6464 6.64645L18.6464 8.64645L19.3536 9.35355ZM21.3536 10.6464L19.3536 8.64645L18.6464 9.35355L20.6464 11.3536L21.3536 10.6464ZM19.3536 13.3536L21.3536 11.3536L20.6464 10.6464L18.6464 12.6464L19.3536 13.3536ZM21.3536 14.6464L19.3536 12.6464L18.6464 13.3536L20.6464 15.3536L21.3536 14.6464ZM19.3536 17.3536L21.3536 15.3536L20.6464 14.6464L18.6464 16.6464L19.3536 17.3536ZM16.6464 15.3536L18.6464 17.3536L19.3536 16.6464L17.3536 14.6464L16.6464 15.3536ZM15.3536 17.3536L17.3536 15.3536L16.6464 14.6464L14.6464 16.6464L15.3536 17.3536ZM12.6464 15.3536L14.6464 17.3536L15.3536 16.6464L13.3536 14.6464L12.6464 15.3536ZM11.3536 17.3536L13.3536 15.3536L12.6464 14.6464L10.6464 16.6464L11.3536 17.3536ZM8.64645 15.3536L10.6464 17.3536L11.3536 16.6464L9.35355 14.6464L8.64645 15.3536ZM7.35355 17.3536L9.35355 15.3536L8.64645 14.6464L6.64645 16.6464L7.35355 17.3536ZM4.64645 15.3536L6.64645 17.3536L7.35355 16.6464L5.35355 14.6464L4.64645 15.3536ZM3.35355 17.3536L5.35355 15.3536L4.64645 14.6464L2.64645 16.6464L3.35355 17.3536ZM0.646447 15.3536L2.64645 17.3536L3.35355 16.6464L1.35355 14.6464L0.646447 15.3536ZM2.64645 12.6464L0.646447 14.6464L1.35355 15.3536L3.35355 13.3536L2.64645 12.6464ZM0.646447 11.3536L2.64645 13.3536L3.35355 12.6464L1.35355 10.6464L0.646447 11.3536ZM2.64645 8.64645L0.646447 10.6464L1.35355 11.3536L3.35355 9.35355L2.64645 8.64645ZM0.646447 7.35355L2.64645 9.35355L3.35355 8.64645L1.35355 6.64645L0.646447 7.35355ZM2.64645 4.64645L0.646447 6.64645L1.35355 7.35355L3.35355 5.35355L2.64645 4.64645ZM0.646447 3.35355L2.64645 5.35355L3.35355 4.64645L1.35355 2.64645L0.646447 3.35355ZM2.64645 0.646447L0.646447 2.64645L1.35355 3.35355L3.35355 1.35355L2.64645 0.646447ZM5.35355 2.64645L3.35355 0.646447L2.64645 1.35355L4.64645 3.35355L5.35355 2.64645ZM6.64645 0.646447L4.64645 2.64645L5.35355 3.35355L7.35355 1.35355L6.64645 0.646447ZM9.35355 2.64645L7.35355 0.646447L6.64645 1.35355L8.64645 3.35355L9.35355 2.64645ZM10.6464 0.646447L8.64645 2.64645L9.35355 3.35355L11.3536 1.35355L10.6464 0.646447ZM13.3536 2.64645L11.3536 0.646447L10.6464 1.35355L12.6464 3.35355L13.3536 2.64645ZM14.6464 0.646447L12.6464 2.64645L13.3536 3.35355L15.3536 1.35355L14.6464 0.646447ZM17.3536 2.64645L15.3536 0.646447L14.6464 1.35355L16.6464 3.35355L17.3536 2.64645ZM18.6464 0.646447L16.6464 2.64645L17.3536 3.35355L19.3536 1.35355L18.6464 0.646447ZM11.3201 11.6159L5.32009 6.61589L4.67991 7.38411L10.6799 12.3841L11.3201 11.6159ZM16.6799 6.61589L10.6799 11.6159L11.3201 12.3841L17.3201 7.38411L16.6799 6.61589ZM16.5 5V7H17.5V5H16.5ZM11.2774 9.41603L17.2773 5.41603L16.7226 4.58397L10.7226 8.58397L11.2774 9.41603ZM4.72265 5.41603L10.7226 9.41603L11.2774 8.58397L5.27735 4.58397L4.72265 5.41603ZM5.5 7V5H4.5V7H5.5Z" fill="black"/>
</svg>
