<svg width="23" height="21" viewBox="0 0 23 21" fill="none" xmlns="http://www.w3.org/2000/svg">
<path fill-rule="evenodd" clip-rule="evenodd" d="M0 6.50077C0 2.92089 2.75323 0 6.17168 0C7.81193 0 9.38285 0.687602 10.5394 1.90792L11.5 2.92145L12.4606 1.90792C13.6172 0.687615 15.188 0 16.8283 0C20.2468 0 23 2.92088 23 6.50077C23 8.22137 22.3522 9.87365 21.1961 11.0936L12.0228 20.7725C11.8848 20.9181 11.6965 21 11.5 21C11.3035 21 11.1152 20.9181 10.9772 20.7725L1.80392 11.0936C0.647697 9.87365 0 8.22135 0 6.50077ZM6.17168 1.52687C3.58388 1.52687 1.46809 3.74337 1.46809 6.50077C1.46809 7.82344 1.96617 9.08976 2.84945 10.0217L11.5 19.1491L20.1506 10.0217C21.0338 9.08976 21.5319 7.82342 21.5319 6.50077C21.5319 3.74337 19.4161 1.52687 16.8283 1.52687C15.5843 1.52687 14.3891 2.04819 13.5061 2.9798L12.0228 4.54489C11.8848 4.69044 11.6965 4.77239 11.5 4.77239C11.3035 4.77239 11.1152 4.69044 10.9772 4.54489L9.49388 2.9798C8.61097 2.0482 7.4157 1.52687 6.17168 1.52687Z" fill="#313131"/>
</svg>
