<svg width="19" height="19" viewBox="0 0 19 19" fill="none" xmlns="http://www.w3.org/2000/svg">
<path d="M13.9871 12.4607L14.3861 12.762L14.6874 12.363L14.2884 12.0617L13.9871 12.4607ZM12.8239 14.0015L12.5227 14.4005L12.9217 14.7018L13.223 14.3027L12.8239 14.0015ZM10.2779 9.66052H9.77794V9.90953L9.97667 10.0596L10.2779 9.66052ZM10.2779 4.30648H10.7779V3.80648H10.2779V4.30648ZM8.34747 4.30648V3.80648H7.84747V4.30648H8.34747ZM8.34747 10.6219H7.84747V10.8709L8.04621 11.021L8.34747 10.6219ZM9.5 0.5C4.52944 0.5 0.5 4.52944 0.5 9.5H1.5C1.5 5.08172 5.08172 1.5 9.5 1.5V0.5ZM18.5 9.5C18.5 4.52944 14.4706 0.5 9.5 0.5V1.5C13.9183 1.5 17.5 5.08172 17.5 9.5H18.5ZM9.5 18.5C14.4706 18.5 18.5 14.4706 18.5 9.5H17.5C17.5 13.9183 13.9183 17.5 9.5 17.5V18.5ZM0.5 9.5C0.5 14.4706 4.52944 18.5 9.5 18.5V17.5C5.08172 17.5 1.5 13.9183 1.5 9.5H0.5ZM13.588 12.1595L12.4249 13.7002L13.223 14.3027L14.3861 12.762L13.588 12.1595ZM9.97667 10.0596L13.6858 12.8598L14.2884 12.0617L10.5792 9.26147L9.97667 10.0596ZM9.77794 4.30648V9.66052H10.7779V4.30648H9.77794ZM8.34747 4.80648H10.2779V3.80648H8.34747V4.80648ZM8.84747 10.6219V4.30648H7.84747V10.6219H8.84747ZM13.1252 13.6024L8.64874 10.2229L8.04621 11.021L12.5227 14.4005L13.1252 13.6024Z" fill="black"/>
</svg>
