<svg width="24" height="22" viewBox="0 0 24 22" fill="none" xmlns="http://www.w3.org/2000/svg">
<path fill-rule="evenodd" clip-rule="evenodd" d="M0 6.89256C0 3.14216 2.88052 0 6.55584 0C8.31418 0 9.9877 0.741372 11.212 2.03988L12 2.87563L12.788 2.03988C14.0123 0.741376 15.6858 0 17.4441 0C21.1195 0 24 3.14215 24 6.89256C24 8.70219 23.3228 10.4487 22.1004 11.7452L12.7276 21.686C12.5386 21.8864 12.2754 22 12 22C11.7246 22 11.4614 21.8864 11.2724 21.686L1.89967 11.7452C0.67725 10.4487 0 8.7022 0 6.89256ZM6.55584 2C4.09434 2 2 4.13422 2 6.89256C2 8.20851 2.49344 9.45959 3.35485 10.3732L12 19.5423L20.6452 10.3732C21.5066 9.4596 22 8.20852 22 6.89256C22 4.13423 19.9057 2 17.4441 2C16.2555 2 15.1027 2.50027 14.2432 3.4119L12.7276 5.01934C12.5387 5.21974 12.2754 5.33333 12 5.33333C11.7246 5.33333 11.4614 5.21974 11.2724 5.01935L9.75682 3.4119C8.89728 2.50027 7.7445 2 6.55584 2Z" fill="#295E21"/>
</svg>
