<svg width="24" height="24" viewBox="0 0 24 24" fill="none" xmlns="http://www.w3.org/2000/svg">
<path d="M19.6873 22.5896L19.0165 22.2542L19.0163 22.2545L19.6873 22.5896ZM3.81268 22.5896L4.48353 22.2542L4.4835 22.2542L3.81268 22.5896ZM6.10741 8.99301L10.8217 1.13587L9.53548 0.364127L4.82117 8.22127L6.10741 8.99301ZM12.6783 1.13587L17.3926 8.99301L18.6788 8.22127L13.9645 0.364127L12.6783 1.13587ZM1.06931 9.35714H22.4307V7.85714H1.06931V9.35714ZM22.4307 9.35714C22.1928 9.35714 22 9.16436 22 8.92645H23.5C23.5 8.33584 23.0212 7.85714 22.4307 7.85714V9.35714ZM22 8.92645V9.61593H23.5V8.92645H22ZM22 9.61593C22 14.0032 20.9785 18.3301 19.0165 22.2542L20.3581 22.925C22.4243 18.7927 23.5 14.236 23.5 9.61593H22ZM19.0163 22.2545C19.0943 22.0985 19.2536 22 19.4279 22V23.5C19.8218 23.5 20.1821 23.2773 20.3583 22.9247L19.0163 22.2545ZM19.4279 22H4.07215V23.5H19.4279V22ZM4.07215 22C4.24646 22 4.40567 22.0985 4.48353 22.2542L3.14183 22.925C3.31797 23.2773 3.67808 23.5 4.07215 23.5V22ZM4.4835 22.2542C2.52146 18.3301 1.5 14.0032 1.5 9.61593H0C0 14.236 1.07568 18.7927 3.14186 22.925L4.4835 22.2542ZM1.5 9.61593V8.92645H0V9.61593H1.5ZM1.5 8.92645C1.5 9.16431 1.30717 9.35714 1.06931 9.35714V7.85714C0.478746 7.85714 0 8.33589 0 8.92645H1.5Z" fill="black"/>
</svg>
