<svg width="26" height="23" viewBox="0 0 26 23" fill="none" xmlns="http://www.w3.org/2000/svg">
<path fill-rule="evenodd" clip-rule="evenodd" d="M9.05561 1C7.37443 1 5.81645 1.88181 4.95108 3.32316L1.27539 9.44526V19.8875C1.27539 20.5848 1.84063 21.15 2.53789 21.15H4.30039C4.99765 21.15 5.56289 20.5848 5.56289 19.8875V17.625H20.6629V19.8875C20.6629 20.5848 21.2281 21.15 21.9254 21.15H23.6879C24.3851 21.15 24.9504 20.5848 24.9504 19.8875V9.44526L21.2747 3.32316C20.4093 1.88181 18.8513 1 17.1702 1H9.05561ZM4.09373 2.80841C5.13987 1.066 7.02327 0 9.05561 0H17.1702C19.2025 0 21.0859 1.066 22.132 2.80841L25.9504 9.16812V19.8875C25.9504 21.137 24.9374 22.15 23.6879 22.15H21.9254C20.6758 22.15 19.6629 21.137 19.6629 19.8875V18.625H6.56289V19.8875C6.56289 21.137 5.54993 22.15 4.30039 22.15H2.53789C1.28835 22.15 0.275391 21.137 0.275391 19.8875V9.16812L4.09373 2.80841ZM21.0441 9.8125H5.18164V8.8125H21.0441V9.8125ZM8.70664 15.1H3.41914V14.1H8.70664V15.1ZM17.5191 14.1H22.8066V15.1H17.5191V14.1Z" fill="black"/>
</svg>
