<svg width="34" height="21" viewBox="0 0 34 21" fill="none" xmlns="http://www.w3.org/2000/svg">
<path fill-rule="evenodd" clip-rule="evenodd" d="M16.8161 2.57666C18.6469 0.949296 21.0201 0 23.5968 0C29.1569 0 33.7 4.54306 33.7 10.1032C33.7 15.6634 29.1569 20.2064 23.5968 20.2064C20.9523 20.2064 18.5791 19.2571 16.8161 17.6298C15.0531 19.2571 12.6799 20.2064 10.1032 20.2064C4.54306 20.2064 0 15.6634 0 10.1032C0 4.54306 4.54306 0 10.1032 0C12.6799 0 15.0531 0.949296 16.8161 2.57666ZM15.2565 10.2388C15.3243 9.76418 15.5956 9.49296 15.9346 9.49296C16.5362 9.49296 16.4973 9.97326 16.4809 10.1764C16.4788 10.2022 16.4771 10.2235 16.4771 10.2388H15.2565ZM6.84849 11.5272C6.84849 11.7984 6.9841 11.934 7.25533 11.934C7.72998 11.934 8.00121 11.5272 8.06901 10.9169H7.79779C7.18752 10.9169 6.84849 11.1203 6.84849 11.5272ZM24.207 11.5272C24.207 11.7984 24.3427 11.934 24.6139 11.934C25.0885 11.934 25.3598 11.5272 25.4276 10.9169H25.1563C24.4783 10.9169 24.207 11.1203 24.207 11.5272ZM30.6487 9.62857C30.174 9.62857 29.7672 10.2388 29.7672 11.0525C29.7672 11.595 29.9706 11.8662 30.3097 11.8662C30.8521 11.8662 31.1911 11.2559 31.1911 10.4423C31.259 9.8998 31.0555 9.62857 30.6487 9.62857ZM4.27183 12.8155L4.88209 8.8827L3.45815 12.8155H2.71227L2.64447 8.8827L1.9664 12.8155H0.949296L1.83078 7.66217H3.39034L3.45815 10.8491L4.54306 7.66217H6.23823L5.35674 12.8155H4.27183ZM7.9334 12.4087V12.8155C7.9334 12.8155 8.67928 12.8155 8.81489 12.7477C8.8827 12.4087 9.08612 11.1203 9.15392 10.5101C9.22173 10.171 9.22173 9.8998 9.22173 9.69638C9.22173 8.8827 8.74708 8.47585 7.79779 8.47585C7.39095 8.47585 7.05191 8.54366 6.50946 8.67928C6.50946 8.67928 6.37384 9.56076 6.37384 9.62857C6.57726 9.56076 6.9841 9.42515 7.52656 9.42515C8.00121 9.42515 8.20463 9.56076 8.20463 9.83199C8.20463 9.8998 8.20463 9.96761 8.13682 10.1032H7.66217C6.44165 10.1032 5.76358 10.7135 5.76358 11.7306C5.76358 12.4087 6.17042 12.8833 6.78068 12.8833C7.25533 12.8833 7.66217 12.7477 7.9334 12.4087ZM11.1881 10.3066C11.7306 10.5779 11.934 10.9169 11.934 11.4594C11.934 12.4087 11.3915 12.8833 10.2388 12.8833C9.61767 12.8833 9.39483 12.8264 9.15329 12.7647L9.08612 12.7477C9.08612 12.6799 9.22173 11.7984 9.22173 11.7984C9.56076 11.934 9.8998 11.934 10.2388 11.934C10.6457 11.934 10.8491 11.7984 10.8491 11.5272C10.8491 11.3237 10.7813 11.2559 10.3066 11.0525C9.69638 10.7813 9.49296 10.4423 9.49296 9.8998C9.49296 9.15392 9.8998 8.47585 11.1203 8.47585C11.2559 8.47585 11.4255 8.49281 11.595 8.50976L11.595 8.50976C11.7645 8.52671 11.934 8.54366 12.0696 8.54366L11.934 9.49296C11.6628 9.42515 11.3915 9.42515 11.1203 9.42515C10.7813 9.42515 10.5779 9.56076 10.5779 9.76418C10.6457 10.0354 10.7135 10.1032 11.1881 10.3066ZM13.8326 11.7984C13.7648 11.8662 13.697 11.8662 13.5614 11.8662C13.3579 11.8662 13.2223 11.7306 13.0867 11.5272C13.0867 11.4546 13.145 11.149 13.2199 10.7558L13.2199 10.7557L13.22 10.7556L13.22 10.7554L13.22 10.7553L13.22 10.7553L13.22 10.7552C13.2851 10.4138 13.3628 10.0066 13.4258 9.62857H13.9682L14.1038 8.61147H13.5614L13.697 8.00121H12.6121L12.1374 10.8491C12.0696 11.2559 12.0018 11.7306 12.0018 11.934C12.0018 12.5443 12.3408 12.8833 12.8833 12.8833C13.1545 12.8833 13.4258 12.8155 13.697 12.7477L13.8326 11.7984ZM16.138 11.934C16.5449 11.934 16.8839 11.8662 17.2907 11.6628L17.0873 12.6799C16.6805 12.8155 16.3414 12.8155 15.9346 12.8155C14.7141 12.8155 14.1038 12.2052 14.1038 10.9847C14.1038 9.56076 14.9175 8.47585 16.0024 8.47585C16.8839 8.47585 17.4942 9.08612 17.4942 9.96761C17.4942 10.2272 17.4544 10.447 17.4054 10.7183L17.4053 10.7186C17.3903 10.8016 17.3744 10.8895 17.3586 10.9847H15.1887C15.1209 11.6628 15.5278 11.934 16.138 11.934ZM17.4942 12.8155H18.5791L18.5915 12.737C18.9874 10.2292 19.0607 9.76488 19.7318 9.83199C19.7996 9.28954 20.003 8.81489 20.1386 8.61147C19.664 8.54366 19.3928 8.81489 19.0537 9.28954C19.0537 9.18784 19.0707 9.08614 19.0876 8.98444L19.0876 8.98441L19.0876 8.98437C19.1046 8.88267 19.1215 8.78097 19.1215 8.67928H18.1044C17.9688 9.96761 17.7654 11.2559 17.562 12.5443L17.4942 12.8155ZM22.7831 12.7477C22.3763 12.8833 22.105 12.8833 21.8338 12.8833C20.6811 12.8833 19.9352 12.0018 19.9352 10.6457C19.9352 8.81489 20.9523 7.52656 22.4441 7.52656C22.8725 7.52656 23.3561 7.69228 23.5959 7.77442L23.6437 7.79074L23.6646 7.79779L23.4612 8.8827C23.0543 8.67928 22.7831 8.61147 22.5119 8.61147C21.6982 8.61147 21.0879 9.42515 21.0879 10.5101C21.0879 11.2559 21.4948 11.7306 22.105 11.7306C22.3763 11.7306 22.6475 11.6628 23.0543 11.4594L22.7831 12.7477ZM25.292 12.8155H26.1734C26.1734 12.4765 26.3769 11.1881 26.5125 10.5101C26.5803 10.171 26.5803 9.8998 26.5803 9.69638C26.5803 8.8827 26.1056 8.47585 25.1563 8.47585C24.7495 8.47585 24.4105 8.54366 23.868 8.67928C23.868 8.67928 23.7324 9.56076 23.7324 9.62857C23.9358 9.56076 24.3427 9.42515 24.8851 9.42515C25.3598 9.42515 25.5632 9.56076 25.5632 9.83199C25.5632 9.8998 25.5632 9.96761 25.4954 10.1032H25.0207C23.8002 10.1032 23.1221 10.7135 23.1221 11.7306C23.1221 12.4087 23.529 12.8833 24.1392 12.8833C24.6139 12.8833 25.0207 12.7477 25.292 12.4087V12.8155ZM27.6652 12.8155H26.5803L26.6481 12.5443C26.8515 11.2559 27.0549 9.96761 27.1905 8.67928H28.2076C28.2076 8.78097 28.1907 8.88267 28.1737 8.98437L28.1737 8.98441L28.1737 8.98444C28.1568 9.08614 28.1398 9.18784 28.1398 9.28954C28.4789 8.81489 28.7501 8.54366 29.2247 8.61147C29.0891 8.81489 28.8857 9.28954 28.8179 9.83199C28.1398 9.76418 28.0042 10.2388 27.6652 12.8155ZM30.9312 12.7477L30.9199 12.8155V12.7477H30.9312ZM30.9877 12.4087L30.9312 12.7477H31.937L32.7507 7.59437H31.6658L31.3946 9.08612C31.1233 8.74708 30.7843 8.54366 30.3775 8.54366C29.4282 8.54366 28.6145 9.76418 28.6145 11.1203C28.6145 12.2052 29.1569 12.8833 29.9706 12.8833C30.3775 12.8833 30.7165 12.7477 30.9877 12.4087Z" fill="#AEAEAE"/>
</svg>
