<svg width="360" height="30" viewBox="0 0 360 30" fill="none" xmlns="http://www.w3.org/2000/svg">
	<path fill-rule="evenodd" clip-rule="evenodd" d="M97.0005 0.996989L244 0.996135C244 0.996135 343.5 0.999187 359.999 0.996135C360 12.6696 360 20.2146 359.999 24.6734L355.187 19.848L345.068 29.9945H342.306L332.187 19.848L322.068 29.9945H319.306L309.187 19.848L299.068 29.9945H296.306L286.187 19.848L276.068 29.9945H273.306L263.187 19.848L253.068 29.9945H250.306L240.187 19.848L230.068 29.9945H225.807L215.334 19.4944L204.864 29.9945H202.807L192.334 19.4944L181.864 29.9945H179.306L169.187 19.848L159.068 29.9945H156.306L146.187 19.848L136.068 29.9945H133.306L123.188 19.848L113.069 29.9945H110.306L100.188 19.848L90.0689 29.9945H86.807L76.334 19.4944L65.8645 29.9945H63.306L53.1873 19.848L43.0686 29.9945H38.8067L28.3337 19.4944L17.8643 29.9945H15.8068L5.33378 19.4944L0.0971012 24.7464L0.0969238 0.996094C13.5 0.996094 97.0005 0.996989 97.0005 0.996989Z" fill="#e9f1e9" />
</svg>
